<svg width="270" height="240" viewBox="0 0 270 240" fill="none" xmlns="http://www.w3.org/2000/svg">
<rect width="270" height="240" rx="10" fill="#76B728"/>
<path fillRule="evenodd" clipRule="evenodd" d="M65.0129 98.3602H36.2129V81.8773C36.2129 81.3602 35.7941 80.9414 35.277 80.9414H27.8254C27.3082 80.9414 26.8895 81.3602 26.8895 81.8773V98.3602H20.9551C20.4363 98.3602 20.0176 97.9398 20.0176 97.4227V68.5273C20.0176 68.0086 20.4363 67.5898 20.9551 67.5898H65.0129C65.5301 67.5898 65.9488 68.0086 65.9488 68.5273V97.4227C65.9488 97.9398 65.5301 98.3602 65.0129 98.3602ZM45.4051 79.4727H40.3379C39.8207 79.4727 39.4004 79.0539 39.4004 78.5367V73.3211C39.4004 72.8039 39.8207 72.3836 40.3379 72.3836H45.4051C45.9223 72.3836 46.341 72.8039 46.341 73.3211V78.5367C46.341 79.0539 45.9223 79.4727 45.4051 79.4727ZM41.2754 77.5992H44.4676V74.2586H41.2754V77.5992ZM53.5363 79.4727H48.4707C47.9535 79.4727 47.5332 79.0539 47.5332 78.5367V73.3211C47.5332 72.8039 47.9535 72.3836 48.4707 72.3836H53.5363C54.0535 72.3836 54.4738 72.8039 54.4738 73.3211V78.5367C54.4738 79.0539 54.0535 79.4727 53.5363 79.4727ZM49.4082 77.5992H52.6004V74.2586H49.4082V77.5992ZM61.6691 79.4727H56.6035C56.0863 79.4727 55.666 79.0539 55.666 78.5367V73.3211C55.666 72.8039 56.0863 72.3836 56.6035 72.3836H61.6691C62.1863 72.3836 62.6066 72.8039 62.6066 73.3211V78.5367C62.6066 79.0539 62.1863 79.4727 61.6691 79.4727ZM57.5395 77.5992H60.7316V74.2586H57.5395V77.5992ZM45.4051 87.5055H40.3379C39.8207 87.5055 39.4004 87.0852 39.4004 86.568V81.3523C39.4004 80.8352 39.8207 80.4164 40.3379 80.4164H45.4051C45.9223 80.4164 46.341 80.8352 46.341 81.3539V86.568C46.341 87.0867 45.9223 87.5055 45.4051 87.5055ZM41.2754 85.632H44.4676V82.2898H41.2754V85.632ZM53.5363 87.5055H48.4707C47.9535 87.5055 47.5332 87.0852 47.5332 86.568V81.3523C47.5332 80.8352 47.9535 80.4164 48.4707 80.4164H53.5363C54.0535 80.4164 54.4738 80.8352 54.4738 81.3539V86.568C54.4738 87.0867 54.0535 87.5055 53.5363 87.5055ZM49.4082 85.632H52.6004V82.2898H49.4082V85.632ZM61.6691 87.5055H56.6035C56.0863 87.5055 55.666 87.0852 55.666 86.568V81.3523C55.666 80.8352 56.0863 80.4164 56.6035 80.4164H61.6691C62.1863 80.4164 62.6066 80.8352 62.6066 81.3539V86.568C62.6066 87.0867 62.1863 87.5055 61.6691 87.5055ZM57.5395 85.632H60.7316V82.2898H57.5395V85.632ZM34.3395 98.3602H28.7629V82.8148H34.3395V98.3602Z" fill="white"/>
<path fillRule="evenodd" clipRule="evenodd" d="M26.1504 65.7133L26.9566 52.5461H35.8488L36.6551 65.7133H26.1504ZM27.0707 50.6711L27.1504 49.3789H35.6551L35.7348 50.6711H27.0707ZM27.2645 47.5055L27.4129 45.0867C27.4426 44.593 27.8535 44.207 28.3488 44.207H34.4582C34.9535 44.207 35.3629 44.593 35.3926 45.0867L35.541 47.5055H27.2645Z" fill="white"/>
<path fillRule="evenodd" clipRule="evenodd" d="M39.5098 65.7137L40.2988 53.609H49.2035L49.9926 65.7137H39.5098ZM40.4207 51.7355L40.4926 50.634H49.0098L49.0816 51.7355H40.4207ZM40.6145 48.7605L40.7613 46.4996C40.7941 46.0059 41.202 45.623 41.6973 45.623H47.8051C48.3004 45.623 48.7082 46.0059 48.741 46.4996L48.8879 48.7605H40.6145Z" fill="white"/>
<path fillRule="evenodd" clipRule="evenodd" d="M52.1172 65.7129L53.5766 56.877V48.377C53.5766 47.8582 53.9969 47.4395 54.5141 47.4395H66.7906C67.3078 47.4395 67.7266 47.8582 67.7266 48.377V56.877L69.5562 67.9488C69.6406 68.4598 69.2953 68.941 68.7844 69.0254C68.7156 69.0363 68.3688 69.0535 67.8234 69.0723V68.5254C67.8234 66.9723 66.5641 65.7129 65.0125 65.7129H52.1172Z" fill="white"/>
<path fillRule="evenodd" clipRule="evenodd" d="M67.8242 89.2996V70.9496L68.0367 70.9418C68.3648 70.9293 68.768 70.9293 69.0898 70.8762C70.6227 70.623 71.6602 69.1746 71.407 67.6434L69.9289 58.7027V52.223C69.9289 51.7059 70.3492 51.2871 70.8664 51.2871H86.3867C86.9039 51.2871 87.3227 51.7059 87.3227 52.223V59.3199L93.0117 81.3949L94.9883 89.2996H67.8242ZM91.1273 86.809C90.6102 86.809 90.1898 86.3887 90.1898 85.8715V82.1277C90.1898 81.6105 90.6102 81.1902 91.1273 81.1902C91.6445 81.1902 92.0648 81.6105 92.0648 82.1277V85.8715C92.0648 86.3887 91.6445 86.809 91.1273 86.809ZM88.1586 86.809C87.6414 86.809 87.2227 86.3887 87.2227 85.8715V82.1277C87.2227 81.6105 87.6414 81.1902 88.1586 81.1902C88.6758 81.1902 89.0961 81.6105 89.0961 82.1277V85.8715C89.0961 86.3887 88.6773 86.809 88.1586 86.809ZM85.1914 86.809C84.6742 86.809 84.2539 86.3887 84.2539 85.8715V82.1277C84.2539 81.6105 84.6742 81.1902 85.1914 81.1902C85.7086 81.1902 86.1289 81.6105 86.1289 82.1277V85.8715C86.1289 86.3887 85.7086 86.809 85.1914 86.809ZM82.2227 86.809C81.7055 86.809 81.2867 86.3887 81.2867 85.8715V82.1277C81.2867 81.6105 81.7055 81.1902 82.2227 81.1902C82.7398 81.1902 83.1602 81.6105 83.1602 82.1277V85.8715C83.1602 86.3887 82.7398 86.809 82.2227 86.809ZM79.2555 86.809C78.7383 86.809 78.318 86.3887 78.318 85.8715V82.1277C78.318 81.6105 78.7383 81.1902 79.2555 81.1902C79.7727 81.1902 80.193 81.6105 80.193 82.1277V85.8715C80.193 86.3887 79.7727 86.809 79.2555 86.809ZM76.2867 86.809C75.7695 86.809 75.3492 86.3887 75.3492 85.8715V82.1277C75.3492 81.6105 75.7695 81.1902 76.2867 81.1902C76.8039 81.1902 77.2242 81.6105 77.2242 82.1277V85.8715C77.2242 86.3887 76.8039 86.809 76.2867 86.809ZM73.3195 86.809C72.8023 86.809 72.382 86.3887 72.382 85.8715V82.1277C72.382 81.6105 72.8023 81.1902 73.3195 81.1902C73.8367 81.1902 74.2555 81.6105 74.2555 82.1277V85.8715C74.2555 86.3887 73.8367 86.809 73.3195 86.809ZM70.3508 86.809C69.8336 86.809 69.4133 86.3887 69.4133 85.8715V82.1277C69.4133 81.6105 69.8336 81.1902 70.3508 81.1902C70.868 81.1902 71.2883 81.6105 71.2883 82.1277V85.8715C71.2883 86.3887 70.868 86.809 70.3508 86.809Z" fill="white"/>
<path fillRule="evenodd" clipRule="evenodd" d="M99.0461 98.3602H67.8242V91.1758H99.0461C99.5648 91.1758 99.9836 91.5961 99.9836 92.1133V97.4227C99.9836 97.9398 99.5648 98.3602 99.0461 98.3602Z" fill="white"/>
<path fillRule="evenodd" clipRule="evenodd" d="M63.077 42.2703C60.1082 42.2703 57.5223 40.3313 56.6238 37.5969C55.877 37.8719 55.0816 38.0141 54.277 38.0141C50.5332 38.0141 47.4863 34.9672 47.4863 31.2234C47.4863 27.5859 50.3598 24.6078 53.9566 24.4391C55.2332 22.6781 57.2504 21.6406 59.4504 21.6406C61.0816 21.6406 62.6301 22.2141 63.8582 23.2656C64.0613 23.2469 64.266 23.2375 64.4691 23.2375C66.4254 23.2375 68.2645 24.0703 69.5551 25.5281C72.0738 26.5719 73.7488 29.0625 73.7488 31.8047C73.7488 34.6453 71.9457 37.2 69.3113 38.175C68.2441 40.6437 65.7957 42.2703 63.077 42.2703Z" fill="white"/>
<path fillRule="evenodd" clipRule="evenodd" d="M79.8516 44.3953C77.2328 44.3953 75.1016 42.2656 75.1016 39.6469C75.1016 37.0281 77.2328 34.8984 79.8516 34.8984C82.4687 34.8984 84.6 37.0281 84.6 39.6469C84.6 42.2656 82.4687 44.3953 79.8516 44.3953Z" fill="white"/>
<path d="M27.942 125.476V152H22.622V125.476H27.942ZM55.8842 152H50.5642L38.5182 133.798V152H33.1982V125.438H38.5182L50.5642 143.678V125.438H55.8842V152ZM77.3295 136.192V140.676H61.2175V136.192H77.3295ZM105.298 125.476V152H99.9778V140.714H88.6158V152H83.2958V125.476H88.6158V136.382H99.9778V125.476H105.298ZM122.846 152.266C120.363 152.266 118.083 151.683 116.006 150.518C113.929 149.353 112.282 147.744 111.066 145.692C109.85 143.615 109.242 141.271 109.242 138.662C109.242 136.078 109.85 133.76 111.066 131.708C112.282 129.631 113.929 128.009 116.006 126.844C118.083 125.679 120.363 125.096 122.846 125.096C125.354 125.096 127.634 125.679 129.686 126.844C131.763 128.009 133.397 129.631 134.588 131.708C135.804 133.76 136.412 136.078 136.412 138.662C136.412 141.271 135.804 143.615 134.588 145.692C133.397 147.744 131.763 149.353 129.686 150.518C127.609 151.683 125.329 152.266 122.846 152.266ZM122.846 147.516C124.442 147.516 125.848 147.161 127.064 146.452C128.28 145.717 129.23 144.679 129.914 143.336C130.598 141.993 130.94 140.435 130.94 138.662C130.94 136.889 130.598 135.343 129.914 134.026C129.23 132.683 128.28 131.657 127.064 130.948C125.848 130.239 124.442 129.884 122.846 129.884C121.25 129.884 119.831 130.239 118.59 130.948C117.374 131.657 116.424 132.683 115.74 134.026C115.056 135.343 114.714 136.889 114.714 138.662C114.714 140.435 115.056 141.993 115.74 143.336C116.424 144.679 117.374 145.717 118.59 146.452C119.831 147.161 121.25 147.516 122.846 147.516ZM145.614 125.476V141.892C145.614 143.691 146.083 145.071 147.02 146.034C147.957 146.971 149.275 147.44 150.972 147.44C152.695 147.44 154.025 146.971 154.962 146.034C155.899 145.071 156.368 143.691 156.368 141.892V125.476H161.726V141.854C161.726 144.109 161.232 146.021 160.244 147.592C159.281 149.137 157.977 150.303 156.33 151.088C154.709 151.873 152.897 152.266 150.896 152.266C148.92 152.266 147.121 151.873 145.5 151.088C143.904 150.303 142.637 149.137 141.7 147.592C140.763 146.021 140.294 144.109 140.294 141.854V125.476H145.614ZM176.024 152.266C174.175 152.266 172.503 151.949 171.008 151.316C169.539 150.683 168.373 149.771 167.512 148.58C166.651 147.389 166.207 145.983 166.182 144.362H171.882C171.958 145.451 172.338 146.313 173.022 146.946C173.731 147.579 174.694 147.896 175.91 147.896C177.151 147.896 178.127 147.605 178.836 147.022C179.545 146.414 179.9 145.629 179.9 144.666C179.9 143.881 179.659 143.235 179.178 142.728C178.697 142.221 178.089 141.829 177.354 141.55C176.645 141.246 175.657 140.917 174.39 140.562C172.667 140.055 171.261 139.561 170.172 139.08C169.108 138.573 168.183 137.826 167.398 136.838C166.638 135.825 166.258 134.482 166.258 132.81C166.258 131.239 166.651 129.871 167.436 128.706C168.221 127.541 169.323 126.654 170.742 126.046C172.161 125.413 173.782 125.096 175.606 125.096C178.342 125.096 180.559 125.767 182.256 127.11C183.979 128.427 184.929 130.277 185.106 132.658H179.254C179.203 131.746 178.811 130.999 178.076 130.416C177.367 129.808 176.417 129.504 175.226 129.504C174.187 129.504 173.351 129.77 172.718 130.302C172.11 130.834 171.806 131.607 171.806 132.62C171.806 133.329 172.034 133.925 172.49 134.406C172.971 134.862 173.554 135.242 174.238 135.546C174.947 135.825 175.935 136.154 177.202 136.534C178.925 137.041 180.331 137.547 181.42 138.054C182.509 138.561 183.447 139.321 184.232 140.334C185.017 141.347 185.41 142.677 185.41 144.324C185.41 145.743 185.043 147.06 184.308 148.276C183.573 149.492 182.497 150.467 181.078 151.202C179.659 151.911 177.975 152.266 176.024 152.266ZM195.342 129.77V136.42H204.272V140.638H195.342V147.668H205.412V152H190.022V125.438H205.412V129.77H195.342ZM35.68 168.16V182H33.86V171.68L29.26 182H27.98L23.36 171.66V182H21.54V168.16H23.5L28.62 179.6L33.74 168.16H35.68ZM38.0866 176.48C38.0866 175.36 38.3132 174.38 38.7666 173.54C39.2199 172.687 39.8399 172.027 40.6266 171.56C41.4266 171.093 42.3132 170.86 43.2866 170.86C44.2466 170.86 45.0799 171.067 45.7866 171.48C46.4932 171.893 47.0199 172.413 47.3666 173.04V171.04H49.2066V182H47.3666V179.96C47.0066 180.6 46.4666 181.133 45.7466 181.56C45.0399 181.973 44.2132 182.18 43.2666 182.18C42.2932 182.18 41.4132 181.94 40.6266 181.46C39.8399 180.98 39.2199 180.307 38.7666 179.44C38.3132 178.573 38.0866 177.587 38.0866 176.48ZM47.3666 176.5C47.3666 175.673 47.1999 174.953 46.8666 174.34C46.5332 173.727 46.0799 173.26 45.5066 172.94C44.9466 172.607 44.3266 172.44 43.6466 172.44C42.9666 172.44 42.3466 172.6 41.7866 172.92C41.2266 173.24 40.7799 173.707 40.4466 174.32C40.1132 174.933 39.9466 175.653 39.9466 176.48C39.9466 177.32 40.1132 178.053 40.4466 178.68C40.7799 179.293 41.2266 179.767 41.7866 180.1C42.3466 180.42 42.9666 180.58 43.6466 180.58C44.3266 180.58 44.9466 180.42 45.5066 180.1C46.0799 179.767 46.5332 179.293 46.8666 178.68C47.1999 178.053 47.3666 177.327 47.3666 176.5ZM57.6222 170.84C58.9555 170.84 60.0355 171.247 60.8622 172.06C61.6889 172.86 62.1022 174.02 62.1022 175.54V182H60.3022V175.8C60.3022 174.707 60.0289 173.873 59.4822 173.3C58.9355 172.713 58.1889 172.42 57.2422 172.42C56.2822 172.42 55.5155 172.72 54.9422 173.32C54.3822 173.92 54.1022 174.793 54.1022 175.94V182H52.2822V171.04H54.1022V172.6C54.4622 172.04 54.9489 171.607 55.5622 171.3C56.1889 170.993 56.8755 170.84 57.6222 170.84ZM74.7952 171.04V182H72.9752V180.38C72.6285 180.94 72.1418 181.38 71.5152 181.7C70.9018 182.007 70.2218 182.16 69.4752 182.16C68.6218 182.16 67.8552 181.987 67.1752 181.64C66.4952 181.28 65.9552 180.747 65.5552 180.04C65.1685 179.333 64.9752 178.473 64.9752 177.46V171.04H66.7752V177.22C66.7752 178.3 67.0485 179.133 67.5952 179.72C68.1418 180.293 68.8885 180.58 69.8352 180.58C70.8085 180.58 71.5752 180.28 72.1352 179.68C72.6952 179.08 72.9752 178.207 72.9752 177.06V171.04H74.7952ZM82.3281 172.54H80.0281V182H78.2081V172.54H76.7881V171.04H78.2081V170.26C78.2081 169.033 78.5215 168.14 79.1481 167.58C79.7881 167.007 80.8081 166.72 82.2081 166.72V168.24C81.4081 168.24 80.8415 168.4 80.5081 168.72C80.1881 169.027 80.0281 169.54 80.0281 170.26V171.04H82.3281V172.54ZM83.7702 176.48C83.7702 175.36 83.9968 174.38 84.4502 173.54C84.9035 172.687 85.5235 172.027 86.3102 171.56C87.1102 171.093 87.9968 170.86 88.9702 170.86C89.9302 170.86 90.7635 171.067 91.4702 171.48C92.1768 171.893 92.7035 172.413 93.0502 173.04V171.04H94.8902V182H93.0502V179.96C92.6902 180.6 92.1502 181.133 91.4302 181.56C90.7235 181.973 89.8968 182.18 88.9502 182.18C87.9768 182.18 87.0968 181.94 86.3102 181.46C85.5235 180.98 84.9035 180.307 84.4502 179.44C83.9968 178.573 83.7702 177.587 83.7702 176.48ZM93.0502 176.5C93.0502 175.673 92.8835 174.953 92.5502 174.34C92.2168 173.727 91.7635 173.26 91.1902 172.94C90.6302 172.607 90.0102 172.44 89.3302 172.44C88.6502 172.44 88.0302 172.6 87.4702 172.92C86.9102 173.24 86.4635 173.707 86.1302 174.32C85.7968 174.933 85.6302 175.653 85.6302 176.48C85.6302 177.32 85.7968 178.053 86.1302 178.68C86.4635 179.293 86.9102 179.767 87.4702 180.1C88.0302 180.42 88.6502 180.58 89.3302 180.58C90.0102 180.58 90.6302 180.42 91.1902 180.1C91.7635 179.767 92.2168 179.293 92.5502 178.68C92.8835 178.053 93.0502 177.327 93.0502 176.5ZM97.2858 176.5C97.2858 175.367 97.5124 174.38 97.9658 173.54C98.4191 172.687 99.0458 172.027 99.8458 171.56C100.659 171.093 101.586 170.86 102.626 170.86C103.972 170.86 105.079 171.187 105.946 171.84C106.826 172.493 107.406 173.4 107.686 174.56H105.726C105.539 173.893 105.172 173.367 104.626 172.98C104.092 172.593 103.426 172.4 102.626 172.4C101.586 172.4 100.746 172.76 100.106 173.48C99.4658 174.187 99.1458 175.193 99.1458 176.5C99.1458 177.82 99.4658 178.84 100.106 179.56C100.746 180.28 101.586 180.64 102.626 180.64C103.426 180.64 104.092 180.453 104.626 180.08C105.159 179.707 105.526 179.173 105.726 178.48H107.686C107.392 179.6 106.806 180.5 105.926 181.18C105.046 181.847 103.946 182.18 102.626 182.18C101.586 182.18 100.659 181.947 99.8458 181.48C99.0458 181.013 98.4191 180.353 97.9658 179.5C97.5124 178.647 97.2858 177.647 97.2858 176.5ZM112.334 172.54V179C112.334 179.533 112.448 179.913 112.674 180.14C112.901 180.353 113.294 180.46 113.854 180.46H115.194V182H113.554C112.541 182 111.781 181.767 111.274 181.3C110.768 180.833 110.514 180.067 110.514 179V172.54H109.094V171.04H110.514V168.28H112.334V171.04H115.194V172.54H112.334ZM127.119 171.04V182H125.299V180.38C124.953 180.94 124.466 181.38 123.839 181.7C123.226 182.007 122.546 182.16 121.799 182.16C120.946 182.16 120.179 181.987 119.499 181.64C118.819 181.28 118.279 180.747 117.879 180.04C117.493 179.333 117.299 178.473 117.299 177.46V171.04H119.099V177.22C119.099 178.3 119.373 179.133 119.919 179.72C120.466 180.293 121.213 180.58 122.159 180.58C123.133 180.58 123.899 180.28 124.459 179.68C125.019 179.08 125.299 178.207 125.299 177.06V171.04H127.119ZM132.012 172.82C132.332 172.193 132.786 171.707 133.372 171.36C133.972 171.013 134.699 170.84 135.552 170.84V172.72H135.072C133.032 172.72 132.012 173.827 132.012 176.04V182H130.192V171.04H132.012V172.82ZM138.593 169.26C138.247 169.26 137.953 169.14 137.713 168.9C137.473 168.66 137.353 168.367 137.353 168.02C137.353 167.673 137.473 167.38 137.713 167.14C137.953 166.9 138.247 166.78 138.593 166.78C138.927 166.78 139.207 166.9 139.433 167.14C139.673 167.38 139.793 167.673 139.793 168.02C139.793 168.367 139.673 168.66 139.433 168.9C139.207 169.14 138.927 169.26 138.593 169.26ZM139.473 171.04V182H137.653V171.04H139.473ZM147.915 170.84C149.248 170.84 150.328 171.247 151.155 172.06C151.982 172.86 152.395 174.02 152.395 175.54V182H150.595V175.8C150.595 174.707 150.322 173.873 149.775 173.3C149.228 172.713 148.482 172.42 147.535 172.42C146.575 172.42 145.808 172.72 145.235 173.32C144.675 173.92 144.395 174.793 144.395 175.94V182H142.575V171.04H144.395V172.6C144.755 172.04 145.242 171.607 145.855 171.3C146.482 170.993 147.168 170.84 147.915 170.84ZM159.888 170.86C160.835 170.86 161.661 171.067 162.368 171.48C163.088 171.893 163.621 172.413 163.968 173.04V171.04H165.808V182.24C165.808 183.24 165.595 184.127 165.168 184.9C164.741 185.687 164.128 186.3 163.328 186.74C162.541 187.18 161.621 187.4 160.568 187.4C159.128 187.4 157.928 187.06 156.968 186.38C156.008 185.7 155.441 184.773 155.268 183.6H157.068C157.268 184.267 157.681 184.8 158.308 185.2C158.935 185.613 159.688 185.82 160.568 185.82C161.568 185.82 162.381 185.507 163.008 184.88C163.648 184.253 163.968 183.373 163.968 182.24V179.94C163.608 180.58 163.075 181.113 162.368 181.54C161.661 181.967 160.835 182.18 159.888 182.18C158.915 182.18 158.028 181.94 157.228 181.46C156.441 180.98 155.821 180.307 155.368 179.44C154.915 178.573 154.688 177.587 154.688 176.48C154.688 175.36 154.915 174.38 155.368 173.54C155.821 172.687 156.441 172.027 157.228 171.56C158.028 171.093 158.915 170.86 159.888 170.86ZM163.968 176.5C163.968 175.673 163.801 174.953 163.468 174.34C163.135 173.727 162.681 173.26 162.108 172.94C161.548 172.607 160.928 172.44 160.248 172.44C159.568 172.44 158.948 172.6 158.388 172.92C157.828 173.24 157.381 173.707 157.048 174.32C156.715 174.933 156.548 175.653 156.548 176.48C156.548 177.32 156.715 178.053 157.048 178.68C157.381 179.293 157.828 179.767 158.388 180.1C158.948 180.42 159.568 180.58 160.248 180.58C160.928 180.58 161.548 180.42 162.108 180.1C162.681 179.767 163.135 179.293 163.468 178.68C163.801 178.053 163.968 177.327 163.968 176.5ZM170.764 179.48L168.524 184.86H167.304L168.764 179.48H170.764ZM186.761 168.06V169.54H182.961V182H181.141V169.54H177.321V168.06H186.761ZM199.001 176.1C199.001 176.447 198.981 176.813 198.941 177.2H190.181C190.248 178.28 190.614 179.127 191.281 179.74C191.961 180.34 192.781 180.64 193.741 180.64C194.528 180.64 195.181 180.46 195.701 180.1C196.234 179.727 196.608 179.233 196.821 178.62H198.781C198.488 179.673 197.901 180.533 197.021 181.2C196.141 181.853 195.048 182.18 193.741 182.18C192.701 182.18 191.768 181.947 190.941 181.48C190.128 181.013 189.488 180.353 189.021 179.5C188.554 178.633 188.321 177.633 188.321 176.5C188.321 175.367 188.548 174.373 189.001 173.52C189.454 172.667 190.088 172.013 190.901 171.56C191.728 171.093 192.674 170.86 193.741 170.86C194.781 170.86 195.701 171.087 196.501 171.54C197.301 171.993 197.914 172.62 198.341 173.42C198.781 174.207 199.001 175.1 199.001 176.1ZM197.121 175.72C197.121 175.027 196.968 174.433 196.661 173.94C196.354 173.433 195.934 173.053 195.401 172.8C194.881 172.533 194.301 172.4 193.661 172.4C192.741 172.4 191.954 172.693 191.301 173.28C190.661 173.867 190.294 174.68 190.201 175.72H197.121ZM205.283 182.18C204.443 182.18 203.69 182.04 203.023 181.76C202.357 181.467 201.83 181.067 201.443 180.56C201.057 180.04 200.843 179.447 200.803 178.78H202.683C202.737 179.327 202.99 179.773 203.443 180.12C203.91 180.467 204.517 180.64 205.263 180.64C205.957 180.64 206.503 180.487 206.903 180.18C207.303 179.873 207.503 179.487 207.503 179.02C207.503 178.54 207.29 178.187 206.863 177.96C206.437 177.72 205.777 177.487 204.883 177.26C204.07 177.047 203.403 176.833 202.883 176.62C202.377 176.393 201.937 176.067 201.563 175.64C201.203 175.2 201.023 174.627 201.023 173.92C201.023 173.36 201.19 172.847 201.523 172.38C201.857 171.913 202.33 171.547 202.943 171.28C203.557 171 204.257 170.86 205.043 170.86C206.257 170.86 207.237 171.167 207.983 171.78C208.73 172.393 209.13 173.233 209.183 174.3H207.363C207.323 173.727 207.09 173.267 206.663 172.92C206.25 172.573 205.69 172.4 204.983 172.4C204.33 172.4 203.81 172.54 203.423 172.82C203.037 173.1 202.843 173.467 202.843 173.92C202.843 174.28 202.957 174.58 203.183 174.82C203.423 175.047 203.717 175.233 204.063 175.38C204.423 175.513 204.917 175.667 205.543 175.84C206.33 176.053 206.97 176.267 207.463 176.48C207.957 176.68 208.377 176.987 208.723 177.4C209.083 177.813 209.27 178.353 209.283 179.02C209.283 179.62 209.117 180.16 208.783 180.64C208.45 181.12 207.977 181.5 207.363 181.78C206.763 182.047 206.07 182.18 205.283 182.18ZM214.073 172.54V179C214.073 179.533 214.186 179.913 214.413 180.14C214.639 180.353 215.033 180.46 215.592 180.46H216.933V182H215.293C214.279 182 213.519 181.767 213.013 181.3C212.506 180.833 212.253 180.067 212.253 179V172.54H210.833V171.04H212.253V168.28H214.073V171.04H216.933V172.54H214.073ZM220.078 169.26C219.731 169.26 219.438 169.14 219.198 168.9C218.958 168.66 218.838 168.367 218.838 168.02C218.838 167.673 218.958 167.38 219.198 167.14C219.438 166.9 219.731 166.78 220.078 166.78C220.411 166.78 220.691 166.9 220.918 167.14C221.158 167.38 221.278 167.673 221.278 168.02C221.278 168.367 221.158 168.66 220.918 168.9C220.691 169.14 220.411 169.26 220.078 169.26ZM220.958 171.04V182H219.138V171.04H220.958ZM229.4 170.84C230.733 170.84 231.813 171.247 232.64 172.06C233.466 172.86 233.88 174.02 233.88 175.54V182H232.08V175.8C232.08 174.707 231.806 173.873 231.26 173.3C230.713 172.713 229.966 172.42 229.02 172.42C228.06 172.42 227.293 172.72 226.72 173.32C226.16 173.92 225.88 174.793 225.88 175.94V182H224.06V171.04H225.88V172.6C226.24 172.04 226.726 171.607 227.34 171.3C227.966 170.993 228.653 170.84 229.4 170.84ZM241.373 170.86C242.319 170.86 243.146 171.067 243.853 171.48C244.573 171.893 245.106 172.413 245.453 173.04V171.04H247.293V182.24C247.293 183.24 247.079 184.127 246.653 184.9C246.226 185.687 245.613 186.3 244.813 186.74C244.026 187.18 243.106 187.4 242.053 187.4C240.613 187.4 239.413 187.06 238.453 186.38C237.493 185.7 236.926 184.773 236.753 183.6H238.553C238.753 184.267 239.166 184.8 239.793 185.2C240.419 185.613 241.173 185.82 242.053 185.82C243.053 185.82 243.866 185.507 244.493 184.88C245.133 184.253 245.453 183.373 245.453 182.24V179.94C245.093 180.58 244.559 181.113 243.853 181.54C243.146 181.967 242.319 182.18 241.373 182.18C240.399 182.18 239.513 181.94 238.713 181.46C237.926 180.98 237.306 180.307 236.853 179.44C236.399 178.573 236.173 177.587 236.173 176.48C236.173 175.36 236.399 174.38 236.853 173.54C237.306 172.687 237.926 172.027 238.713 171.56C239.513 171.093 240.399 170.86 241.373 170.86ZM245.453 176.5C245.453 175.673 245.286 174.953 244.953 174.34C244.619 173.727 244.166 173.26 243.593 172.94C243.033 172.607 242.413 172.44 241.733 172.44C241.053 172.44 240.433 172.6 239.873 172.92C239.313 173.24 238.866 173.707 238.533 174.32C238.199 174.933 238.033 175.653 238.033 176.48C238.033 177.32 238.199 178.053 238.533 178.68C238.866 179.293 239.313 179.767 239.873 180.1C240.433 180.42 241.053 180.58 241.733 180.58C242.413 180.58 243.033 180.42 243.593 180.1C244.166 179.767 244.619 179.293 244.953 178.68C245.286 178.053 245.453 177.327 245.453 176.5ZM32.24 212L30.42 210.16C29.74 210.867 29.0133 211.393 28.24 211.74C27.4667 212.073 26.5933 212.24 25.62 212.24C24.66 212.24 23.8067 212.067 23.06 211.72C22.3267 211.373 21.7533 210.88 21.34 210.24C20.94 209.6 20.74 208.853 20.74 208C20.74 207.027 21.0133 206.173 21.56 205.44C22.12 204.693 22.94 204.107 24.02 203.68C23.5933 203.173 23.2867 202.707 23.1 202.28C22.9133 201.853 22.82 201.387 22.82 200.88C22.82 200.293 22.9667 199.767 23.26 199.3C23.5667 198.82 24 198.447 24.56 198.18C25.12 197.913 25.7667 197.78 26.5 197.78C27.22 197.78 27.8467 197.92 28.38 198.2C28.9133 198.48 29.3133 198.873 29.58 199.38C29.8467 199.873 29.9667 200.427 29.94 201.04H28.12C28.1333 200.493 27.98 200.067 27.66 199.76C27.34 199.44 26.9267 199.28 26.42 199.28C25.8867 199.28 25.4533 199.433 25.12 199.74C24.8 200.033 24.64 200.413 24.64 200.88C24.64 201.28 24.7467 201.667 24.96 202.04C25.1867 202.413 25.56 202.873 26.08 203.42L30.24 207.6L30.6 207.04L31.96 204.76H33.92L32.28 207.6C32.0533 208 31.7867 208.42 31.48 208.86L34.62 212H32.24ZM25.62 210.68C26.34 210.68 26.9867 210.54 27.56 210.26C28.1467 209.98 28.7 209.547 29.22 208.96L25.12 204.84C23.4133 205.493 22.56 206.527 22.56 207.94C22.56 208.727 22.84 209.38 23.4 209.9C23.9733 210.42 24.7133 210.68 25.62 210.68ZM47.5052 214.64L44.7252 211.86C44.0452 212.047 43.3518 212.14 42.6452 212.14C41.3518 212.14 40.1718 211.84 39.1052 211.24C38.0385 210.627 37.1918 209.78 36.5652 208.7C35.9518 207.607 35.6452 206.38 35.6452 205.02C35.6452 203.66 35.9518 202.44 36.5652 201.36C37.1918 200.267 38.0385 199.42 39.1052 198.82C40.1718 198.207 41.3518 197.9 42.6452 197.9C43.9518 197.9 45.1385 198.207 46.2052 198.82C47.2718 199.42 48.1118 200.26 48.7252 201.34C49.3385 202.42 49.6452 203.647 49.6452 205.02C49.6452 206.353 49.3518 207.553 48.7652 208.62C48.1785 209.687 47.3718 210.527 46.3452 211.14L49.8652 214.64H47.5052ZM37.5052 205.02C37.5052 206.127 37.7252 207.1 38.1652 207.94C38.6185 208.78 39.2318 209.427 40.0052 209.88C40.7918 210.333 41.6718 210.56 42.6452 210.56C43.6185 210.56 44.4918 210.333 45.2652 209.88C46.0518 209.427 46.6652 208.78 47.1052 207.94C47.5585 207.1 47.7852 206.127 47.7852 205.02C47.7852 203.9 47.5585 202.927 47.1052 202.1C46.6652 201.26 46.0585 200.613 45.2852 200.16C44.5118 199.707 43.6318 199.48 42.6452 199.48C41.6585 199.48 40.7785 199.707 40.0052 200.16C39.2318 200.613 38.6185 201.26 38.1652 202.1C37.7252 202.927 37.5052 203.9 37.5052 205.02ZM61.8069 201.04V212H59.9869V210.38C59.6402 210.94 59.1535 211.38 58.5269 211.7C57.9135 212.007 57.2335 212.16 56.4869 212.16C55.6335 212.16 54.8669 211.987 54.1869 211.64C53.5069 211.28 52.9669 210.747 52.5669 210.04C52.1802 209.333 51.9869 208.473 51.9869 207.46V201.04H53.7869V207.22C53.7869 208.3 54.0602 209.133 54.6069 209.72C55.1535 210.293 55.9002 210.58 56.8469 210.58C57.8202 210.58 58.5869 210.28 59.1469 209.68C59.7069 209.08 59.9869 208.207 59.9869 207.06V201.04H61.8069ZM64.1998 206.48C64.1998 205.36 64.4265 204.38 64.8798 203.54C65.3332 202.687 65.9532 202.027 66.7398 201.56C67.5398 201.093 68.4265 200.86 69.3998 200.86C70.3598 200.86 71.1932 201.067 71.8998 201.48C72.6065 201.893 73.1332 202.413 73.4798 203.04V201.04H75.3198V212H73.4798V209.96C73.1198 210.6 72.5798 211.133 71.8598 211.56C71.1532 211.973 70.3265 212.18 69.3798 212.18C68.4065 212.18 67.5265 211.94 66.7398 211.46C65.9532 210.98 65.3332 210.307 64.8798 209.44C64.4265 208.573 64.1998 207.587 64.1998 206.48ZM73.4798 206.5C73.4798 205.673 73.3132 204.953 72.9798 204.34C72.6465 203.727 72.1932 203.26 71.6198 202.94C71.0598 202.607 70.4398 202.44 69.7598 202.44C69.0798 202.44 68.4598 202.6 67.8998 202.92C67.3398 203.24 66.8932 203.707 66.5598 204.32C66.2265 204.933 66.0598 205.653 66.0598 206.48C66.0598 207.32 66.2265 208.053 66.5598 208.68C66.8932 209.293 67.3398 209.767 67.8998 210.1C68.4598 210.42 69.0798 210.58 69.7598 210.58C70.4398 210.58 71.0598 210.42 71.6198 210.1C72.1932 209.767 72.6465 209.293 72.9798 208.68C73.3132 208.053 73.4798 207.327 73.4798 206.5ZM80.2155 197.2V212H78.3955V197.2H80.2155ZM84.2573 199.26C83.9107 199.26 83.6173 199.14 83.3773 198.9C83.1373 198.66 83.0173 198.367 83.0173 198.02C83.0173 197.673 83.1373 197.38 83.3773 197.14C83.6173 196.9 83.9107 196.78 84.2573 196.78C84.5907 196.78 84.8707 196.9 85.0973 197.14C85.3373 197.38 85.4573 197.673 85.4573 198.02C85.4573 198.367 85.3373 198.66 85.0973 198.9C84.8707 199.14 84.5907 199.26 84.2573 199.26ZM85.1373 201.04V212H83.3173V201.04H85.1373ZM90.4592 202.54V209C90.4592 209.533 90.5726 209.913 90.7992 210.14C91.0259 210.353 91.4192 210.46 91.9792 210.46H93.3192V212H91.6792C90.6659 212 89.9059 211.767 89.3992 211.3C88.8926 210.833 88.6392 210.067 88.6392 209V202.54H87.2192V201.04H88.6392V198.28H90.4592V201.04H93.3192V202.54H90.4592ZM104.964 201.04L98.3644 217.16H96.4844L98.6444 211.88L94.2244 201.04H96.2444L99.6844 209.92L103.084 201.04H104.964ZM111.446 205.02C111.446 203.66 111.753 202.44 112.366 201.36C112.979 200.267 113.813 199.413 114.866 198.8C115.933 198.187 117.113 197.88 118.406 197.88C119.926 197.88 121.253 198.247 122.386 198.98C123.519 199.713 124.346 200.753 124.866 202.1H122.686C122.299 201.26 121.739 200.613 121.006 200.16C120.286 199.707 119.419 199.48 118.406 199.48C117.433 199.48 116.559 199.707 115.786 200.16C115.013 200.613 114.406 201.26 113.966 202.1C113.526 202.927 113.306 203.9 113.306 205.02C113.306 206.127 113.526 207.1 113.966 207.94C114.406 208.767 115.013 209.407 115.786 209.86C116.559 210.313 117.433 210.54 118.406 210.54C119.419 210.54 120.286 210.32 121.006 209.88C121.739 209.427 122.299 208.78 122.686 207.94H124.866C124.346 209.273 123.519 210.307 122.386 211.04C121.253 211.76 119.926 212.12 118.406 212.12C117.113 212.12 115.933 211.82 114.866 211.22C113.813 210.607 112.979 209.76 112.366 208.68C111.753 207.6 111.446 206.38 111.446 205.02ZM132.355 212.18C131.328 212.18 130.395 211.947 129.555 211.48C128.728 211.013 128.075 210.353 127.595 209.5C127.128 208.633 126.895 207.633 126.895 206.5C126.895 205.38 127.135 204.393 127.615 203.54C128.108 202.673 128.775 202.013 129.615 201.56C130.455 201.093 131.395 200.86 132.435 200.86C133.475 200.86 134.415 201.093 135.255 201.56C136.095 202.013 136.755 202.667 137.235 203.52C137.728 204.373 137.975 205.367 137.975 206.5C137.975 207.633 137.722 208.633 137.215 209.5C136.722 210.353 136.048 211.013 135.195 211.48C134.342 211.947 133.395 212.18 132.355 212.18ZM132.355 210.58C133.008 210.58 133.622 210.427 134.195 210.12C134.768 209.813 135.228 209.353 135.575 208.74C135.935 208.127 136.115 207.38 136.115 206.5C136.115 205.62 135.942 204.873 135.595 204.26C135.248 203.647 134.795 203.193 134.235 202.9C133.675 202.593 133.068 202.44 132.415 202.44C131.748 202.44 131.135 202.593 130.575 202.9C130.028 203.193 129.588 203.647 129.255 204.26C128.922 204.873 128.755 205.62 128.755 206.5C128.755 207.393 128.915 208.147 129.235 208.76C129.568 209.373 130.008 209.833 130.555 210.14C131.102 210.433 131.702 210.58 132.355 210.58ZM145.708 200.84C147.041 200.84 148.121 201.247 148.948 202.06C149.775 202.86 150.188 204.02 150.188 205.54V212H148.388V205.8C148.388 204.707 148.115 203.873 147.568 203.3C147.021 202.713 146.275 202.42 145.328 202.42C144.368 202.42 143.601 202.72 143.028 203.32C142.468 203.92 142.188 204.793 142.188 205.94V212H140.368V201.04H142.188V202.6C142.548 202.04 143.035 201.607 143.648 201.3C144.275 200.993 144.961 200.84 145.708 200.84ZM155.381 202.54V209C155.381 209.533 155.494 209.913 155.721 210.14C155.948 210.353 156.341 210.46 156.901 210.46H158.241V212H156.601C155.588 212 154.828 211.767 154.321 211.3C153.814 210.833 153.561 210.067 153.561 209V202.54H152.141V201.04H153.561V198.28H155.381V201.04H158.241V202.54H155.381ZM162.266 202.82C162.586 202.193 163.04 201.707 163.626 201.36C164.226 201.013 164.953 200.84 165.806 200.84V202.72H165.326C163.286 202.72 162.266 203.827 162.266 206.04V212H160.446V201.04H162.266V202.82ZM172.687 212.18C171.661 212.18 170.727 211.947 169.887 211.48C169.061 211.013 168.407 210.353 167.927 209.5C167.461 208.633 167.227 207.633 167.227 206.5C167.227 205.38 167.467 204.393 167.947 203.54C168.441 202.673 169.107 202.013 169.947 201.56C170.787 201.093 171.727 200.86 172.767 200.86C173.807 200.86 174.747 201.093 175.587 201.56C176.427 202.013 177.087 202.667 177.567 203.52C178.061 204.373 178.307 205.367 178.307 206.5C178.307 207.633 178.054 208.633 177.547 209.5C177.054 210.353 176.381 211.013 175.527 211.48C174.674 211.947 173.727 212.18 172.687 212.18ZM172.687 210.58C173.341 210.58 173.954 210.427 174.527 210.12C175.101 209.813 175.561 209.353 175.907 208.74C176.267 208.127 176.447 207.38 176.447 206.5C176.447 205.62 176.274 204.873 175.927 204.26C175.581 203.647 175.127 203.193 174.567 202.9C174.007 202.593 173.401 202.44 172.747 202.44C172.081 202.44 171.467 202.593 170.907 202.9C170.361 203.193 169.921 203.647 169.587 204.26C169.254 204.873 169.087 205.62 169.087 206.5C169.087 207.393 169.247 208.147 169.567 208.76C169.901 209.373 170.341 209.833 170.887 210.14C171.434 210.433 172.034 210.58 172.687 210.58ZM182.52 197.2V212H180.7V197.2H182.52ZM192.774 210.52H197.654V212H190.954V198.06H192.774V210.52ZM198.907 206.48C198.907 205.36 199.134 204.38 199.587 203.54C200.04 202.687 200.66 202.027 201.447 201.56C202.247 201.093 203.134 200.86 204.107 200.86C205.067 200.86 205.9 201.067 206.607 201.48C207.314 201.893 207.84 202.413 208.187 203.04V201.04H210.027V212H208.187V209.96C207.827 210.6 207.287 211.133 206.567 211.56C205.86 211.973 205.034 212.18 204.087 212.18C203.114 212.18 202.234 211.94 201.447 211.46C200.66 210.98 200.04 210.307 199.587 209.44C199.134 208.573 198.907 207.587 198.907 206.48ZM208.187 206.5C208.187 205.673 208.02 204.953 207.687 204.34C207.354 203.727 206.9 203.26 206.327 202.94C205.767 202.607 205.147 202.44 204.467 202.44C203.787 202.44 203.167 202.6 202.607 202.92C202.047 203.24 201.6 203.707 201.267 204.32C200.934 204.933 200.767 205.653 200.767 206.48C200.767 207.32 200.934 208.053 201.267 208.68C201.6 209.293 202.047 209.767 202.607 210.1C203.167 210.42 203.787 210.58 204.467 210.58C205.147 210.58 205.767 210.42 206.327 210.1C206.9 209.767 207.354 209.293 207.687 208.68C208.02 208.053 208.187 207.327 208.187 206.5ZM214.923 203.08C215.296 202.427 215.843 201.893 216.562 201.48C217.283 201.067 218.103 200.86 219.023 200.86C220.009 200.86 220.896 201.093 221.683 201.56C222.469 202.027 223.089 202.687 223.543 203.54C223.996 204.38 224.223 205.36 224.223 206.48C224.223 207.587 223.996 208.573 223.543 209.44C223.089 210.307 222.462 210.98 221.662 211.46C220.876 211.94 219.996 212.18 219.023 212.18C218.076 212.18 217.243 211.973 216.523 211.56C215.816 211.147 215.283 210.62 214.923 209.98V212H213.103V197.2H214.923V203.08ZM222.363 206.48C222.363 205.653 222.196 204.933 221.863 204.32C221.529 203.707 221.076 203.24 220.503 202.92C219.943 202.6 219.323 202.44 218.643 202.44C217.976 202.44 217.356 202.607 216.783 202.94C216.223 203.26 215.769 203.733 215.423 204.36C215.089 204.973 214.923 205.687 214.923 206.5C214.923 207.327 215.089 208.053 215.423 208.68C215.769 209.293 216.223 209.767 216.783 210.1C217.356 210.42 217.976 210.58 218.643 210.58C219.323 210.58 219.943 210.42 220.503 210.1C221.076 209.767 221.529 209.293 221.863 208.68C222.196 208.053 222.363 207.32 222.363 206.48Z" fill="white"/>
</svg>
