<svg width="270" height="240" viewBox="0 0 270 240" fill="none" xmlns="http://www.w3.org/2000/svg">
<rect width="270" height="240" rx="10" fill="#76B728"/>
<g clipPath="url(#clip0_54_1263)">
<path d="M100 60C100 54.1478 98.5437 48.6039 96.2675 43.5938H23.7325C21.4563 48.6039 20 54.1478 20 60C20 65.8522 21.4563 71.3961 23.7325 76.4062H96.2675C98.5437 71.3961 100 65.8522 100 60ZM43.5938 69.375C43.5938 70.6705 42.5455 71.7188 41.25 71.7188C39.9545 71.7188 38.9062 70.6705 38.9062 69.375V50.625C38.9062 49.3295 39.9545 48.2812 41.25 48.2812C42.5455 48.2812 43.5938 49.3295 43.5938 50.625V69.375ZM55.3948 71.7188C53.5134 71.7188 51.7464 70.9862 50.4189 69.6566C49.508 68.7411 49.508 67.2556 50.4234 66.3423C51.3389 65.4314 52.8267 65.4269 53.7422 66.3469C55.088 67.695 57.7384 66.6078 57.7384 64.6875C57.7384 63.3944 56.6856 62.3438 55.3947 62.3438C51.5175 62.3438 48.3634 59.1897 48.3634 55.3125C48.3634 51.4353 51.5175 48.2812 55.3947 48.2812C57.2761 48.2812 59.0431 49.0137 60.3706 50.3434C61.2816 51.2589 61.2816 52.7444 60.3661 53.6577C59.4506 54.5686 57.9628 54.5731 57.0473 53.6531C55.7061 52.3005 53.0511 53.3922 53.0511 55.3125C53.0511 56.6056 54.1039 57.6562 55.3948 57.6562C59.272 57.6562 62.4261 60.8103 62.4261 64.6875C62.4261 68.5647 59.2722 71.7188 55.3948 71.7188ZM74.1448 71.7188C70.2677 71.7188 67.1136 68.5647 67.1136 64.6875V55.3125C67.1136 51.4353 70.2677 48.2812 74.1448 48.2812C78.022 48.2812 81.1761 51.4353 81.1761 55.3125V64.6875C81.1761 68.5647 78.0222 71.7188 74.1448 71.7188Z" fill="white"/>
<path d="M50.7979 81.0938C53.9547 93.9334 57.9868 100 60 100C62.0133 100 66.0454 93.9334 69.2022 81.0938H50.7979Z" fill="white"/>
<path d="M69.2022 38.9062C66.0454 26.0666 62.0133 20 60 20C57.9868 20 53.9547 26.0666 50.7979 38.9062H69.2022Z" fill="white"/>
<path d="M74.1445 52.9688C72.8536 52.9688 71.8008 54.0194 71.8008 55.3125V64.6875C71.8008 65.9806 72.8536 67.0312 74.1445 67.0312C75.4355 67.0312 76.4883 65.9806 76.4883 64.6875V55.3125C76.4883 54.0194 75.4355 52.9688 74.1445 52.9688Z" fill="white"/>
<path d="M45.9459 81.0938H26.2607C32.0578 90.332 41.5112 97.1897 52.599 99.2836C49.4679 94.3609 47.2884 86.8495 45.9459 81.0938Z" fill="white"/>
<path d="M74.0545 38.9066H93.7398C87.9428 29.6684 78.4893 22.8107 67.4014 20.7168C70.5325 25.6395 72.712 33.1509 74.0545 38.9066Z" fill="white"/>
<path d="M74.0543 81.0938C72.712 86.8495 70.5325 94.3609 67.4014 99.2836C78.4893 97.1897 87.9426 90.332 93.7396 81.0938H74.0543Z" fill="white"/>
<path d="M45.9459 38.9066C47.2882 33.1509 49.4678 25.6395 52.5989 20.7168C41.5111 22.8107 32.0576 29.6684 26.2607 38.9066H45.9459Z" fill="white"/>
</g>
<path d="M27.942 125.476V152H22.622V125.476H27.942ZM42.3562 152.266C40.5068 152.266 38.8348 151.949 37.3402 151.316C35.8708 150.683 34.7055 149.771 33.8442 148.58C32.9828 147.389 32.5395 145.983 32.5142 144.362H38.2142C38.2902 145.451 38.6702 146.313 39.3542 146.946C40.0635 147.579 41.0262 147.896 42.2422 147.896C43.4835 147.896 44.4588 147.605 45.1682 147.022C45.8775 146.414 46.2322 145.629 46.2322 144.666C46.2322 143.881 45.9915 143.235 45.5102 142.728C45.0288 142.221 44.4208 141.829 43.6862 141.55C42.9768 141.246 41.9888 140.917 40.7222 140.562C38.9995 140.055 37.5935 139.561 36.5042 139.08C35.4402 138.573 34.5155 137.826 33.7302 136.838C32.9702 135.825 32.5902 134.482 32.5902 132.81C32.5902 131.239 32.9828 129.871 33.7682 128.706C34.5535 127.541 35.6555 126.654 37.0742 126.046C38.4928 125.413 40.1142 125.096 41.9382 125.096C44.6742 125.096 46.8908 125.767 48.5882 127.11C50.3108 128.427 51.2608 130.277 51.4382 132.658H45.5862C45.5355 131.746 45.1428 130.999 44.4082 130.416C43.6988 129.808 42.7488 129.504 41.5582 129.504C40.5195 129.504 39.6835 129.77 39.0502 130.302C38.4422 130.834 38.1382 131.607 38.1382 132.62C38.1382 133.329 38.3662 133.925 38.8222 134.406C39.3035 134.862 39.8862 135.242 40.5702 135.546C41.2795 135.825 42.2675 136.154 43.5342 136.534C45.2568 137.041 46.6628 137.547 47.7522 138.054C48.8415 138.561 49.7788 139.321 50.5642 140.334C51.3495 141.347 51.7422 142.677 51.7422 144.324C51.7422 145.743 51.3748 147.06 50.6402 148.276C49.9055 149.492 48.8288 150.467 47.4102 151.202C45.9915 151.911 44.3068 152.266 42.3562 152.266ZM68.6664 152.266C66.1838 152.266 63.9038 151.683 61.8264 150.518C59.7491 149.353 58.1024 147.744 56.8864 145.692C55.6704 143.615 55.0624 141.271 55.0624 138.662C55.0624 136.078 55.6704 133.76 56.8864 131.708C58.1024 129.631 59.7491 128.009 61.8264 126.844C63.9038 125.679 66.1838 125.096 68.6664 125.096C71.1744 125.096 73.4544 125.679 75.5064 126.844C77.5838 128.009 79.2178 129.631 80.4084 131.708C81.6244 133.76 82.2324 136.078 82.2324 138.662C82.2324 141.271 81.6244 143.615 80.4084 145.692C79.2178 147.744 77.5838 149.353 75.5064 150.518C73.4291 151.683 71.1491 152.266 68.6664 152.266ZM68.6664 147.516C70.2624 147.516 71.6684 147.161 72.8844 146.452C74.1004 145.717 75.0504 144.679 75.7344 143.336C76.4184 141.993 76.7604 140.435 76.7604 138.662C76.7604 136.889 76.4184 135.343 75.7344 134.026C75.0504 132.683 74.1004 131.657 72.8844 130.948C71.6684 130.239 70.2624 129.884 68.6664 129.884C67.0704 129.884 65.6518 130.239 64.4104 130.948C63.1944 131.657 62.2444 132.683 61.5604 134.026C60.8764 135.343 60.5344 136.889 60.5344 138.662C60.5344 140.435 60.8764 141.993 61.5604 143.336C62.2444 144.679 63.1944 145.717 64.4104 146.452C65.6518 147.161 67.0704 147.516 68.6664 147.516ZM23.58 178.12C23.7133 178.88 24.02 179.467 24.5 179.88C24.9933 180.293 25.6533 180.5 26.48 180.5C27.5867 180.5 28.4 180.067 28.92 179.2C29.4533 178.333 29.7067 176.873 29.68 174.82C29.4 175.42 28.9333 175.893 28.28 176.24C27.6267 176.573 26.9 176.74 26.1 176.74C25.2067 176.74 24.4067 176.56 23.7 176.2C23.0067 175.827 22.46 175.287 22.06 174.58C21.66 173.873 21.46 173.02 21.46 172.02C21.46 170.593 21.8733 169.447 22.7 168.58C23.5267 167.7 24.7 167.26 26.22 167.26C28.0867 167.26 29.3933 167.867 30.14 169.08C30.9 170.293 31.28 172.1 31.28 174.5C31.28 176.18 31.1267 177.567 30.82 178.66C30.5267 179.753 30.02 180.587 29.3 181.16C28.5933 181.733 27.62 182.02 26.38 182.02C25.02 182.02 23.96 181.653 23.2 180.92C22.44 180.187 22.0067 179.253 21.9 178.12H23.58ZM26.4 175.2C27.2933 175.2 28.0267 174.927 28.6 174.38C29.1733 173.82 29.46 173.067 29.46 172.12C29.46 171.12 29.18 170.313 28.62 169.7C28.06 169.087 27.2733 168.78 26.26 168.78C25.3267 168.78 24.58 169.073 24.02 169.66C23.4733 170.247 23.2 171.02 23.2 171.98C23.2 172.953 23.4733 173.733 24.02 174.32C24.5667 174.907 25.36 175.2 26.4 175.2ZM33.8377 174.62C33.8377 172.327 34.211 170.54 34.9577 169.26C35.7043 167.967 37.011 167.32 38.8777 167.32C40.731 167.32 42.031 167.967 42.7777 169.26C43.5243 170.54 43.8977 172.327 43.8977 174.62C43.8977 176.953 43.5243 178.767 42.7777 180.06C42.031 181.353 40.731 182 38.8777 182C37.011 182 35.7043 181.353 34.9577 180.06C34.211 178.767 33.8377 176.953 33.8377 174.62ZM42.0977 174.62C42.0977 173.46 42.0177 172.48 41.8577 171.68C41.711 170.867 41.3977 170.213 40.9177 169.72C40.451 169.227 39.771 168.98 38.8777 168.98C37.971 168.98 37.2777 169.227 36.7977 169.72C36.331 170.213 36.0177 170.867 35.8577 171.68C35.711 172.48 35.6377 173.46 35.6377 174.62C35.6377 175.82 35.711 176.827 35.8577 177.64C36.0177 178.453 36.331 179.107 36.7977 179.6C37.2777 180.093 37.971 180.34 38.8777 180.34C39.771 180.34 40.451 180.093 40.9177 179.6C41.3977 179.107 41.711 178.453 41.8577 177.64C42.0177 176.827 42.0977 175.82 42.0977 174.62ZM46.3963 174.62C46.3963 172.327 46.7696 170.54 47.5163 169.26C48.2629 167.967 49.5696 167.32 51.4363 167.32C53.2896 167.32 54.5896 167.967 55.3363 169.26C56.0829 170.54 56.4562 172.327 56.4562 174.62C56.4562 176.953 56.0829 178.767 55.3363 180.06C54.5896 181.353 53.2896 182 51.4363 182C49.5696 182 48.2629 181.353 47.5163 180.06C46.7696 178.767 46.3963 176.953 46.3963 174.62ZM54.6563 174.62C54.6563 173.46 54.5763 172.48 54.4163 171.68C54.2696 170.867 53.9563 170.213 53.4763 169.72C53.0096 169.227 52.3296 168.98 51.4363 168.98C50.5296 168.98 49.8363 169.227 49.3563 169.72C48.8896 170.213 48.5763 170.867 48.4163 171.68C48.2696 172.48 48.1963 173.46 48.1963 174.62C48.1963 175.82 48.2696 176.827 48.4163 177.64C48.5763 178.453 48.8896 179.107 49.3563 179.6C49.8363 180.093 50.5296 180.34 51.4363 180.34C52.3296 180.34 53.0096 180.093 53.4763 179.6C53.9563 179.107 54.2696 178.453 54.4163 177.64C54.5763 176.827 54.6563 175.82 54.6563 174.62ZM58.4748 169.2V167.54H62.2348V182H60.3948V169.2H58.4748ZM73.2611 173.9V175.44H65.2811V173.9H73.2611ZM76.1567 180.54C77.8501 179.18 79.1767 178.067 80.1367 177.2C81.0967 176.32 81.9034 175.407 82.5567 174.46C83.2234 173.5 83.5567 172.56 83.5567 171.64C83.5567 170.773 83.3434 170.093 82.9167 169.6C82.5034 169.093 81.8301 168.84 80.8967 168.84C79.9901 168.84 79.2834 169.127 78.7767 169.7C78.2834 170.26 78.0167 171.013 77.9767 171.96H76.2167C76.2701 170.467 76.7234 169.313 77.5767 168.5C78.4301 167.687 79.5301 167.28 80.8767 167.28C82.2501 167.28 83.3367 167.66 84.1367 168.42C84.9501 169.18 85.3567 170.227 85.3567 171.56C85.3567 172.667 85.0234 173.747 84.3567 174.8C83.7034 175.84 82.9567 176.76 82.1167 177.56C81.2767 178.347 80.2034 179.267 78.8967 180.32H85.7767V181.84H76.1567V180.54ZM87.8806 174.62C87.8806 172.327 88.254 170.54 89.0006 169.26C89.7473 167.967 91.054 167.32 92.9206 167.32C94.774 167.32 96.074 167.967 96.8206 169.26C97.5673 170.54 97.9406 172.327 97.9406 174.62C97.9406 176.953 97.5673 178.767 96.8206 180.06C96.074 181.353 94.774 182 92.9206 182C91.054 182 89.7473 181.353 89.0006 180.06C88.254 178.767 87.8806 176.953 87.8806 174.62ZM96.1406 174.62C96.1406 173.46 96.0606 172.48 95.9006 171.68C95.754 170.867 95.4406 170.213 94.9606 169.72C94.494 169.227 93.814 168.98 92.9206 168.98C92.014 168.98 91.3206 169.227 90.8406 169.72C90.374 170.213 90.0606 170.867 89.9006 171.68C89.754 172.48 89.6806 173.46 89.6806 174.62C89.6806 175.82 89.754 176.827 89.9006 177.64C90.0606 178.453 90.374 179.107 90.8406 179.6C91.3206 180.093 92.014 180.34 92.9206 180.34C93.814 180.34 94.494 180.093 94.9606 179.6C95.4406 179.107 95.754 178.453 95.9006 177.64C96.0606 176.827 96.1406 175.82 96.1406 174.62ZM99.9592 169.2V167.54H103.719V182H101.879V169.2H99.9592ZM116.065 169.12H109.045V173.68C109.352 173.253 109.805 172.907 110.405 172.64C111.005 172.36 111.652 172.22 112.345 172.22C113.452 172.22 114.352 172.453 115.045 172.92C115.739 173.373 116.232 173.967 116.525 174.7C116.832 175.42 116.985 176.187 116.985 177C116.985 177.96 116.805 178.82 116.445 179.58C116.085 180.34 115.532 180.94 114.785 181.38C114.052 181.82 113.139 182.04 112.045 182.04C110.645 182.04 109.512 181.68 108.645 180.96C107.779 180.24 107.252 179.28 107.065 178.08H108.845C109.019 178.84 109.385 179.433 109.945 179.86C110.505 180.287 111.212 180.5 112.065 180.5C113.119 180.5 113.912 180.187 114.445 179.56C114.979 178.92 115.245 178.08 115.245 177.04C115.245 176 114.979 175.2 114.445 174.64C113.912 174.067 113.125 173.78 112.085 173.78C111.379 173.78 110.759 173.953 110.225 174.3C109.705 174.633 109.325 175.093 109.085 175.68H107.365V167.52H116.065V169.12ZM124.356 175.02C124.356 173.66 124.663 172.44 125.276 171.36C125.889 170.267 126.723 169.413 127.776 168.8C128.843 168.187 130.023 167.88 131.316 167.88C132.836 167.88 134.163 168.247 135.296 168.98C136.429 169.713 137.256 170.753 137.776 172.1H135.596C135.209 171.26 134.649 170.613 133.916 170.16C133.196 169.707 132.329 169.48 131.316 169.48C130.343 169.48 129.469 169.707 128.696 170.16C127.923 170.613 127.316 171.26 126.876 172.1C126.436 172.927 126.216 173.9 126.216 175.02C126.216 176.127 126.436 177.1 126.876 177.94C127.316 178.767 127.923 179.407 128.696 179.86C129.469 180.313 130.343 180.54 131.316 180.54C132.329 180.54 133.196 180.32 133.916 179.88C134.649 179.427 135.209 178.78 135.596 177.94H137.776C137.256 179.273 136.429 180.307 135.296 181.04C134.163 181.76 132.836 182.12 131.316 182.12C130.023 182.12 128.843 181.82 127.776 181.22C126.723 180.607 125.889 179.76 125.276 178.68C124.663 177.6 124.356 176.38 124.356 175.02ZM150.485 176.1C150.485 176.447 150.465 176.813 150.425 177.2H141.665C141.732 178.28 142.099 179.127 142.765 179.74C143.445 180.34 144.265 180.64 145.225 180.64C146.012 180.64 146.665 180.46 147.185 180.1C147.719 179.727 148.092 179.233 148.305 178.62H150.265C149.972 179.673 149.385 180.533 148.505 181.2C147.625 181.853 146.532 182.18 145.225 182.18C144.185 182.18 143.252 181.947 142.425 181.48C141.612 181.013 140.972 180.353 140.505 179.5C140.039 178.633 139.805 177.633 139.805 176.5C139.805 175.367 140.032 174.373 140.485 173.52C140.939 172.667 141.572 172.013 142.385 171.56C143.212 171.093 144.159 170.86 145.225 170.86C146.265 170.86 147.185 171.087 147.985 171.54C148.785 171.993 149.399 172.62 149.825 173.42C150.265 174.207 150.485 175.1 150.485 176.1ZM148.605 175.72C148.605 175.027 148.452 174.433 148.145 173.94C147.839 173.433 147.419 173.053 146.885 172.8C146.365 172.533 145.785 172.4 145.145 172.4C144.225 172.4 143.439 172.693 142.785 173.28C142.145 173.867 141.779 174.68 141.685 175.72H148.605ZM154.708 172.82C155.028 172.193 155.481 171.707 156.068 171.36C156.668 171.013 157.394 170.84 158.248 170.84V172.72H157.768C155.728 172.72 154.708 173.827 154.708 176.04V182H152.888V171.04H154.708V172.82ZM162.569 172.54V179C162.569 179.533 162.682 179.913 162.909 180.14C163.135 180.353 163.529 180.46 164.089 180.46H165.429V182H163.789C162.775 182 162.015 181.767 161.509 181.3C161.002 180.833 160.749 180.067 160.749 179V172.54H159.329V171.04H160.749V168.28H162.569V171.04H165.429V172.54H162.569ZM168.574 169.26C168.227 169.26 167.934 169.14 167.694 168.9C167.454 168.66 167.334 168.367 167.334 168.02C167.334 167.673 167.454 167.38 167.694 167.14C167.934 166.9 168.227 166.78 168.574 166.78C168.907 166.78 169.187 166.9 169.414 167.14C169.654 167.38 169.774 167.673 169.774 168.02C169.774 168.367 169.654 168.66 169.414 168.9C169.187 169.14 168.907 169.26 168.574 169.26ZM169.454 171.04V182H167.634V171.04H169.454ZM177.016 172.54H174.716V182H172.896V172.54H171.476V171.04H172.896V170.26C172.896 169.033 173.209 168.14 173.836 167.58C174.476 167.007 175.496 166.72 176.896 166.72V168.24C176.096 168.24 175.529 168.4 175.196 168.72C174.876 169.027 174.716 169.54 174.716 170.26V171.04H177.016V172.54ZM180.078 169.26C179.731 169.26 179.438 169.14 179.198 168.9C178.958 168.66 178.838 168.367 178.838 168.02C178.838 167.673 178.958 167.38 179.198 167.14C179.438 166.9 179.731 166.78 180.078 166.78C180.411 166.78 180.691 166.9 180.918 167.14C181.158 167.38 181.278 167.673 181.278 168.02C181.278 168.367 181.158 168.66 180.918 168.9C180.691 169.14 180.411 169.26 180.078 169.26ZM180.958 171.04V182H179.138V171.04H180.958ZM194.06 176.1C194.06 176.447 194.04 176.813 194 177.2H185.24C185.306 178.28 185.673 179.127 186.34 179.74C187.02 180.34 187.84 180.64 188.8 180.64C189.586 180.64 190.24 180.46 190.76 180.1C191.293 179.727 191.666 179.233 191.88 178.62H193.84C193.546 179.673 192.96 180.533 192.08 181.2C191.2 181.853 190.106 182.18 188.8 182.18C187.76 182.18 186.826 181.947 186 181.48C185.186 181.013 184.546 180.353 184.08 179.5C183.613 178.633 183.38 177.633 183.38 176.5C183.38 175.367 183.606 174.373 184.06 173.52C184.513 172.667 185.146 172.013 185.96 171.56C186.786 171.093 187.733 170.86 188.8 170.86C189.84 170.86 190.76 171.087 191.56 171.54C192.36 171.993 192.973 172.62 193.4 173.42C193.84 174.207 194.06 175.1 194.06 176.1ZM192.18 175.72C192.18 175.027 192.026 174.433 191.72 173.94C191.413 173.433 190.993 173.053 190.46 172.8C189.94 172.533 189.36 172.4 188.72 172.4C187.8 172.4 187.013 172.693 186.36 173.28C185.72 173.867 185.353 174.68 185.26 175.72H192.18ZM195.782 176.48C195.782 175.36 196.009 174.38 196.462 173.54C196.915 172.687 197.535 172.027 198.322 171.56C199.122 171.093 200.015 170.86 201.002 170.86C201.855 170.86 202.649 171.06 203.382 171.46C204.115 171.847 204.675 172.36 205.062 173V167.2H206.902V182H205.062V179.94C204.702 180.593 204.169 181.133 203.462 181.56C202.755 181.973 201.929 182.18 200.982 182.18C200.009 182.18 199.122 181.94 198.322 181.46C197.535 180.98 196.915 180.307 196.462 179.44C196.009 178.573 195.782 177.587 195.782 176.48ZM205.062 176.5C205.062 175.673 204.895 174.953 204.562 174.34C204.229 173.727 203.775 173.26 203.202 172.94C202.642 172.607 202.022 172.44 201.342 172.44C200.662 172.44 200.042 172.6 199.482 172.92C198.922 173.24 198.475 173.707 198.142 174.32C197.809 174.933 197.642 175.653 197.642 176.48C197.642 177.32 197.809 178.053 198.142 178.68C198.475 179.293 198.922 179.767 199.482 180.1C200.042 180.42 200.662 180.58 201.342 180.58C202.022 180.58 202.642 180.42 203.202 180.1C203.775 179.767 204.229 179.293 204.562 178.68C204.895 178.053 205.062 177.327 205.062 176.5ZM20.86 205.02C20.86 203.66 21.1667 202.44 21.78 201.36C22.3933 200.267 23.2267 199.413 24.28 198.8C25.3467 198.187 26.5267 197.88 27.82 197.88C29.34 197.88 30.6667 198.247 31.8 198.98C32.9333 199.713 33.76 200.753 34.28 202.1H32.1C31.7133 201.26 31.1533 200.613 30.42 200.16C29.7 199.707 28.8333 199.48 27.82 199.48C26.8467 199.48 25.9733 199.707 25.2 200.16C24.4267 200.613 23.82 201.26 23.38 202.1C22.94 202.927 22.72 203.9 22.72 205.02C22.72 206.127 22.94 207.1 23.38 207.94C23.82 208.767 24.4267 209.407 25.2 209.86C25.9733 210.313 26.8467 210.54 27.82 210.54C28.8333 210.54 29.7 210.32 30.42 209.88C31.1533 209.427 31.7133 208.78 32.1 207.94H34.28C33.76 209.273 32.9333 210.307 31.8 211.04C30.6667 211.76 29.34 212.12 27.82 212.12C26.5267 212.12 25.3467 211.82 24.28 211.22C23.2267 210.607 22.3933 209.76 21.78 208.68C21.1667 207.6 20.86 206.38 20.86 205.02ZM41.7692 212.18C40.7426 212.18 39.8092 211.947 38.9692 211.48C38.1426 211.013 37.4892 210.353 37.0092 209.5C36.5426 208.633 36.3092 207.633 36.3092 206.5C36.3092 205.38 36.5492 204.393 37.0292 203.54C37.5226 202.673 38.1892 202.013 39.0292 201.56C39.8692 201.093 40.8092 200.86 41.8492 200.86C42.8892 200.86 43.8292 201.093 44.6692 201.56C45.5092 202.013 46.1692 202.667 46.6492 203.52C47.1426 204.373 47.3892 205.367 47.3892 206.5C47.3892 207.633 47.1359 208.633 46.6292 209.5C46.1359 210.353 45.4626 211.013 44.6092 211.48C43.7559 211.947 42.8092 212.18 41.7692 212.18ZM41.7692 210.58C42.4226 210.58 43.0359 210.427 43.6092 210.12C44.1826 209.813 44.6426 209.353 44.9892 208.74C45.3492 208.127 45.5292 207.38 45.5292 206.5C45.5292 205.62 45.3559 204.873 45.0092 204.26C44.6626 203.647 44.2092 203.193 43.6492 202.9C43.0892 202.593 42.4826 202.44 41.8292 202.44C41.1626 202.44 40.5492 202.593 39.9892 202.9C39.4426 203.193 39.0026 203.647 38.6692 204.26C38.3359 204.873 38.1692 205.62 38.1692 206.5C38.1692 207.393 38.3292 208.147 38.6492 208.76C38.9826 209.373 39.4226 209.833 39.9692 210.14C40.5159 210.433 41.1159 210.58 41.7692 210.58ZM62.9622 200.84C63.8155 200.84 64.5755 201.02 65.2422 201.38C65.9089 201.727 66.4355 202.253 66.8222 202.96C67.2089 203.667 67.4022 204.527 67.4022 205.54V212H65.6022V205.8C65.6022 204.707 65.3289 203.873 64.7822 203.3C64.2489 202.713 63.5222 202.42 62.6022 202.42C61.6555 202.42 60.9022 202.727 60.3422 203.34C59.7822 203.94 59.5022 204.813 59.5022 205.96V212H57.7022V205.8C57.7022 204.707 57.4289 203.873 56.8822 203.3C56.3489 202.713 55.6222 202.42 54.7022 202.42C53.7555 202.42 53.0022 202.727 52.4422 203.34C51.8822 203.94 51.6022 204.813 51.6022 205.96V212H49.7822V201.04H51.6022V202.62C51.9622 202.047 52.4422 201.607 53.0422 201.3C53.6555 200.993 54.3289 200.84 55.0622 200.84C55.9822 200.84 56.7955 201.047 57.5022 201.46C58.2089 201.873 58.7355 202.48 59.0822 203.28C59.3889 202.507 59.8955 201.907 60.6022 201.48C61.3089 201.053 62.0955 200.84 62.9622 200.84ZM72.2077 203.06C72.5677 202.433 73.101 201.913 73.8077 201.5C74.5277 201.073 75.361 200.86 76.3077 200.86C77.281 200.86 78.161 201.093 78.9477 201.56C79.7477 202.027 80.3743 202.687 80.8277 203.54C81.281 204.38 81.5077 205.36 81.5077 206.48C81.5077 207.587 81.281 208.573 80.8277 209.44C80.3743 210.307 79.7477 210.98 78.9477 211.46C78.161 211.94 77.281 212.18 76.3077 212.18C75.3743 212.18 74.5477 211.973 73.8277 211.56C73.121 211.133 72.581 210.607 72.2077 209.98V217.2H70.3877V201.04H72.2077V203.06ZM79.6477 206.48C79.6477 205.653 79.481 204.933 79.1477 204.32C78.8143 203.707 78.361 203.24 77.7877 202.92C77.2277 202.6 76.6077 202.44 75.9277 202.44C75.261 202.44 74.641 202.607 74.0677 202.94C73.5077 203.26 73.0543 203.733 72.7077 204.36C72.3743 204.973 72.2077 205.687 72.2077 206.5C72.2077 207.327 72.3743 208.053 72.7077 208.68C73.0543 209.293 73.5077 209.767 74.0677 210.1C74.641 210.42 75.261 210.58 75.9277 210.58C76.6077 210.58 77.2277 210.42 77.7877 210.1C78.361 209.767 78.8143 209.293 79.1477 208.68C79.481 208.053 79.6477 207.32 79.6477 206.48ZM83.2233 206.48C83.2233 205.36 83.4499 204.38 83.9033 203.54C84.3566 202.687 84.9766 202.027 85.7633 201.56C86.5633 201.093 87.4499 200.86 88.4233 200.86C89.3833 200.86 90.2166 201.067 90.9233 201.48C91.6299 201.893 92.1566 202.413 92.5033 203.04V201.04H94.3433V212H92.5033V209.96C92.1433 210.6 91.6033 211.133 90.8833 211.56C90.1766 211.973 89.3499 212.18 88.4033 212.18C87.4299 212.18 86.5499 211.94 85.7633 211.46C84.9766 210.98 84.3566 210.307 83.9033 209.44C83.4499 208.573 83.2233 207.587 83.2233 206.48ZM92.5033 206.5C92.5033 205.673 92.3366 204.953 92.0033 204.34C91.6699 203.727 91.2166 203.26 90.6433 202.94C90.0833 202.607 89.4633 202.44 88.7833 202.44C88.1033 202.44 87.4833 202.6 86.9233 202.92C86.3633 203.24 85.9166 203.707 85.5833 204.32C85.2499 204.933 85.0833 205.653 85.0833 206.48C85.0833 207.32 85.2499 208.053 85.5833 208.68C85.9166 209.293 86.3633 209.767 86.9233 210.1C87.4833 210.42 88.1033 210.58 88.7833 210.58C89.4633 210.58 90.0833 210.42 90.6433 210.1C91.2166 209.767 91.6699 209.293 92.0033 208.68C92.3366 208.053 92.5033 207.327 92.5033 206.5ZM102.759 200.84C104.092 200.84 105.172 201.247 105.999 202.06C106.826 202.86 107.239 204.02 107.239 205.54V212H105.439V205.8C105.439 204.707 105.166 203.873 104.619 203.3C104.072 202.713 103.326 202.42 102.379 202.42C101.419 202.42 100.652 202.72 100.079 203.32C99.5189 203.92 99.2389 204.793 99.2389 205.94V212H97.4189V201.04H99.2389V202.6C99.5989 202.04 100.086 201.607 100.699 201.3C101.326 200.993 102.012 200.84 102.759 200.84ZM119.652 201.04L113.052 217.16H111.172L113.332 211.88L108.912 201.04H110.932L114.372 209.92L117.772 201.04H119.652Z" fill="white"/>
<defs>
<clipPath id="clip0_54_1263">
<rect width="80" height="80" fill="white" transform="translate(20 20)"/>
</clipPath>
</defs>
</svg>
