<svg width="250" height="250" viewBox="0 0 250 250" fill="none" xmlns="http://www.w3.org/2000/svg">
<g filter="url(#filter0_d_56_1683)">
<path d="M14 115C14 59.2192 59.2192 14 115 14C170.781 14 216 59.2192 216 115C216 170.781 170.781 216 115 216C59.2192 216 14 170.781 14 115Z" fill="white"/>
<path d="M41 154.326C41.1261 153.585 41.2261 152.838 41.3829 152.104C41.919 149.592 43.6075 148.193 46.1689 148.106C46.8172 148.078 47.4666 148.12 48.1059 148.231C50.0869 148.591 51.2223 149.821 51.6829 151.734C51.8542 152.526 51.956 153.331 51.987 154.14C52.0046 154.423 51.9475 154.541 51.6264 154.533C50.7516 154.51 49.8764 154.51 49.0006 154.533C48.6793 154.542 48.6298 154.418 48.6328 154.14C48.6551 153.572 48.5959 153.004 48.4571 152.453C48.169 151.43 47.5523 150.953 46.5679 150.986C45.5942 151.019 45.0061 151.553 44.8039 152.596C44.6239 153.667 44.5339 154.752 44.5348 155.838C44.4444 158.203 44.4991 160.571 44.6985 162.929C44.7333 163.316 44.7997 163.699 44.897 164.075C44.9789 164.46 45.1948 164.804 45.5063 165.046C45.8178 165.287 46.2047 165.41 46.5983 165.393C46.9992 165.429 47.3999 165.321 47.7279 165.088C48.0558 164.855 48.2894 164.511 48.3861 164.121C48.6261 163.227 48.7256 162.302 48.6812 161.378C48.6746 161.069 48.7485 160.955 49.0797 160.964C49.9545 160.987 50.8304 160.976 51.7057 160.968C51.9321 160.966 52.0689 161.002 52.0749 161.277C52.1626 162.704 51.95 164.133 51.4508 165.473C51.1799 166.191 50.7187 166.821 50.1166 167.297C49.5144 167.773 48.7941 168.076 48.0329 168.173C46.0307 168.497 44.0976 168.42 42.5988 166.775C41.6998 165.788 41.3811 164.553 41.1905 163.271C41.2009 162.906 41.136 162.544 41 162.206L41 154.326Z" fill="#383536"/>
<path d="M73.4685 115.451C73.0544 114.392 72.7627 113.289 72.5989 112.164C72.1216 109.659 71.1021 107.35 70.0253 105.064C68.5565 101.944 66.8672 98.9327 65.4828 95.7719C64.1451 92.8898 63.2319 89.8291 62.7713 86.6853C61.9835 80.434 63.4585 74.8221 67.5368 69.9581C70.9186 65.9248 75.1774 63.0874 79.9384 60.954C83.0843 59.5283 86.4142 58.5502 89.8314 58.0479C90.0065 58.0227 90.1843 58.0156 90.3609 58C90.4093 58.1775 90.2906 58.2608 90.2024 58.3381C88.0196 60.2487 87.0893 62.7727 86.6381 65.5424C86.1739 68.3913 85.976 71.2693 85.664 74.1348C85.3219 77.2775 84.8811 80.3988 83.802 83.3958C81.7477 89.1013 77.6761 92.5023 71.847 93.9168C70.6531 94.1364 69.4731 94.4262 68.3132 94.7847C67.644 95.0332 67.6446 95.0385 67.8607 95.7078C68.5134 97.5723 69.3095 99.3836 70.2417 101.125C71.3996 103.425 72.5624 105.72 73.2259 108.229C73.8185 110.426 73.9403 112.724 73.5832 114.971C73.5631 115.098 73.5239 115.222 73.4685 115.451ZM79.4963 65.4994C78.443 65.7194 77.2243 66.5242 76.2622 67.6238C74.2174 69.9608 73.0496 72.7322 72.3395 75.7122C71.4846 79.3001 70.8136 82.9302 69.894 86.5034C69.5362 87.8941 69.1348 89.2735 68.7367 90.7176C69.1609 90.3406 69.5242 89.9001 69.8135 89.4119C70.7167 87.9129 71.4044 86.2943 71.8564 84.6037C72.7919 81.5045 73.3891 78.3174 74.2838 75.2082C75.3132 71.6312 76.4167 68.0845 79.4963 65.4994Z" fill="#65A537"/>
<path d="M169.071 127.523C169.608 126.58 170.07 125.596 170.452 124.58C171.536 122.017 172.389 119.362 173 116.647C173.029 116.504 173.047 116.359 173.067 116.215C173.235 115.029 173.218 114.981 172.153 114.448C171.836 114.29 171.495 114.178 171.163 114.051C170.915 113.969 170.705 113.8 170.571 113.576C170.109 112.759 170.447 112.074 171.402 111.921C171.612 111.895 171.823 111.886 172.033 111.894C173.46 111.897 174.887 111.913 176.314 111.906C176.996 111.904 177.674 112.006 178.324 112.21C178.916 112.393 178.967 112.521 178.825 113.123C178.791 113.388 178.674 113.637 178.492 113.833C178.309 114.029 178.07 114.163 177.807 114.216C177.23 114.407 176.75 114.815 176.468 115.353C175.782 116.452 175.224 117.626 174.804 118.851C172.399 125.114 170.101 131.419 167.503 137.608C166.524 139.94 165.457 142.225 163.878 144.229C163.116 145.264 162.162 146.141 161.067 146.814C159.32 147.817 157.507 147.643 155.923 146.333C155.27 145.733 154.803 144.957 154.577 144.099C154.351 143.241 154.375 142.337 154.647 141.492C154.782 141.061 155.01 140.665 155.315 140.332C155.621 140 155.996 139.738 156.414 139.567C156.832 139.396 157.282 139.319 157.733 139.341C158.184 139.364 158.625 139.486 159.024 139.698C159.763 140.107 160.425 140.642 160.981 141.278C161.361 141.676 161.741 142.076 162.111 142.484C162.296 142.688 162.404 142.756 162.589 142.452C163.201 141.441 163.83 140.44 164.489 139.459C164.857 138.943 165.089 138.342 165.162 137.713C165.235 137.083 165.147 136.445 164.907 135.859C164.226 134.005 163.41 132.209 162.634 130.396C161.247 127.155 160.101 123.817 158.66 120.599C157.929 118.85 157.012 117.186 155.925 115.634C155.644 115.257 155.341 114.898 155.017 114.558C154.902 114.415 154.759 114.296 154.597 114.209C154.436 114.122 154.258 114.068 154.075 114.051C153.893 114.034 153.708 114.054 153.533 114.109C153.358 114.165 153.196 114.255 153.056 114.374C152.904 114.491 152.719 114.557 152.527 114.563C151.037 114.619 149.546 114.678 148.055 114.719C147.771 114.726 147.636 114.757 147.629 115.103C147.559 118.718 147.447 122.332 147.393 125.947C147.323 127.519 147.441 129.094 147.742 130.639C148.143 132.423 148.986 133.152 150.812 133.337C151.652 133.416 152.498 133.413 153.337 133.329C153.619 133.303 153.717 133.388 153.686 133.666C153.661 133.891 153.664 134.119 153.655 134.346C153.652 134.688 153.542 135.02 153.341 135.296C153.139 135.572 152.856 135.778 152.532 135.885C150.429 136.85 148.101 137.217 145.804 136.947C143.259 136.614 141.738 135.126 141.041 132.718C140.576 130.877 140.367 128.982 140.42 127.084C140.395 123.484 140.64 119.889 140.635 116.289C140.635 115.884 140.613 115.478 140.632 115.074C140.645 114.792 140.541 114.721 140.271 114.72C139.266 114.716 138.261 114.675 137.255 114.677C136.933 114.678 136.84 114.579 136.854 114.264C136.879 113.697 136.882 113.128 136.853 112.562C136.834 112.196 136.92 112.057 137.321 112.065C138.261 112.084 139.203 112.022 140.142 112.042C140.544 112.05 140.62 111.902 140.625 111.544C140.654 109.388 140.715 107.232 140.736 105.076C140.74 104.684 140.858 104.605 141.225 104.604C143.123 104.597 145.02 104.572 146.917 104.528C147.305 104.518 147.403 104.634 147.409 105.006C147.445 107.129 147.516 109.252 147.55 111.376C147.556 111.756 147.64 111.902 148.05 111.933C149.669 112.058 151.291 112.075 152.912 112.063C156.041 112.039 159.171 111.975 162.301 111.929C163.191 111.872 164.085 111.896 164.971 112C165.099 112.015 165.226 112.041 165.35 112.078C165.693 112.197 166.117 112.257 166.231 112.656C166.341 113.043 165.877 113.795 165.469 113.968C165.022 114.156 164.562 114.312 164.105 114.474C163.805 114.581 163.697 114.729 163.787 115.083C164.239 116.736 164.796 118.36 165.455 119.942C166.309 122.161 167.287 124.33 168.384 126.44C168.572 126.825 168.803 127.188 169.071 127.523Z" fill="#035E38"/>
<path d="M82.3012 136.399C81.3235 135.79 80.4295 135.057 79.6417 134.217C78.9566 133.445 78.3669 132.612 78.257 131.546C78.1867 130.913 78.2973 130.273 78.5759 129.7C78.8545 129.128 79.2898 128.646 79.8312 128.311C80.5428 127.806 81.3106 127.379 82.0612 126.931C82.3769 126.743 82.4524 126.611 82.0866 126.373C81.3806 125.915 80.6991 125.418 80.0089 124.935C77.7147 123.331 76.9864 121.04 77.2602 118.386C77.62 114.899 79.851 112.982 82.9787 111.931C85.1158 111.231 87.3946 111.081 89.6051 111.493C91.4644 111.78 93.3438 111.916 95.225 111.899C96.7818 111.877 98.338 111.971 99.8809 112.18C100.183 112.228 100.248 112.347 100.239 112.618C100.222 113.104 100.212 113.592 100.243 114.077C100.265 114.432 100.165 114.541 99.794 114.552C98.4701 114.592 97.1475 114.677 95.7897 114.746C96.1908 115.926 96.596 117.065 96.8944 118.241C97.5876 120.973 96.8151 123.164 94.6243 124.926C92.9728 126.287 90.9091 127.049 88.7693 127.087C87.8942 127.109 87.018 127.088 86.1423 127.088C85.9801 127.088 85.8178 127.088 85.6559 127.096C83.9771 127.176 83.1561 128.338 83.6122 129.967C83.6713 130.178 83.8297 130.183 83.9729 130.232C85.1637 130.607 86.3982 130.826 87.6453 130.884C89.5215 131.014 91.4071 130.95 93.279 131.172C96.1408 131.51 98.4125 132.711 99.5871 135.495C101.028 138.91 99.8911 142.656 96.7506 144.895C95.04 146.05 93.0855 146.796 91.0396 147.072C87.7434 147.684 84.351 147.536 81.1205 146.64C79.8311 146.302 78.6343 145.678 77.6184 144.815C76.8469 144.144 76.3166 143.239 76.109 142.239C75.9014 141.238 76.028 140.197 76.4692 139.275C76.9149 138.361 77.6917 137.652 78.6416 137.291C79.821 136.847 81.0498 136.547 82.3012 136.399ZM87.6001 136.815C86.8396 136.815 86.0789 136.82 85.3184 136.814C85.0094 136.805 84.7031 136.874 84.4281 137.015C84.1531 137.156 83.9186 137.365 83.7464 137.622C83.3086 138.265 83.0148 138.996 82.8851 139.764C82.3964 142.117 83.2628 143.814 85.4565 144.804C86.33 145.197 87.2739 145.409 88.2314 145.428C91.3507 145.506 94.0581 143.774 93.8382 139.969C93.7443 138.345 92.9342 137.405 91.3307 137.104C90.0961 136.872 88.846 136.928 87.6001 136.815ZM90.3549 119.461C90.3687 118.626 90.2948 117.792 90.1346 116.973C89.9868 115.928 89.6037 114.93 89.0143 114.054C88.2848 113.069 87.3443 112.896 86.288 113.512C85.4629 114.016 84.8611 114.816 84.6052 115.749C84.0076 117.677 83.9241 119.728 84.3629 121.699C84.5206 122.644 84.8828 123.543 85.4241 124.334C86.246 125.466 87.3739 125.682 88.572 124.957C89.1299 124.585 89.5447 124.035 89.7481 123.397C90.2001 122.136 90.4061 120.799 90.3549 119.461Z" fill="#035E38"/>
<path d="M68.2827 136.425C66.0577 136.434 64.0636 136.522 62.0698 136.428C61.6005 136.406 61.1325 136.348 60.6633 136.338C60.3872 136.332 60.3562 136.208 60.3649 135.976C60.4083 134.826 60.8979 134.246 62.0577 134.008C62.7394 133.868 63.4218 133.732 64.1062 133.606C64.3942 133.553 64.5103 133.432 64.4635 133.117C64.0802 130.288 63.1569 127.56 61.7437 125.08C61.6838 124.968 61.5913 124.877 61.4785 124.819C61.3658 124.761 61.238 124.738 61.1122 124.754C58.0477 124.761 54.9833 124.757 51.9188 124.741C51.7873 124.72 51.6526 124.75 51.5421 124.824C51.4316 124.899 51.3537 125.013 51.3242 125.143C50.5443 127.079 49.9709 129.093 49.6134 131.149C49.5808 131.374 49.5592 131.6 49.5425 131.826C49.4469 133.119 49.2554 132.873 50.5205 133.52C51.0836 133.767 51.6709 133.955 52.273 134.081C53.3803 134.382 53.6466 134.689 53.815 135.793C53.8755 136.19 53.7492 136.283 53.3699 136.282C51.9919 136.28 50.6138 136.31 49.2358 136.328C46.8364 136.358 44.4367 136.378 42.0377 136.428C41.6377 136.437 41.5224 136.313 41.5839 135.945C41.6318 135.658 41.6421 135.363 41.7091 135.081C41.7411 134.836 41.8594 134.611 42.0427 134.445C42.2261 134.28 42.4624 134.185 42.7093 134.179C44.4509 134.094 45.5027 133.068 46.2701 131.624C47.1939 129.886 47.7481 128.005 48.388 126.159C50.7706 119.287 52.9828 112.356 55.5014 105.53C55.9882 104.211 56.5122 102.906 57.0734 101.616C57.123 101.45 57.2279 101.306 57.3706 101.208C57.5134 101.11 57.6854 101.064 57.858 101.077C58.9921 101.056 60.125 100.977 61.2584 100.92C61.4547 100.91 61.6067 100.895 61.6856 101.167C63.0369 105.828 64.6862 110.39 66.306 114.96C67.9046 119.47 69.2849 124.055 70.9765 128.532C71.4137 129.75 71.9351 130.936 72.537 132.081C72.8156 132.661 73.2358 133.161 73.7588 133.535C74.2818 133.909 74.8907 134.145 75.5291 134.222C75.7105 134.26 75.8822 134.335 76.034 134.441C76.1857 134.548 76.3143 134.684 76.412 134.842C76.5097 134.999 76.5744 135.175 76.6024 135.358C76.6304 135.542 76.6209 135.729 76.5747 135.908C76.5263 136.081 76.3742 136.103 76.24 136.147C75.6635 136.312 75.0693 136.407 74.4701 136.43C72.3304 136.59 70.1912 136.398 68.2827 136.425ZM56.515 110.043C56.4818 110.106 56.4518 110.17 56.4252 110.235C55.1137 114.091 53.801 117.946 52.487 121.801C52.3737 122.131 52.4829 122.164 52.7743 122.166C55.2383 122.185 57.7022 122.218 60.1661 122.247C60.7278 122.253 60.7396 122.25 60.6065 121.685C59.7281 117.988 58.5223 114.375 57.0036 110.891C56.8924 110.582 56.7269 110.295 56.515 110.043Z" fill="#035E38"/>
<path d="M116.526 93.6303C115.67 93.6303 114.832 93.6262 113.994 93.631C111.416 93.6459 108.88 93.8908 106.5 94.9927C104.765 95.7962 103.272 96.9685 101.755 98.1052C99.6661 99.6702 97.5643 101.216 95.187 102.332C93.1389 103.371 90.8549 103.857 88.5613 103.741C87.1041 103.627 85.6815 103.24 84.3679 102.599C82.9219 101.909 81.4821 101.203 80.0696 100.448C79.768 100.25 79.404 100.169 79.0469 100.222C78.6898 100.275 78.3647 100.457 78.1334 100.734C77.2686 101.546 76.5818 102.529 76.1162 103.62C75.6259 104.764 75.16 105.92 74.6791 107.069C74.6134 107.225 74.5755 107.41 74.333 107.507C74.3091 106.114 74.5066 104.726 74.9181 103.395C75.3475 102.205 75.9385 101.08 76.6743 100.052C77.8851 98.2497 79.0341 96.4109 80.1483 94.5466C82.8324 90.0553 86.8157 87.5028 91.991 86.8023C96.1343 86.2415 100.165 86.8665 104.134 88.0231C108.364 89.27 112.408 91.0771 116.158 93.3964C116.282 93.4722 116.403 93.552 116.526 93.6303ZM82.165 96.9323C82.5601 96.7918 82.9376 96.606 83.29 96.3786C84.865 95.5476 86.4368 94.7104 88.0052 93.867C90.9748 92.2659 94.2178 91.8069 97.5163 91.5801C98.8463 91.4887 100.177 91.4135 101.508 91.3309C100.97 91.001 100.367 90.7893 99.7409 90.71C97.4127 90.5064 95.068 90.6033 92.7645 90.9981C89.693 91.5456 86.8228 92.5823 84.3573 94.5569C83.4831 95.2003 82.7337 95.9978 82.1459 96.9103L82.0811 96.9623L82.1108 96.9984L82.165 96.9323Z" fill="#4A904C"/>
<path d="M111.618 115.255C112.128 114.958 112.592 114.591 112.999 114.164C113.547 113.59 114.128 113.047 114.738 112.538C115.835 111.676 117.228 111.282 118.615 111.441C119.3 111.487 119.96 111.718 120.524 112.11C121.088 112.502 121.535 113.039 121.818 113.665C122.245 114.507 122.47 115.438 122.476 116.382C122.482 117.326 122.268 118.259 121.852 119.107C121.646 119.541 121.356 119.93 120.999 120.252C120.643 120.574 120.226 120.823 119.773 120.983C119.321 121.144 118.841 121.215 118.361 121.19C117.881 121.165 117.411 121.046 116.977 120.84C116.617 120.669 116.301 120.417 116.053 120.105C115.805 119.793 115.632 119.428 115.546 119.039C115.308 118.01 115.249 116.948 115.371 115.899C115.4 115.462 115.24 115.463 114.913 115.536C112.753 116.019 111.797 117.127 111.639 119.334C111.464 121.794 111.63 124.261 111.457 126.72C111.35 128.062 111.314 129.408 111.349 130.753C111.434 133.128 112.697 134.433 115.069 134.547C115.408 134.563 115.488 134.681 115.461 134.972C115.457 135.053 115.461 135.134 115.471 135.214C115.535 136.04 115.532 136.03 114.692 136.265C114.318 136.368 113.932 136.419 113.544 136.417C110.707 136.419 107.87 136.425 105.034 136.487C104.061 136.525 103.087 136.44 102.135 136.234C101.706 136.133 101.421 135.985 101.587 135.455C101.667 135.199 101.574 134.87 101.696 134.65C101.841 134.39 102.197 134.567 102.457 134.507C103.764 134.202 104.538 133.34 104.741 131.935C104.855 131.099 104.882 130.254 104.824 129.412C104.63 126.141 104.662 122.869 104.714 119.595C104.768 118.46 104.657 117.324 104.385 116.221C104.105 115.219 103.54 114.548 102.446 114.476C101.387 114.406 101.244 113.709 101.27 112.723C101.278 112.453 101.526 112.455 101.697 112.408C102.703 112.156 103.731 112 104.766 111.942C106.833 111.744 108.911 111.698 110.984 111.804C111.337 111.829 111.492 111.906 111.496 112.3C111.508 113.265 111.572 114.23 111.618 115.255Z" fill="#035E38"/>
<path d="M133.946 121.873C133.923 124.088 133.803 126.777 133.931 129.467C133.961 130.601 134.091 131.73 134.32 132.841C134.372 133.146 134.524 133.426 134.752 133.636C134.981 133.846 135.272 133.974 135.581 134C136.731 134.172 137.081 134.559 137.158 135.691C137.175 135.946 137.102 136.012 136.856 136.053C135.391 136.322 133.904 136.459 132.414 136.461C129.773 136.422 127.13 136.52 124.491 136.33C123.851 136.283 123.839 136.274 123.956 135.636C124.126 134.715 124.35 134.495 125.261 134.353C126.389 134.179 126.808 133.764 127.018 132.557C127.24 130.934 127.293 129.293 127.177 127.659C127.1 125.406 127.127 123.155 127.171 120.902C127.259 119.478 127.181 118.049 126.938 116.643C126.683 115.461 126.035 114.7 124.775 114.554C123.672 114.427 123.508 113.822 123.451 112.806C123.432 112.468 123.69 112.458 123.895 112.407C125.001 112.156 126.126 112 127.259 111.938C129.116 111.762 130.983 111.725 132.845 111.829C134.177 111.924 133.959 111.756 134.011 112.99C134.129 115.792 134.044 118.596 133.946 121.873Z" fill="#035E38"/>
<path d="M94.5372 161.083C94.9913 161.083 95.4458 161.095 95.8992 161.078C96.176 161.067 96.2573 161.166 96.2568 161.44C96.2176 162.201 96.2453 162.964 96.3398 163.72C96.5569 164.96 97.0985 165.437 98.2463 165.391C99.5146 165.34 100.251 164.672 100.357 163.492C100.419 163.024 100.364 162.548 100.197 162.107C100.029 161.666 99.7543 161.273 99.3969 160.965C98.3897 160.067 97.2512 159.345 96.1902 158.519C95.7172 158.151 95.26 157.763 94.7914 157.389C93.1566 156.086 92.7715 154.328 93.0099 152.372C93.3803 149.332 95.7262 147.791 98.9506 148.148C101.782 148.462 103.343 150.252 103.469 153.177C103.524 154.479 103.524 154.479 102.226 154.479C101.674 154.479 101.123 154.465 100.572 154.485C100.278 154.495 100.174 154.407 100.183 154.103C100.225 153.487 100.156 152.868 99.9772 152.277C99.8826 152.023 99.7366 151.79 99.5481 151.594C99.3597 151.398 99.133 151.243 98.882 151.139C98.6311 151.035 98.3613 150.983 98.0896 150.988C97.8178 150.992 97.5499 151.053 97.3026 151.165C97.0761 151.274 96.8741 151.428 96.7088 151.618C96.5434 151.807 96.4182 152.028 96.3405 152.267C96.2629 152.506 96.2344 152.758 96.257 153.009C96.2795 153.259 96.3525 153.502 96.4716 153.724C96.8325 154.362 97.3395 154.906 97.9508 155.31C98.8139 155.941 99.6971 156.544 100.565 157.169C100.933 157.434 101.296 157.708 101.639 158.004C102.687 158.899 103.42 160.108 103.728 161.451C104.037 162.795 103.905 164.202 103.352 165.464C103.093 166.089 102.693 166.645 102.184 167.09C101.674 167.534 101.069 167.854 100.415 168.026C99.0835 168.412 97.6731 168.434 96.3303 168.09C94.2218 167.567 93.2189 166.082 92.8697 164.046C92.7469 163.179 92.7094 162.302 92.7577 161.428C92.7648 161.149 92.8578 161.067 93.1267 161.077C93.5962 161.096 94.067 161.083 94.5372 161.083Z" fill="#383536"/>
<path d="M78.0508 166.841V168.273C78.0508 169.619 78.0423 170.964 78.0573 172.31C78.0607 172.617 77.9928 172.733 77.6595 172.723C76.8331 172.698 76.0053 172.703 75.1785 172.721C74.8911 172.727 74.7886 172.662 74.7891 172.349C74.7984 166.14 74.7985 159.93 74.7891 153.721C74.7886 153.402 74.9034 153.347 75.1849 153.353C75.9468 153.37 76.7096 153.372 77.4713 153.352C77.7765 153.344 77.9154 153.411 77.8822 153.747C77.8596 154.054 77.8699 154.362 77.9128 154.667C78.1192 154.235 78.4273 153.859 78.8107 153.571C79.1942 153.283 79.6416 153.093 80.1147 153.016C80.8671 152.84 81.6582 152.956 82.3283 153.34C82.9984 153.725 83.4976 154.35 83.725 155.088C84.154 156.467 84.3615 157.906 84.3399 159.35C84.4024 161.443 84.4013 163.536 83.9081 165.587C83.4052 167.679 81.917 168.607 79.8895 168.144C79.1384 167.948 78.4847 167.485 78.0508 166.841ZM77.9523 160.301C77.9783 161.612 77.9263 162.931 78.2363 164.219C78.44 165.065 78.9544 165.456 79.7089 165.413C80.3786 165.374 80.7777 164.961 80.9038 164.11C81.1338 162.178 81.1785 160.228 81.0371 158.287C81.0339 157.752 80.9594 157.219 80.8155 156.704C80.787 156.551 80.7285 156.406 80.6433 156.276C80.5582 156.146 80.4481 156.034 80.3194 155.947C80.1908 155.86 80.0461 155.799 79.8938 155.768C79.7416 155.738 79.5847 155.737 79.4323 155.768C79.1203 155.776 78.8215 155.896 78.5908 156.106C78.3601 156.316 78.213 156.603 78.1763 156.913C77.982 158.031 77.9069 159.167 77.9523 160.301Z" fill="#393637"/>
<path d="M123.235 160.645C123.202 159.387 123.257 158.129 123.401 156.879C123.749 154.398 125.106 153.153 127.636 152.983C128.267 152.934 128.902 152.975 129.522 153.107C131.423 153.532 132.543 154.887 132.765 156.973C132.896 158.2 132.869 159.431 132.897 160.661C132.905 161.001 132.808 161.099 132.466 161.096C130.667 161.08 128.868 161.104 127.07 161.078C126.628 161.071 126.523 161.212 126.53 161.626C126.508 162.55 126.578 163.473 126.739 164.382C126.941 165.306 127.415 165.731 128.199 165.717C128.486 165.732 128.769 165.652 129.004 165.488C129.24 165.324 129.414 165.087 129.5 164.813C129.689 164.311 129.775 163.777 129.752 163.241C129.744 162.96 129.843 162.884 130.114 162.889C130.908 162.905 131.702 162.903 132.496 162.89C132.725 162.887 132.813 162.959 132.818 163.187C132.899 164.274 132.695 165.363 132.225 166.346C132.02 166.734 131.737 167.076 131.394 167.35C131.052 167.625 130.656 167.826 130.233 167.943C129.049 168.302 127.792 168.354 126.583 168.093C124.753 167.717 123.881 166.434 123.525 164.726C123.301 163.378 123.204 162.012 123.235 160.645ZM128.095 158.784C128.515 158.784 128.936 158.779 129.356 158.786C129.541 158.79 129.663 158.767 129.658 158.532C129.694 157.854 129.633 157.174 129.477 156.513C129.413 156.216 129.241 155.954 128.996 155.775C128.75 155.597 128.448 155.514 128.146 155.544C127.838 155.501 127.524 155.571 127.263 155.741C127.002 155.911 126.811 156.169 126.726 156.469C126.544 157.141 126.478 157.839 126.53 158.533C126.532 158.766 126.649 158.79 126.834 158.786C127.254 158.779 127.675 158.784 128.095 158.784Z" fill="#383536"/>
<path d="M164.649 161.087C163.725 161.087 162.801 161.097 161.877 161.082C161.584 161.077 161.44 161.128 161.445 161.468C161.399 162.472 161.472 163.477 161.662 164.464C161.876 165.316 162.316 165.713 163.04 165.716C163.837 165.72 164.279 165.338 164.509 164.448C164.611 164.056 164.662 163.652 164.662 163.247C164.662 162.983 164.723 162.88 165.011 162.887C165.805 162.906 166.6 162.9 167.394 162.889C167.616 162.886 167.706 162.941 167.711 163.181C167.75 163.975 167.665 164.77 167.458 165.538C167.305 166.138 166.99 166.685 166.547 167.119C166.104 167.553 165.551 167.857 164.948 167.998C163.816 168.303 162.628 168.336 161.481 168.093C159.58 167.697 158.674 166.348 158.4 164.581C158.007 161.997 157.982 159.37 158.324 156.779C158.639 154.338 160.018 153.172 162.492 152.985C163.139 152.929 163.79 152.97 164.425 153.107C166.391 153.55 167.499 154.956 167.693 157.22C167.793 158.385 167.79 159.551 167.803 160.717C167.806 161.022 167.715 161.1 167.42 161.094C166.497 161.076 165.573 161.087 164.649 161.087ZM161.435 157.82C161.435 158.046 161.438 158.272 161.434 158.498C161.43 158.689 161.486 158.79 161.709 158.787C162.566 158.776 163.423 158.779 164.279 158.785C164.48 158.787 164.57 158.729 164.569 158.511C164.595 157.833 164.53 157.153 164.375 156.492C164.309 156.204 164.141 155.95 163.902 155.775C163.664 155.601 163.37 155.519 163.076 155.543C162.777 155.498 162.471 155.558 162.211 155.713C161.951 155.867 161.753 156.107 161.65 156.392C161.5 156.853 161.427 157.335 161.435 157.82Z" fill="#383536"/>
<path d="M72.4151 160.549C72.4237 161.96 72.2986 163.368 72.0415 164.755C71.575 166.922 70.548 167.895 68.3497 168.191C67.4476 168.318 66.5291 168.254 65.6534 168.003C65.1019 167.861 64.5944 167.584 64.1769 167.196C63.7593 166.809 63.4449 166.324 63.2621 165.784C62.8999 164.727 62.6964 163.621 62.6582 162.504C62.4766 160.436 62.5898 158.353 62.9943 156.317C63.4664 154.244 64.49 153.32 66.5971 153.026C67.4661 152.904 68.3504 152.953 69.2005 153.171C69.7898 153.298 70.3353 153.578 70.7828 153.982C71.2303 154.386 71.564 154.9 71.7507 155.473C72.3404 157.135 72.3589 158.871 72.4151 160.549ZM69.1193 161.023C69.1704 159.631 69.1068 158.238 68.9289 156.856C68.7694 155.926 68.2847 155.536 67.3568 155.579C66.5361 155.617 66.1165 156.057 66.0117 157.059C65.8442 159.174 65.8257 161.298 65.9562 163.415C65.9752 163.771 66.0206 164.124 66.0923 164.473C66.2482 165.301 66.6981 165.682 67.4794 165.675C67.6584 165.692 67.839 165.673 68.0103 165.618C68.1815 165.563 68.3398 165.474 68.4755 165.356C68.6111 165.238 68.7213 165.093 68.7993 164.931C68.8772 164.769 68.9214 164.593 68.929 164.413C69.0874 163.291 69.1511 162.157 69.1193 161.023Z" fill="#383536"/>
<path d="M138.534 154.776C138.734 154.504 138.843 154.346 138.962 154.196C139.422 153.611 140.068 153.201 140.793 153.033C141.518 152.865 142.279 152.951 142.949 153.274C144.049 153.809 144.478 154.79 144.528 155.932C144.585 157.21 144.555 158.493 144.556 159.773C144.558 162.319 144.548 164.864 144.566 167.409C144.569 167.779 144.47 167.872 144.11 167.857C143.398 167.827 142.682 167.824 141.97 167.858C141.56 167.877 141.426 167.789 141.429 167.339C141.453 164.308 141.442 161.276 141.441 158.244C141.462 157.758 141.421 157.271 141.319 156.795C141.278 156.527 141.144 156.282 140.939 156.104C140.735 155.927 140.473 155.828 140.202 155.825C139.926 155.788 139.645 155.846 139.406 155.991C139.168 156.136 138.986 156.358 138.892 156.621C138.677 157.234 138.582 157.883 138.612 158.532C138.607 161.483 138.602 164.433 138.618 167.384C138.62 167.767 138.521 167.872 138.141 167.858C137.331 167.827 136.52 167.84 135.709 167.853C135.465 167.857 135.376 167.8 135.376 167.535C135.384 162.915 135.384 158.294 135.376 153.674C135.376 153.411 135.461 153.348 135.71 153.352C136.537 153.366 137.364 153.369 138.191 153.351C138.477 153.345 138.556 153.443 138.538 153.712C138.518 154.015 138.534 154.32 138.534 154.776Z" fill="#383536"/>
<path d="M146.9 160.596C146.88 159.097 147.028 157.601 147.342 156.134C147.866 154.095 148.911 153.193 151.006 152.991C151.669 152.925 152.338 152.962 152.99 153.1C154.765 153.478 155.783 154.642 156.01 156.557C156.069 157.055 156.068 157.559 156.107 158.06C156.125 158.295 156.032 158.372 155.802 158.369C154.976 158.36 154.149 158.357 153.322 158.371C153.055 158.376 152.994 158.272 153.003 158.029C153.036 157.494 152.971 156.958 152.812 156.446C152.752 156.182 152.598 155.948 152.379 155.788C152.16 155.628 151.891 155.553 151.621 155.576C151.351 155.555 151.082 155.63 150.862 155.788C150.642 155.946 150.485 156.176 150.418 156.439C150.291 156.824 150.23 157.229 150.237 157.635C150.224 159.757 150.161 161.88 150.277 164.001C150.294 164.26 150.34 164.515 150.413 164.764C150.467 165.03 150.614 165.267 150.828 165.434C151.041 165.601 151.308 165.685 151.579 165.672C151.857 165.696 152.134 165.62 152.361 165.458C152.588 165.295 152.75 165.057 152.817 164.786C153.012 164.082 153.089 163.351 153.045 162.622C153.04 162.219 153.177 162.138 153.545 162.153C154.289 162.186 155.035 162.176 155.781 162.176C155.98 162.176 156.117 162.191 156.122 162.452C156.175 163.489 156.062 164.528 155.787 165.529C155.247 167.266 153.985 168.061 152.246 168.217C151.583 168.28 150.915 168.245 150.262 168.113C148.654 167.783 147.751 166.754 147.36 165.202C147.036 163.689 146.882 162.144 146.9 160.596Z" fill="#383536"/>
<path d="M106.03 160.588C106.011 159.088 106.159 157.59 106.474 156.124C107 154.084 108.097 153.155 110.195 152.985C110.826 152.932 111.462 152.967 112.083 153.091C113.869 153.449 114.918 154.64 115.141 156.568C115.197 157.05 115.199 157.538 115.236 158.022C115.255 158.263 115.189 158.375 114.921 158.37C114.094 158.357 113.267 158.354 112.441 158.372C112.154 158.378 112.128 158.244 112.134 158.018C112.162 157.499 112.101 156.98 111.952 156.482C111.898 156.208 111.744 155.964 111.52 155.796C111.296 155.629 111.018 155.551 110.739 155.576C110.461 155.559 110.185 155.642 109.963 155.81C109.74 155.979 109.585 156.221 109.526 156.494C109.415 156.868 109.361 157.256 109.365 157.646C109.356 159.768 109.291 161.891 109.407 164.012C109.422 164.238 109.46 164.462 109.518 164.681C109.559 164.966 109.705 165.226 109.928 165.409C110.15 165.592 110.432 165.686 110.72 165.673C111.007 165.694 111.291 165.609 111.52 165.436C111.749 165.262 111.907 165.011 111.964 164.729C112.141 164.021 112.214 163.291 112.18 162.562C112.182 162.249 112.259 162.14 112.588 162.153C113.365 162.183 114.144 162.177 114.922 162.175C115.132 162.175 115.248 162.213 115.252 162.463C115.303 163.484 115.194 164.507 114.929 165.494C114.402 167.229 113.156 168.049 111.413 168.214C110.734 168.281 110.049 168.246 109.381 168.11C107.773 167.777 106.877 166.742 106.488 165.191C106.165 163.679 106.012 162.135 106.03 160.588Z" fill="#383536"/>
<path d="M130.301 107.253C129.295 107.257 128.317 106.92 127.528 106.296C126.738 105.672 126.184 104.799 125.955 103.819C125.742 103.107 125.735 102.35 125.935 101.634C126.135 100.919 126.534 100.275 127.086 99.7772C127.824 98.9911 128.797 98.4662 129.859 98.2816C130.342 98.2084 130.836 98.2488 131.3 98.3996C131.764 98.5505 132.187 98.8076 132.535 99.1506C133.282 99.8783 133.788 100.817 133.987 101.84C134.185 102.864 134.066 103.924 133.646 104.878C133.355 105.539 132.891 106.11 132.302 106.528C131.713 106.946 131.021 107.197 130.301 107.253Z" fill="#035E38"/>
<path d="M57.776 155.474C58.1147 155.037 58.359 154.567 58.6847 154.145C58.9171 153.832 59.2096 153.569 59.5451 153.371C59.8805 153.173 60.2522 153.043 60.6382 152.991C60.9008 152.951 61.0529 152.96 61.0459 153.31C61.0236 154.443 61.0277 155.577 61.0441 156.711C61.0485 157.017 60.9365 157.036 60.6746 157.013C58.9244 156.86 57.9782 157.721 57.9705 159.487C57.959 162.127 57.961 164.767 57.9767 167.407C57.9791 167.774 57.8849 167.871 57.5222 167.858C56.7132 167.829 55.9021 167.837 55.0925 167.855C54.8094 167.861 54.7053 167.808 54.7061 167.49C54.7176 162.906 54.7185 158.323 54.7086 153.739C54.7081 153.459 54.7532 153.339 55.0734 153.35C55.8502 153.375 56.6289 153.373 57.4059 153.35C57.7131 153.342 57.7927 153.442 57.7821 153.735C57.7613 154.314 57.776 154.894 57.776 155.474Z" fill="#383536"/>
<path d="M117.641 160.603C117.641 158.35 117.653 156.097 117.63 153.844C117.626 153.426 117.75 153.332 118.144 153.35C118.888 153.382 119.636 153.38 120.38 153.35C120.758 153.335 120.869 153.438 120.867 153.827C120.849 156.728 120.857 159.629 120.857 162.53C120.857 164.151 120.848 165.772 120.865 167.392C120.868 167.735 120.81 167.878 120.422 167.861C119.645 167.826 118.865 167.83 118.088 167.86C117.726 167.873 117.629 167.778 117.632 167.41C117.65 165.141 117.641 162.872 117.641 160.603Z" fill="#393637"/>
<path d="M186.717 106.747C186.898 106.065 187.076 105.405 187.249 104.744C187.421 104.086 187.594 103.429 187.752 102.769C187.815 102.504 187.905 102.345 188.228 102.38C188.77 102.438 189.501 102.152 189.809 102.492C190.079 102.791 189.894 103.508 189.895 104.041C189.899 105.581 189.885 107.121 189.905 108.661C189.91 109.016 189.833 109.133 189.457 109.121C188.636 109.095 188.635 109.118 188.634 108.308C188.634 106.946 188.634 105.585 188.552 104.207C188.35 105.002 188.148 105.796 187.946 106.59C187.764 107.312 187.574 108.032 187.411 108.758C187.409 108.812 187.395 108.866 187.371 108.915C187.346 108.963 187.311 109.006 187.269 109.041C187.226 109.075 187.177 109.1 187.124 109.113C187.071 109.127 187.016 109.129 186.962 109.12C186.01 109.12 186.013 109.133 185.782 108.211C185.454 106.899 185.122 105.589 184.779 104.231C184.689 104.385 184.658 104.566 184.693 104.741C184.686 106.054 184.676 107.368 184.692 108.681C184.696 109.013 184.612 109.126 184.263 109.12C183.423 109.105 183.423 109.123 183.423 108.277C183.423 106.462 183.434 104.646 183.414 102.83C183.41 102.463 183.508 102.35 183.874 102.379C184.388 102.419 185.022 102.23 185.392 102.469C185.766 102.711 185.716 103.403 185.856 103.897C186.117 104.815 186.351 105.74 186.599 106.662C186.604 106.682 186.641 106.694 186.717 106.747Z" fill="#393637"/>
<path d="M180.571 106.345C180.571 107.122 180.557 107.899 180.577 108.675C180.586 108.993 180.53 109.128 180.165 109.122C179.205 109.107 179.205 109.126 179.205 108.154C179.205 106.746 179.194 105.338 179.212 103.93C179.217 103.606 179.119 103.512 178.806 103.532C178.403 103.558 177.995 103.517 177.592 103.545C177.28 103.567 177.218 103.45 177.22 103.162C177.224 102.388 177.21 102.387 177.973 102.387C179.365 102.387 180.758 102.4 182.15 102.379C182.501 102.374 182.583 102.486 182.575 102.818C182.558 103.538 182.576 103.538 181.859 103.538C181.535 103.538 181.21 103.556 180.888 103.533C180.619 103.514 180.563 103.627 180.567 103.868C180.578 104.693 180.571 105.519 180.571 106.345Z" fill="#393637"/>
<path d="M119.245 148.575C119.681 148.575 120.118 148.585 120.554 148.571C120.783 148.564 120.866 148.639 120.863 148.874C120.851 149.666 120.851 150.458 120.862 151.25C120.866 151.494 120.8 151.594 120.536 151.59C119.68 151.576 118.823 151.576 117.966 151.59C117.706 151.595 117.634 151.503 117.638 151.256C117.649 150.464 117.653 149.672 117.636 148.881C117.63 148.602 117.753 148.564 117.984 148.571C118.404 148.584 118.824 148.575 119.245 148.575Z" fill="#393637"/>
<path d="M82.165 96.9325L82.1108 96.9987L82.0811 96.9626C82.1027 96.9452 82.1243 96.9279 82.1455 96.9102L82.165 96.9325Z" fill="#FEFEFE"/>
</g>
<defs>
<filter id="filter0_d_56_1683" x="0" y="0" width="250" height="250" filterUnits="userSpaceOnUse" color-interpolation-filters="sRGB">
<feFlood flood-opacity="0" result="BackgroundImageFix"/>
<feColorMatrix in="SourceAlpha" type="matrix" values="0 0 0 0 0 0 0 0 0 0 0 0 0 0 0 0 0 0 127 0" result="hardAlpha"/>
<feOffset dx="10" dy="10"/>
<feGaussianBlur stdDeviation="12"/>
<feComposite in2="hardAlpha" operator="out"/>
<feColorMatrix type="matrix" values="0 0 0 0 0 0 0 0 0 0 0 0 0 0 0 0 0 0 0.25 0"/>
<feBlend mode="normal" in2="BackgroundImageFix" result="effect1_dropShadow_56_1683"/>
<feBlend mode="normal" in="SourceGraphic" in2="effect1_dropShadow_56_1683" result="shape"/>
</filter>
</defs>
</svg>
