<svg xmlns="http://www.w3.org/2000/svg" width="218" height="69" viewBox="0 0 218 69" fill="none">
  <path d="M27.2081 25.0135V32.2935H44.7768C44.3104 36.3207 42.9111 39.4186 40.7345 41.4322C38.2468 43.9105 34.2045 46.6986 27.2081 46.6986C16.4803 46.6986 8.0847 38.0246 8.0847 27.3369C8.0847 16.6493 16.3249 7.97529 27.2081 7.97529C32.9607 7.97529 37.314 10.2987 40.4235 13.2417L45.5542 8.13018C41.2009 3.94807 35.2928 0.695312 27.2081 0.695312C12.438 0.695312 0 12.6221 0 27.3369C0 42.0518 12.438 53.9786 27.2081 53.9786C35.1373 53.9786 41.2009 51.3454 45.8651 46.5437C50.6848 41.742 52.2396 34.9267 52.2396 29.5054C52.2396 27.8016 52.0841 26.2527 51.9286 25.0135H27.2081Z" fill="white"/>
  <path d="M74.006 18.9727C64.522 18.9727 56.5928 26.2526 56.5928 36.1658C56.5928 46.079 64.3665 53.3589 74.006 53.3589C83.6454 53.3589 91.4192 46.2338 91.4192 36.3207C91.4192 26.2526 83.6454 18.9727 74.006 18.9727ZM74.006 46.6985C68.7198 46.6985 64.211 42.3615 64.211 36.3207C64.211 30.125 68.7198 25.9428 74.006 25.9428C79.2921 25.9428 83.8009 30.125 83.8009 36.3207C83.8009 42.3615 79.2921 46.6985 74.006 46.6985Z" fill="white"/>
  <path d="M159.051 22.845H158.74C157.03 20.8314 153.765 18.9727 149.567 18.9727C140.86 18.9727 133.397 26.4075 133.397 36.1658C133.397 45.7692 140.86 53.3589 149.567 53.3589C153.765 53.3589 157.03 51.5002 158.74 49.4866H159.051V51.9649C159.051 58.4704 155.475 62.0329 149.878 62.0329C145.214 62.0329 142.415 58.7802 141.171 55.8372L134.641 58.6253C136.507 63.1172 141.638 68.8482 150.033 68.8482C158.895 68.8482 166.514 63.5819 166.514 50.8806V19.902H159.362V22.845H159.051ZM150.344 46.6985C145.058 46.6985 141.171 42.2066 141.171 36.3207C141.171 30.2799 145.214 25.9428 150.344 25.9428C155.475 25.9428 159.517 30.4347 159.517 36.4756C159.673 42.3615 155.63 46.6985 150.344 46.6985Z" fill="white"/>
  <path d="M112.72 18.9727C103.236 18.9727 95.3066 26.2526 95.3066 36.1658C95.3066 46.079 103.08 53.3589 112.72 53.3589C122.359 53.3589 130.133 46.2338 130.133 36.3207C130.133 26.2526 122.359 18.9727 112.72 18.9727ZM112.72 46.6985C107.434 46.6985 102.925 42.3615 102.925 36.3207C102.925 30.125 107.434 25.9428 112.72 25.9428C118.006 25.9428 122.515 30.125 122.515 36.3207C122.515 42.3615 118.006 46.6985 112.72 46.6985Z" fill="white"/>
  <path d="M172.267 1.4707H179.729V53.5148H172.267V1.4707Z" fill="white"/>
  <path d="M202.74 46.6985C198.853 46.6985 196.21 44.9947 194.344 41.4322L217.51 31.9837L216.733 29.9701C215.333 26.0977 210.825 18.9727 201.963 18.9727C193.1 18.9727 185.638 25.9428 185.638 36.1658C185.638 45.7692 192.945 53.3589 202.74 53.3589C210.669 53.3589 215.178 48.5572 217.199 45.7692L211.291 41.8968C209.27 44.8398 206.627 46.6985 202.74 46.6985ZM202.274 25.4782C205.383 25.4782 208.026 27.0271 208.803 29.1956L193.256 35.7011C193.1 28.576 198.387 25.4782 202.274 25.4782Z" fill="white"/>
</svg>