<svg width="60" height="60" viewBox="0 0 60 60" fill="none" xmlns="http://www.w3.org/2000/svg">
<path fillRule="evenodd" clipRule="evenodd" d="M28.3475 57.0602C17.2955 57.0602 8.30371 48.0684 8.30371 37.0164C8.30371 26.677 16.174 18.141 26.2381 17.084V20.6945C18.1568 21.7328 11.8908 28.6574 11.8908 37.0164C11.8908 46.0902 19.2736 53.473 28.3475 53.473C37.4213 53.473 44.8041 46.0902 44.8041 37.0164C44.8041 28.6574 38.5381 21.734 30.4568 20.6945V17.084C40.5209 18.141 48.3912 26.677 48.3912 37.0164C48.3912 48.0684 39.3994 57.0602 28.3475 57.0602ZM28.3475 46.2988C23.2299 46.2988 19.065 42.1352 19.065 37.0164C19.065 32.6242 22.133 28.934 26.2381 27.9766V25.7488C20.9213 26.7414 16.8842 31.416 16.8842 37.0164C16.8842 43.3375 22.0264 48.4797 28.3475 48.4797C34.6686 48.4797 39.8107 43.3375 39.8107 37.0164C39.8107 31.416 35.7736 26.7414 30.4568 25.7488V27.9766C34.5619 28.934 37.6299 32.6242 37.6299 37.0164C37.6299 42.1352 33.4662 46.2988 28.3475 46.2988ZM26.2381 29.4273C22.917 30.352 20.4725 33.4047 20.4725 37.0164C20.4725 41.3594 24.0045 44.8926 28.3475 44.8926C32.6904 44.8926 36.2236 41.3594 36.2236 37.0164C36.2236 33.4047 33.7791 30.352 30.4568 29.4273V37.0164C30.4568 38.1813 29.5123 39.1258 28.3475 39.1258C27.1838 39.1258 26.2381 38.1813 26.2381 37.0164V29.4273ZM28.3475 49.8859C21.2518 49.8859 15.4779 44.1121 15.4779 37.0164C15.4779 30.6391 20.142 25.3305 26.2381 24.3215V22.1148C18.935 23.1438 13.2971 29.4332 13.2971 37.0164C13.2971 45.3156 20.0482 52.0668 28.3475 52.0668C36.6467 52.0668 43.3979 45.3156 43.3979 37.0164C43.3979 29.4332 37.76 23.1438 30.4568 22.1148V24.3215C36.5529 25.3305 41.217 30.6391 41.217 37.0164C41.217 44.1133 35.4443 49.8859 28.3475 49.8859Z" fill="#76B728"/>
<path fillRule="evenodd" clipRule="evenodd" d="M28.3477 37.7203C27.9598 37.7203 27.6445 37.4051 27.6445 37.0172V0.703125C27.6445 0.315234 27.9598 0 28.3477 0C28.7367 0 29.0508 0.315234 29.0508 0.703125V37.0172C29.0508 37.4051 28.7367 37.7203 28.3477 37.7203Z" fill="#76B728"/>
<path fillRule="evenodd" clipRule="evenodd" d="M42.3434 11.023H28.3477C27.9598 11.023 27.6445 10.709 27.6445 10.3199V2.23047C27.6445 1.84258 27.9598 1.52734 28.3477 1.52734H42.3434C42.7312 1.52734 43.0465 1.84258 43.0465 2.23047V10.3199C43.0465 10.7078 42.7312 11.023 42.3434 11.023Z" fill="#76B728"/>
<path fillRule="evenodd" clipRule="evenodd" d="M50.993 15.6543H38.8312L41.5066 12.4305H42.3434C43.5082 12.4305 44.4527 11.4859 44.4527 10.3211V4.13477H50.993C51.2438 4.13477 51.4758 4.26953 51.6012 4.48633C51.7266 4.70313 51.7277 4.97148 51.6023 5.18945L48.9258 9.84297L51.6059 14.6066C51.7277 14.8246 51.7254 15.0906 51.6 15.3063C51.4734 15.5219 51.2426 15.6543 50.993 15.6543ZM37.7988 14.6969V12.4305H39.6797L37.7988 14.6969Z" fill="#76B728"/>
<path fillRule="evenodd" clipRule="evenodd" d="M16.7757 59.9978C16.5952 59.9978 16.4159 59.9299 16.2788 59.7928C16.0034 59.5174 16.0034 59.0721 16.2788 58.7979L20.6171 54.4596C20.8913 54.1854 21.3366 54.1854 21.6108 54.4596C21.8851 54.735 21.8851 55.1803 21.6108 55.4545L17.2726 59.7928C17.1354 59.9299 16.955 59.9978 16.7757 59.9978Z" fill="#76B728"/>
<path fillRule="evenodd" clipRule="evenodd" d="M39.9197 59.9978C39.7404 59.9978 39.56 59.9299 39.4229 59.7928L35.0846 55.4545C34.8104 55.1803 34.8104 54.735 35.0846 54.4596C35.3588 54.1854 35.8053 54.1854 36.0795 54.4596L40.4178 58.7979C40.692 59.0721 40.692 59.5174 40.4178 59.7928C40.2807 59.9299 40.1002 59.9978 39.9197 59.9978Z" fill="#76B728"/>
</svg>
