<svg width="60" height="60" viewBox="0 0 60 60" fill="none" xmlns="http://www.w3.org/2000/svg">
<path d="M12.4055 38.2701C12.8585 37.8171 12.3004 36.5247 11.1591 35.3833C10.0177 34.242 8.72526 33.6839 8.2723 34.1369C7.81934 34.5898 8.3774 35.8823 9.51875 37.0236C10.6601 38.165 11.9526 38.723 12.4055 38.2701Z" fill="#76B728"/>
<path d="M45.5155 22.7599C44.777 22.7869 44.058 23.0045 43.4284 23.3917C43.4375 23.525 43.4486 23.6582 43.4486 23.7926C43.446 24.7755 43.2042 25.743 42.7441 26.6115C43.54 26.3229 44.2303 25.8009 44.7248 25.1137C45.2192 24.4265 45.4948 23.6061 45.5155 22.7598V22.7599Z" fill="#76B728"/>
<path d="M25.8621 57.9316H15.5172C15.2429 57.9316 14.9798 57.8226 14.7858 57.6286C14.5917 57.4346 14.4828 57.1715 14.4828 56.8971C14.4828 56.6227 14.5917 56.3596 14.7858 56.1656C14.9798 55.9716 15.2429 55.8626 15.5172 55.8626H24.8276V32.0695C24.8253 30.1497 24.0616 28.3092 22.7041 26.9516C21.3465 25.5941 19.506 24.8305 17.5862 24.8281H9.31034C7.39053 24.8305 5.55 25.5941 4.19249 26.9516C2.83497 28.3092 2.07129 30.1497 2.06897 32.0695V56.8971C2.06897 57.1715 1.95998 57.4346 1.76597 57.6286C1.57197 57.8226 1.30884 57.9316 1.03448 57.9316C0.760173 57.9317 0.497148 58.0408 0.303182 58.2348C0.109216 58.4287 0.000171283 58.6917 0 58.9661V60.0005H26.8966V58.9661C26.8964 58.6917 26.7873 58.4287 26.5934 58.2348C26.3994 58.0408 26.1364 57.9317 25.8621 57.9316ZM6.2069 33.104C6.2069 32.8296 6.31589 32.5665 6.50989 32.3725C6.70389 32.1785 6.96702 32.0695 7.24138 32.0695H8.15056C8.98244 32.0673 9.80649 32.2301 10.575 32.5484C11.3436 32.8668 12.0413 33.3345 12.6279 33.9243C12.935 34.232 13.2099 34.5702 13.4483 34.9337C13.6867 34.5702 13.9615 34.232 14.2686 33.9243C14.8552 33.3345 15.553 32.8668 16.3215 32.5484C17.0901 32.2301 17.9141 32.0673 18.746 32.0695H19.6552C19.9295 32.0695 20.1927 32.1785 20.3867 32.3725C20.5807 32.5665 20.6897 32.8296 20.6897 33.104V34.0132C20.6895 35.6925 20.0223 37.3031 18.8348 38.4906C17.6474 39.678 16.0368 40.3452 14.3575 40.3454H12.5391C10.8597 40.3452 9.24919 39.678 8.06171 38.4906C6.87422 37.3031 6.20703 35.6925 6.2069 34.0132V33.104ZM7.24138 43.4488C7.24138 43.1745 7.35037 42.9113 7.54437 42.7173C7.73838 42.5233 8.0015 42.4143 8.27586 42.4143H18.6207C18.8951 42.4143 19.1582 42.5233 19.3522 42.7173C19.5462 42.9113 19.6552 43.1745 19.6552 43.4488C19.6552 43.7232 19.5462 43.9863 19.3522 44.1803C19.1582 44.3743 18.8951 44.4833 18.6207 44.4833H8.27586C8.0015 44.4833 7.73838 44.3743 7.54437 44.1803C7.35037 43.9863 7.24138 43.7232 7.24138 43.4488ZM9.31034 47.5867C9.31034 47.3124 9.41933 47.0493 9.61334 46.8553C9.80734 46.6613 10.0705 46.5523 10.3448 46.5523H16.5517C16.8261 46.5523 17.0892 46.6613 17.2832 46.8553C17.4772 47.0493 17.5862 47.3124 17.5862 47.5867C17.5862 47.8611 17.4772 48.1242 17.2832 48.3182C17.0892 48.5122 16.8261 48.6212 16.5517 48.6212H10.3448C10.0705 48.6212 9.80734 48.5122 9.61334 48.3182C9.41933 48.1242 9.31034 47.8611 9.31034 47.5867Z" fill="#76B728"/>
<path d="M16.5516 21.7239C16.5515 21.4496 16.4424 21.1866 16.2484 20.9926C16.0545 20.7987 15.7915 20.6896 15.5171 20.6895H11.3792C11.1049 20.6896 10.8419 20.7987 10.6479 20.9926C10.4539 21.1866 10.3449 21.4496 10.3447 21.7239V22.7584H16.5516V21.7239Z" fill="#76B728"/>
<path d="M11.9328 18.6204H14.9636L15.8566 17.2808C16.3106 16.6015 16.5525 15.8026 16.5516 14.9856V14.4824H10.3447V14.9856C10.3439 15.8026 10.5858 16.6015 11.0398 17.2808L11.9328 18.6204Z" fill="#76B728"/>
<path d="M37.262 23.389C36.6324 23.0022 35.9133 22.7854 35.1748 22.7598C35.1956 23.606 35.4712 24.4263 35.9657 25.1135C36.4601 25.8006 37.1504 26.3226 37.9462 26.6111C37.4861 25.7426 37.2443 24.7751 37.2417 23.7922C37.2417 23.6573 37.2528 23.5232 37.262 23.389Z" fill="#76B728"/>
<path d="M17.3651 37.0249C18.5065 35.8835 19.0645 34.5911 18.6116 34.1381C18.1586 33.6852 16.8662 34.2432 15.7248 35.3846C14.5835 36.5259 14.0254 37.8184 14.4784 38.2713C14.9313 38.7243 16.2238 38.1662 17.3651 37.0249Z" fill="#76B728"/>
<path d="M40.345 26.4612C40.9164 26.4612 41.3795 25.2662 41.3795 23.7921C41.3795 22.318 40.9164 21.123 40.345 21.123C39.7737 21.123 39.3105 22.318 39.3105 23.7921C39.3105 25.2662 39.7737 26.4612 40.345 26.4612Z" fill="#76B728"/>
<path d="M50.6897 25.8624C50.6897 23.8164 50.0829 21.8163 48.9462 20.1151C47.8095 18.4139 46.1939 17.088 44.3036 16.305C42.4134 15.5221 40.3334 15.3172 38.3267 15.7164C36.32 16.1155 34.4767 17.1008 33.0299 18.5475C31.5832 19.9943 30.5979 21.8375 30.1988 23.8442C29.7996 25.8509 30.0045 27.9309 30.7875 29.8212C31.5704 31.7115 32.8964 33.3271 34.5976 34.4638C36.2988 35.6005 38.2988 36.2072 40.3448 36.2072C43.0875 36.204 45.7168 35.113 47.6561 33.1737C49.5955 31.2344 50.6864 28.605 50.6897 25.8624ZM39.3104 34.1383V28.9598C37.6532 28.929 36.0743 28.2489 34.9135 27.0658C33.7527 25.8827 33.1027 24.2911 33.1035 22.6337V21.7245C33.1035 21.4501 33.2124 21.187 33.4064 20.993C33.6004 20.799 33.8636 20.69 34.1379 20.69H35.0471C35.9935 20.6975 36.9263 20.917 37.7767 21.3323C38.0737 20.6617 38.4907 20.0509 39.0072 19.5302L39.6135 18.9241C39.8074 18.7302 40.0705 18.6213 40.3448 18.6213C40.6191 18.6213 40.8822 18.7302 41.0762 18.9241L41.6824 19.5302C42.1978 20.0502 42.6141 20.6597 42.9109 21.329C43.7624 20.915 44.6957 20.6967 45.6425 20.69H46.5517C46.8261 20.69 47.0892 20.799 47.2832 20.993C47.4772 21.187 47.5862 21.4501 47.5862 21.7245V22.6337C47.587 24.2911 46.937 25.8827 45.7762 27.0658C44.6154 28.2489 43.0365 28.929 41.3793 28.9598V34.1383C41.3793 34.4126 41.2703 34.6758 41.0763 34.8698C40.8823 35.0638 40.6192 35.1728 40.3448 35.1728C40.0705 35.1728 39.8073 35.0638 39.6133 34.8698C39.4193 34.6758 39.3104 34.4126 39.3104 34.1383Z" fill="#76B728"/>
<path d="M42.4136 55.8621H57.9308V3.10345C57.9308 2.82909 58.0398 2.56596 58.2338 2.37196C58.4278 2.17796 58.691 2.06897 58.9653 2.06897C59.2396 2.06879 59.5026 1.95975 59.6966 1.76578C59.8906 1.57182 59.9996 1.30879 59.9998 1.03448V0H20.6895V1.03448C20.6896 1.30879 20.7987 1.57182 20.9926 1.76578C21.1866 1.95975 21.4496 2.06879 21.7239 2.06897H44.4826C44.7569 2.06897 45.02 2.17796 45.214 2.37196C45.408 2.56596 45.517 2.82909 45.517 3.10345C45.517 3.37781 45.408 3.64093 45.214 3.83494C45.02 4.02894 44.7569 4.13793 44.4826 4.13793H22.7584V24.3305C24.0311 25.1809 25.0744 26.3319 25.7962 27.6817C26.5179 29.0315 26.8958 30.5383 26.8963 32.069V56.0388C27.501 56.2536 28.0244 56.6502 28.3948 57.1742C28.7652 57.6981 28.9645 58.3238 28.9653 58.9655V60H59.9998V58.9655C59.9996 58.6912 59.8906 58.4282 59.6966 58.2342C59.5026 58.0402 59.2396 57.9312 58.9653 57.931H42.4136C42.1392 57.931 41.8761 57.822 41.6821 57.628C41.4881 57.434 41.3791 57.1709 41.3791 56.8965C41.3791 56.6222 41.4881 56.3591 41.6821 56.1651C41.8761 55.9711 42.1392 55.8621 42.4136 55.8621ZM27.9308 25.8621C27.9308 23.4069 28.6589 21.0068 30.0229 18.9653C31.387 16.9239 33.3257 15.3328 35.5941 14.3932C37.8624 13.4536 40.3584 13.2078 42.7664 13.6868C45.1745 14.1658 47.3864 15.3481 49.1225 17.0842C50.8586 18.8203 52.0409 21.0322 52.5199 23.4403C52.9989 25.8483 52.753 28.3443 51.8135 30.6126C50.8739 32.8809 49.2828 34.8197 47.2414 36.1838C45.1999 37.5478 42.7998 38.2759 40.3446 38.2759C37.0533 38.2724 33.8978 36.9635 31.5705 34.6362C29.2432 32.3089 27.9343 29.1534 27.9308 25.8621ZM33.1032 41.3793C33.1032 41.1049 33.2122 40.8418 33.4062 40.6478C33.6002 40.4538 33.8634 40.3448 34.1377 40.3448H46.5515C46.8259 40.3448 47.089 40.4538 47.283 40.6478C47.477 40.8418 47.586 41.1049 47.586 41.3793C47.586 41.6537 47.477 41.9168 47.283 42.1108C47.089 42.3048 46.8259 42.4138 46.5515 42.4138H34.1377C33.8634 42.4138 33.6002 42.3048 33.4062 42.1108C33.2122 41.9168 33.1032 41.6537 33.1032 41.3793ZM36.2067 46.5517C35.9323 46.5517 35.6692 46.4427 35.4752 46.2487C35.2812 46.0547 35.1722 45.7916 35.1722 45.5172C35.1722 45.2429 35.2812 44.9798 35.4752 44.7857C35.6692 44.5917 35.9323 44.4828 36.2067 44.4828H44.4826C44.7569 44.4828 45.02 44.5917 45.214 44.7857C45.408 44.9798 45.517 45.2429 45.517 45.5172C45.517 45.7916 45.408 46.0547 45.214 46.2487C45.02 46.4427 44.7569 46.5517 44.4826 46.5517H36.2067Z" fill="#76B728"/>
</svg>
