<svg width="40" height="40" viewBox="0 0 40 40" fill="none" xmlns="http://www.w3.org/2000/svg">
<rect width="40" height="40" rx="20" fill="#00C17D"/>
<path fillRule="evenodd" clipRule="evenodd" d="M20.6306 32.3347C22.8114 29.9247 28.6403 22.9197 28.6403 16.8943C28.6403 11.9821 24.6914 8 19.8202 8C14.9489 8 11 11.9821 11 16.8943C11 22.9197 16.8289 29.9247 19.0097 32.3347C19.4482 32.8193 20.1921 32.8193 20.6306 32.3347ZM19.8199 20.6C21.9076 20.6 23.6 18.9076 23.6 16.8199C23.6 14.7323 21.9076 13.0399 19.8199 13.0399C17.7323 13.0399 16.0399 14.7323 16.0399 16.8199C16.0399 18.9076 17.7323 20.6 19.8199 20.6Z" fill="white"/>
</svg>
