<svg width="60" height="60" viewBox="0 0 60 60" fill="none" xmlns="http://www.w3.org/2000/svg">
<g clip-path="url(#clip0_54_1240)">
<path d="M4.6875 18.9844H1.875C0.968908 18.9844 0.234375 19.7189 0.234375 20.625C0.234375 21.5311 0.968908 22.2656 1.875 22.2656H4.6875C5.59359 22.2656 6.32812 21.5311 6.32812 20.625C6.32812 19.7189 5.59359 18.9844 4.6875 18.9844Z" fill="#76B728"/>
<path d="M58.125 18.9844H55.3125C54.4064 18.9844 53.6719 19.7189 53.6719 20.625C53.6719 21.5311 54.4064 22.2656 55.3125 22.2656H58.125C59.0311 22.2656 59.7656 21.5311 59.7656 20.625C59.7656 19.7189 59.0311 18.9844 58.125 18.9844Z" fill="#76B728"/>
<path d="M53.5351 5.14062L51.0995 6.54688C50.3148 6.99992 50.046 8.00329 50.499 8.78797C50.9521 9.57264 51.9554 9.84148 52.7401 9.38844L55.1757 7.98219C55.9604 7.52914 56.2293 6.52577 55.7762 5.74109C55.3232 4.95642 54.3198 4.68758 53.5351 5.14062Z" fill="#76B728"/>
<path d="M7.25875 31.8594L4.82312 33.2656C4.03845 33.7187 3.76961 34.722 4.22266 35.5067C4.6757 36.2914 5.67907 36.5602 6.46375 36.1072L8.89937 34.7009C9.68405 34.2479 9.95289 33.2445 9.49984 32.4598C9.0468 31.6752 8.04343 31.4063 7.25875 31.8594Z" fill="#76B728"/>
<path d="M6.46277 5.14281C5.6781 4.68977 4.67473 4.95861 4.22168 5.74328C3.76863 6.52796 4.03747 7.53133 4.82215 7.98438L7.25777 9.39062C8.04245 9.84367 9.04582 9.57483 9.49887 8.79016C9.95191 8.00548 9.68307 7.00211 8.8984 6.54906L6.46277 5.14281Z" fill="#76B728"/>
<path d="M52.7411 31.8635C51.9564 31.4105 50.953 31.6793 50.5 32.464C50.047 33.2487 50.3158 34.252 51.1005 34.7051L53.5361 36.1113C54.3208 36.5644 55.3241 36.2955 55.7772 35.5109C56.2302 34.7262 55.9614 33.7228 55.1767 33.2698L52.7411 31.8635Z" fill="#76B728"/>
<path d="M19.9219 44.7656H40.0781V49.6875H19.9219V44.7656Z" fill="#76B728"/>
<path d="M29.9995 59.7656C32.0968 59.7628 34.1412 59.1068 35.8485 57.8887C37.5558 56.6706 38.8413 54.951 39.5264 52.9688H20.4727C21.1577 54.951 22.4432 56.6706 24.1506 57.8887C25.8579 59.1068 27.9022 59.7628 29.9995 59.7656Z" fill="#76B728"/>
<path d="M19.6875 49.6875C19.2524 49.6875 18.8351 49.8603 18.5274 50.168C18.2197 50.4757 18.0469 50.893 18.0469 51.3281C18.0469 51.7632 18.2197 52.1805 18.5274 52.4882C18.8351 52.7959 19.2524 52.9688 19.6875 52.9688H20.4731C20.1081 51.9133 19.9218 50.8043 19.9219 49.6875H19.6875Z" fill="#76B728"/>
<path d="M40.313 49.6875H40.0786C40.0787 50.8043 39.8923 51.9133 39.5273 52.9688H40.313C40.7481 52.9688 41.1654 52.7959 41.4731 52.4882C41.7807 52.1805 41.9536 51.7632 41.9536 51.3281C41.9536 50.893 41.7807 50.4757 41.4731 50.168C41.1654 49.8603 40.7481 49.6875 40.313 49.6875Z" fill="#76B728"/>
<path d="M30 23.2031C31.4239 23.2031 32.5781 22.0489 32.5781 20.625C32.5781 19.2011 31.4239 18.0469 30 18.0469C28.5761 18.0469 27.4219 19.2011 27.4219 20.625C27.4219 22.0489 28.5761 23.2031 30 23.2031Z" fill="#76B728"/>
<path d="M24.1409 20.625C24.1426 19.0715 24.7605 17.5822 25.8589 16.4837C26.9574 15.3852 28.4468 14.7674 30.0002 14.7656C25.5499 14.7656 21.5627 18.7416 19.9277 20.625C21.5646 22.5075 25.5527 26.4844 30.0002 26.4844C28.4468 26.4826 26.9574 25.8648 25.8589 24.7663C24.7605 23.6678 24.1426 22.1785 24.1409 20.625Z" fill="#76B728"/>
<path d="M30 14.7656C31.554 14.7656 33.0444 15.3829 34.1432 16.4818C35.2421 17.5806 35.8594 19.071 35.8594 20.625C35.8594 22.179 35.2421 23.6694 34.1432 24.7682C33.0444 25.8671 31.554 26.4844 30 26.4844C34.4503 26.4844 38.4375 22.5084 40.0725 20.625C38.4375 18.7416 34.4503 14.7656 30 14.7656Z" fill="#76B728"/>
<path d="M30.0001 0.234375C24.5941 0.240578 19.4113 2.39086 15.5886 6.2135C11.766 10.0361 9.61572 15.219 9.60951 20.625C9.59781 23.8028 10.3359 26.9386 11.7639 29.7776C13.1918 32.6165 15.2693 35.0786 17.8276 36.9638C18.4849 37.4671 19.0162 38.1163 19.3797 38.8602C19.7431 39.604 19.9288 40.4221 19.922 41.25V41.4844H40.0783V41.25C40.0715 40.4221 40.2571 39.604 40.6206 38.8602C40.9841 38.1163 41.5154 37.4671 42.1726 36.9638C44.7309 35.0786 46.8085 32.6165 48.2364 29.7776C49.6644 26.9386 50.4025 23.8028 50.3908 20.625C50.3846 15.219 48.2343 10.0361 44.4116 6.2135C40.589 2.39086 35.4062 0.240578 30.0001 0.234375ZM43.5142 21.5906C43.2714 21.9244 37.4804 29.7656 30.0001 29.7656C22.5198 29.7656 16.7289 21.9244 16.4861 21.5906C16.2818 21.3101 16.1718 20.972 16.1718 20.625C16.1718 20.278 16.2818 19.9399 16.4861 19.6594C16.7289 19.3256 22.5198 11.4844 30.0001 11.4844C37.4804 11.4844 43.2714 19.3256 43.5142 19.6594C43.7184 19.9399 43.8285 20.278 43.8285 20.625C43.8285 20.972 43.7184 21.3101 43.5142 21.5906Z" fill="#76B728"/>
</g>
<defs>
<clipPath id="clip0_54_1240">
<rect width="60" height="60" fill="white"/>
</clipPath>
</defs>
</svg>
