<svg xmlns="http://www.w3.org/2000/svg" width="40" height="40" viewBox="0 0 40 40" fill="none">
  <g clip-path="url(#clip0_54_1358)">
    <path d="M20 40C31.0457 40 40 31.0457 40 20C40 8.9543 31.0457 0 20 0C8.9543 0 0 8.9543 0 20C0 31.0457 8.9543 40 20 40Z" fill="#00C17D"/>
    <path d="M28.818 11.1821C26.7372 9.08047 23.9738 7.79163 21.0264 7.54802C18.079 7.30442 15.1416 8.12208 12.7439 9.85352C10.3463 11.585 8.64629 14.1162 7.95059 16.9907C7.25488 19.8651 7.60926 22.8936 8.94981 25.5298L7.6339 31.9184C7.62024 31.982 7.61986 32.0477 7.63276 32.1115C7.64567 32.1752 7.67158 32.2356 7.7089 32.2889C7.76356 32.3697 7.84158 32.432 7.93254 32.4673C8.02351 32.5026 8.12309 32.5094 8.21799 32.4866L14.4794 31.0025C17.1081 32.3091 20.1152 32.6407 22.9655 31.9383C25.8158 31.2359 28.3245 29.545 30.0452 27.1665C31.7658 24.7881 32.5868 21.8763 32.3621 18.9493C32.1374 16.0223 30.8815 13.27 28.818 11.1821ZM26.8657 26.7639C25.426 28.1996 23.5721 29.1473 21.5652 29.4735C19.5583 29.7996 17.4997 29.4879 15.6794 28.5821L14.8066 28.1502L10.968 29.0593L10.9794 29.0116L11.7748 25.148L11.3475 24.3048C10.4174 22.4781 10.0893 20.404 10.4102 18.3794C10.7311 16.3549 11.6845 14.4838 13.1339 13.0343C14.955 11.2138 17.4247 10.191 19.9998 10.191C22.5749 10.191 25.0446 11.2138 26.8657 13.0343C26.8812 13.0521 26.8979 13.0688 26.9157 13.0843C28.7143 14.9096 29.7183 17.3719 29.709 19.9344C29.6996 22.4969 28.6776 24.9518 26.8657 26.7639Z" fill="white"/>
    <path d="M26.5249 23.9289C26.0545 24.6698 25.3113 25.5766 24.3772 25.8016C22.7408 26.197 20.2295 25.8152 17.1045 22.9016L17.0658 22.8675C14.3181 20.3198 13.6045 18.1993 13.7772 16.5175C13.8727 15.5629 14.6681 14.6993 15.3386 14.1357C15.4446 14.0452 15.5703 13.9808 15.7056 13.9476C15.8409 13.9144 15.9822 13.9133 16.118 13.9445C16.2538 13.9756 16.3805 14.0381 16.4879 14.1269C16.5952 14.2158 16.6803 14.3285 16.7363 14.4561L17.7477 16.7289C17.8134 16.8762 17.8377 17.0387 17.8181 17.1989C17.7985 17.359 17.7356 17.5108 17.6363 17.6379L17.1249 18.3016C17.0152 18.4386 16.949 18.6053 16.9348 18.7803C16.9206 18.9553 16.9592 19.1305 17.0454 19.2834C17.3317 19.7857 18.0181 20.5243 18.7795 21.2084C19.634 21.9811 20.5817 22.6879 21.1817 22.9289C21.3423 22.9944 21.5188 23.0105 21.6885 22.9748C21.8583 22.9392 22.0134 22.8535 22.134 22.7289L22.7272 22.1311C22.8417 22.0183 22.984 21.9378 23.1397 21.8978C23.2954 21.8579 23.4589 21.86 23.6136 21.9039L26.0158 22.5857C26.1484 22.6263 26.2698 22.6967 26.3709 22.7915C26.4721 22.8863 26.5502 23.003 26.5993 23.1326C26.6484 23.2622 26.6673 23.4013 26.6544 23.5393C26.6415 23.6774 26.5972 23.8106 26.5249 23.9289Z" fill="white"/>
  </g>
  <defs>
    <clipPath id="clip0_54_1358">
      <rect width="40" height="40" fill="white"/>
    </clipPath>
  </defs>
</svg>