<svg width="63" height="60" viewBox="0 0 63 60" fill="none" xmlns="http://www.w3.org/2000/svg">
<path d="M50.0315 12.9891C49.8493 14.0321 49.6453 14.8727 49.5761 15.7243C49.543 16.2198 49.6289 16.7161 49.8266 17.1717C50.1402 17.8863 50.56 18.5586 50.9783 19.2214C51.2216 19.6069 51.2337 19.9319 50.9618 20.2887C50.8655 20.4308 50.7787 20.5792 50.702 20.7327C49.388 23.0395 49.37 23.0431 49.8988 25.6751C50.0391 26.3733 49.9775 26.8942 49.3115 27.2805C47.5565 28.2984 46.7538 29.8714 46.703 31.8679C46.6878 32.4646 46.439 32.8756 45.7997 32.9944C43.709 33.383 42.3147 34.6058 41.5554 36.5761C41.3645 37.0716 41.0272 37.3146 40.4783 37.2254C40.3355 37.2022 40.1805 37.2533 40.0379 37.2297C38.1329 36.9136 36.6017 37.5935 35.3492 38.9945C34.8817 39.5175 34.3732 39.6644 33.7409 39.3071C31.9844 38.3145 30.2225 38.3206 28.4666 39.3087C27.836 39.6635 27.3216 39.5302 26.8543 39.0035C25.5845 37.5722 24.0236 36.9037 22.0954 37.2319C21.2806 37.3706 20.7444 37.0586 20.4545 36.2748C19.7894 34.477 18.4752 33.4289 16.6141 33.0714C15.8087 32.9167 15.4779 32.4497 15.4536 31.6674C15.396 29.8104 14.6445 28.3341 13.0021 27.3879C12.2099 26.9315 12.0382 26.2965 12.3435 25.4791C12.3519 25.4565 12.3481 25.4294 12.3566 25.4068C13.0668 23.5254 12.4017 21.9292 11.3093 20.4307C10.9842 19.9848 10.9023 19.5809 11.2789 19.1162C12.628 17.4517 12.9648 15.6042 12.254 13.5699C12.0829 13.0802 12.1893 12.6594 12.6796 12.3887C12.7639 12.3421 12.824 12.2527 12.9073 12.2032C14.6278 11.1805 15.4346 9.64012 15.4762 7.66902C15.4906 6.98822 15.8179 6.61377 16.4918 6.47125C18.4043 6.06682 19.8177 5.03974 20.5003 3.14524C20.7648 2.41093 21.2862 2.14484 22.0406 2.2646C23.95 2.56768 25.5407 1.98983 26.8127 0.53105C27.3134 -0.0449971 27.8736 -0.15965 28.5509 0.223191C30.2611 1.18991 31.9805 1.16609 33.6863 0.210402C34.3402 -0.155968 34.874 -0.0368144 35.3601 0.512764C36.6315 1.9503 38.2036 2.59066 40.1254 2.26474C40.9162 2.13061 41.4301 2.43757 41.715 3.18846C42.3902 4.96801 43.6599 6.05534 45.5402 6.40663C46.3537 6.55861 46.7518 7.02901 46.7373 7.86654C46.7005 9.98216 47.9329 11.3182 49.543 12.431C49.7709 12.5886 49.9208 12.8591 50.0315 12.9891ZM31.1278 6.591C23.7171 6.6383 17.9173 12.4638 17.9348 19.8425C17.9519 27.0834 23.8783 32.9342 31.1705 32.9094C38.4013 32.8848 44.2877 26.9717 44.2546 19.766C44.221 12.4422 38.3453 6.54493 31.1278 6.591Z" fill="#76B728"/>
<path d="M13.6244 30.0996C13.8454 31.2961 14.0354 32.2698 14.2009 33.2477C14.2672 33.6399 14.4121 33.8882 14.8291 34.0307C15.9174 34.4025 17.1732 34.6093 18.0078 35.3062C18.8426 36.0032 19.2684 37.2028 19.8311 38.2059C20.0527 38.6009 20.3042 38.7619 20.7587 38.741C21.5409 38.705 22.3259 38.731 23.289 38.731L11.0166 59.9894C10.958 59.9812 10.8994 59.9729 10.8408 59.9646C10.746 56.0663 10.6511 52.168 10.5525 48.1162L0.118064 53.7944L0 53.6952C4.50596 45.8915 9.01193 38.0878 13.6244 30.0996Z" fill="#76B728"/>
<path d="M51.6332 48.1083C51.5359 52.164 51.4426 56.0555 51.3493 59.947L51.1797 60.0006C47.1125 52.9577 43.0453 45.9149 38.8975 38.7324C39.8415 38.7324 40.6434 38.7751 41.4366 38.7107C41.7395 38.6861 42.1316 38.4891 42.2953 38.2448C42.9489 37.2703 43.3393 36.022 44.1896 35.3044C45.0188 34.6047 46.3015 34.4555 47.3592 34.004C47.499 33.933 47.623 33.8344 47.7236 33.7141C47.8243 33.5939 47.8996 33.4545 47.9449 33.3044C48.1802 32.3293 48.332 31.3342 48.5611 30.0996C53.1681 38.0763 57.6752 45.8802 62.1824 53.6842C62.153 53.723 62.1237 53.7619 62.0944 53.8008L51.6332 48.1083Z" fill="#76B728"/>
<path d="M21.1037 16.7539C23.3838 16.7539 25.6641 16.7351 27.9438 16.7672C28.5063 16.7752 28.7462 16.6027 28.9189 16.0588C29.5834 13.9655 30.3093 11.8917 31.0704 9.63867C31.2208 10.0119 31.3168 10.2204 31.3901 10.4366C32.0195 12.2929 32.666 14.1439 33.2581 16.0121C33.4322 16.5614 33.6531 16.7862 34.2714 16.7718C36.3076 16.7243 38.3456 16.7539 40.383 16.7539C40.6212 16.7539 40.8595 16.7539 41.3047 16.7539C40.946 17.0345 40.7519 17.2003 40.544 17.3467C38.9193 18.4906 37.3083 19.6552 35.6561 20.7579C35.1231 21.1137 35.0554 21.4319 35.2634 22.0116C35.9335 23.8785 36.5414 25.7677 37.171 27.649C37.2315 27.83 37.2766 28.0162 37.3789 28.376C36.7516 27.9415 36.2603 27.6047 35.7727 27.2627C34.4071 26.3047 33.0252 25.3685 31.6883 24.3721C31.2256 24.0272 30.9295 24.07 30.4858 24.3913C28.6621 25.712 26.8077 26.9902 24.8186 28.3865C24.915 28.0276 24.9578 27.8275 25.0222 27.6346C25.6666 25.7063 26.2993 23.7739 26.9725 21.8556C27.1381 21.3835 27.077 21.1266 26.6461 20.8348C24.9606 19.6931 23.3054 18.5068 21.6401 17.3353C21.4447 17.1978 21.2568 17.0495 21.0654 16.9062L21.1037 16.7539Z" fill="#76B728"/>
</svg>
