<svg width="60" height="60" viewBox="0 0 60 60" fill="none" xmlns="http://www.w3.org/2000/svg">
<path d="M29.6366 59.9952C26.5415 59.9957 23.4465 59.9954 20.3515 59.9943C17.9151 59.9899 16.5632 58.5537 16.4545 56.1293C16.3175 53.0753 16.956 50.2709 18.6757 47.727C20.1938 45.4895 22.356 43.7661 24.8758 42.7854C27.3956 41.8046 30.1539 41.6128 32.7852 42.2353C37.9908 43.4362 42.1074 47.8731 42.8404 53.2032C42.99 54.4732 42.9955 55.7561 42.8568 57.0273C42.6993 58.7487 41.1557 59.9784 39.2811 59.9894C36.0663 60.0084 32.8514 59.9947 29.6366 59.9952Z" fill="#76B728"/>
<path d="M36.419 33.9569C36.4178 35.2873 36.0217 36.5874 35.2809 37.6925C34.5401 38.7976 33.488 39.658 32.2578 40.1646C31.0276 40.6712 29.6748 40.8013 28.3706 40.5384C27.0664 40.2754 25.8696 39.6313 24.9319 38.6876C23.9941 37.7439 23.3575 36.5431 23.1028 35.2373C22.8481 33.9315 22.9867 32.5795 23.5011 31.3525C24.0155 30.1255 24.8824 29.0789 25.9922 28.3451C27.102 27.6113 28.4045 27.2234 29.7349 27.2306C31.513 27.2369 33.2158 27.949 34.4692 29.2103C35.7225 30.4715 36.4238 32.1788 36.419 33.9569Z" fill="#76B728"/>
<path d="M44.8287 53.4555C44.5491 51.0905 43.7267 48.8222 42.4258 46.8275C43.503 45.5913 44.8841 44.6576 46.4328 44.1187C47.685 43.6677 49.0148 43.4722 50.3439 43.5437C51.6729 43.6151 52.9741 43.9522 54.1707 44.5348C55.3673 45.1175 56.4351 45.9341 57.3109 46.9362C58.1867 47.9384 58.8529 49.1058 59.27 50.3697C59.8032 51.9863 58.7788 53.4721 57.0889 53.4784C53.1346 53.4932 49.1802 53.4833 45.2258 53.4821C45.1087 53.4821 44.9915 53.4668 44.8287 53.4555Z" fill="#76B728"/>
<path d="M16.8974 46.743C16.3733 47.8688 15.8026 48.905 15.4041 50.0037C15.0057 51.1021 14.7797 52.2631 14.455 53.4833H13.959C10.1442 53.4833 6.32929 53.483 2.51441 53.4825C0.542903 53.4811 -0.455018 52.0494 0.200625 50.1721C2.59325 43.3215 11.399 41.2794 16.5597 46.3792C16.7001 46.5179 16.8285 46.6685 16.8974 46.743Z" fill="#76B728"/>
<path d="M3.04886 23.7842C3.36429 22.6126 3.65867 21.515 3.95555 20.4181C4.10141 19.8792 4.22384 19.3317 4.40886 18.8063C4.56753 18.3559 4.45348 18.0719 4.08227 17.7835C2.8367 16.8156 1.60667 15.828 0.39218 14.8205C0.207222 14.6675 0.129353 14.385 0.00195312 14.1624C0.22646 14.0721 0.446928 13.9164 0.676125 13.9022C2.23074 13.8064 3.78667 13.7233 5.34338 13.6746C5.85477 13.6586 6.1309 13.4811 6.30771 12.9868C6.83806 11.5038 7.40662 10.0342 7.98718 8.57007C8.06871 8.36445 8.30072 8.2185 8.46307 8.04492C8.62353 8.22294 8.85075 8.37445 8.93362 8.58326C9.47786 9.95453 9.99173 11.3379 10.5139 12.7179C10.864 13.643 10.8632 13.6346 11.8812 13.6792C13.3576 13.7439 14.834 13.8129 16.3086 13.9072C16.5121 13.9202 16.7056 14.0883 16.9038 14.1847C16.801 14.3808 16.7453 14.634 16.5879 14.7641C15.3408 15.794 14.0812 16.8086 12.8089 17.8078C12.4574 18.083 12.3728 18.3537 12.4961 18.7843C12.9403 20.337 13.3563 21.8981 13.7581 23.4624C13.809 23.6607 13.7128 23.8968 13.6847 24.1154C13.4673 24.081 13.2094 24.1104 13.039 24.0021C11.708 23.1569 10.3822 22.3022 9.08082 21.4124C8.63953 21.1107 8.31121 21.0813 7.85267 21.3974C6.5384 22.3033 5.19133 23.162 3.8444 24.0193C3.66317 24.1152 3.45465 24.1465 3.25326 24.1079C3.1589 24.0916 3.09982 23.8712 3.04886 23.7842Z" fill="#76B728"/>
<path d="M45.4779 23.7746C45.6793 23.0206 45.8572 22.3462 46.04 21.673C46.3062 20.6919 46.5576 19.7062 46.8528 18.7338C46.9786 18.3194 46.8658 18.0706 46.5397 17.8148C45.2989 16.8416 44.07 15.8534 42.8531 14.85C42.6608 14.6913 42.5601 14.4214 42.417 14.2029C42.6506 14.0987 42.8793 13.9181 43.1187 13.9025C44.6126 13.805 46.1083 13.7193 47.6047 13.6836C48.2227 13.6689 48.5707 13.4914 48.7834 12.8601C49.2668 11.4256 49.8304 10.0174 50.392 8.61077C50.4803 8.38942 50.7286 8.23194 50.903 8.04492C51.0611 8.22714 51.2834 8.38401 51.367 8.59566C51.9456 10.06 52.5173 11.528 53.0416 13.0123C53.2123 13.4954 53.4801 13.6532 53.9605 13.6705C55.5365 13.7272 57.1117 13.8053 58.6859 13.9046C58.9057 13.9185 59.1151 14.0952 59.3294 14.1965C59.206 14.4045 59.1275 14.6666 58.9521 14.8117C57.7527 15.8043 56.5439 16.7864 55.3135 17.7401C54.9088 18.0538 54.7892 18.3524 54.94 18.8599C55.3715 20.3117 55.7601 21.7767 56.1316 23.2452C56.2005 23.5176 56.1107 23.8301 56.0942 24.1241C55.8101 24.0399 55.4889 24.0142 55.2479 23.8617C53.9497 23.0403 52.6642 22.1992 51.3912 21.3383C51.0203 21.0876 50.7399 21.0933 50.3681 21.3443C49.0122 22.2596 47.6372 23.1469 46.2592 24.0287C46.0991 24.1297 45.9065 24.1658 45.7207 24.1297C45.6031 24.0963 45.5396 23.8724 45.4779 23.7746Z" fill="#76B728"/>
<path d="M29.6962 7.83203C29.9235 8.16586 30.0865 8.33147 30.1637 8.53039C30.7405 10.0178 31.3167 11.506 31.8559 13.0073C32.0239 13.475 32.2828 13.6553 32.7723 13.6719C34.3692 13.7261 35.9654 13.8092 37.5603 13.908C37.7645 13.9207 37.9589 14.0914 38.1578 14.189C38.052 14.3836 37.9918 14.6334 37.8333 14.7641C36.5851 15.7932 35.3247 16.8074 34.0522 17.8068C33.704 18.0797 33.6124 18.3394 33.7399 18.7784C34.1845 20.3105 34.591 21.854 34.9859 23.3999C35.0417 23.6184 34.9526 23.8739 34.9307 24.1122C34.6961 24.069 34.4203 24.0907 34.2335 23.9722C32.9187 23.1382 31.6091 22.2944 30.327 21.4114C29.8817 21.1047 29.5517 21.0844 29.098 21.3964C27.8153 22.2786 26.5048 23.1209 25.1907 23.956C24.9993 24.0776 24.7282 24.0738 24.494 24.128C24.4651 23.8753 24.361 23.6035 24.4193 23.3729C24.806 21.8457 25.2072 20.3214 25.6499 18.8096C25.7849 18.349 25.695 18.0738 25.3266 17.7858C24.0679 16.8017 22.8256 15.7963 21.5917 14.7813C21.4269 14.6458 21.3462 14.408 21.2266 14.2176C21.4392 14.11 21.6468 13.9216 21.8654 13.9076C23.44 13.8068 25.0164 13.7255 26.5934 13.6736C27.1035 13.6569 27.3761 13.4811 27.5529 12.9813C28.0781 11.4964 28.6535 10.029 29.2248 8.56079C29.3077 8.34777 29.4754 8.16775 29.6962 7.83203Z" fill="#76B728"/>
<path d="M44.7891 37.1498C44.7903 35.8175 45.3199 34.54 46.2618 33.5976C47.2037 32.6552 48.4809 32.1249 49.8133 32.1231C51.1456 32.1212 52.4244 32.6479 53.3689 33.5876C54.3134 34.5273 54.8467 35.8033 54.8516 37.1357C54.8532 37.7968 54.7244 38.4517 54.4727 39.063C54.221 39.6743 53.8513 40.2301 53.3847 40.6984C52.9181 41.1668 52.3638 41.5386 51.7534 41.7926C51.143 42.0466 50.4886 42.1778 49.8274 42.1787C49.1663 42.1797 48.5115 42.0503 47.9004 41.798C47.2894 41.5457 46.734 41.1755 46.2661 40.7085C45.7981 40.2414 45.4268 39.6867 45.1734 39.0761C44.92 38.4655 44.7894 37.811 44.7891 37.1498Z" fill="#76B728"/>
<path d="M9.58062 32.1231C10.9133 32.1232 12.1915 32.6525 13.1341 33.5946C14.0768 34.5366 14.607 35.8144 14.608 37.1471C14.6091 38.4798 14.0811 39.7584 13.14 40.702C12.1988 41.6456 10.9216 42.177 9.58884 42.1793C8.92756 42.1814 8.27236 42.053 7.66076 41.8015C7.04917 41.55 6.49319 41.1803 6.02467 40.7137C5.55614 40.247 5.18428 39.6925 4.93036 39.0819C4.67644 38.4713 4.54546 37.8166 4.54492 37.1553C4.54438 36.494 4.67429 35.8391 4.92721 35.2281C5.18013 34.6171 5.55109 34.062 6.01885 33.5945C6.48661 33.1271 7.04198 32.7565 7.65317 32.504C8.26435 32.2515 8.91934 32.1221 9.58062 32.1231Z" fill="#76B728"/>
<path d="M39.3037 4.94336C39.5424 5.13251 39.9388 5.29406 40.0326 5.56168C40.1376 5.8614 40.0996 6.39114 39.8972 6.58892C38.7592 7.70107 37.5645 8.75664 36.3634 9.80191C36.2706 9.87912 36.1632 9.93689 36.0477 9.9718C35.9321 10.0067 35.8107 10.018 35.6906 10.0051C35.5706 9.99219 35.4544 9.95528 35.3489 9.89658C35.2434 9.83788 35.1508 9.75858 35.0765 9.66339C34.743 9.25043 34.7192 8.77784 35.0995 8.42017C36.2594 7.32942 37.4522 6.27352 38.645 5.21848C38.7826 5.09678 39.0005 5.06588 39.3037 4.94336Z" fill="#76B728"/>
<path d="M20.0981 4.90039C20.4554 5.09437 20.7267 5.18462 20.9244 5.3585C22.0018 6.30593 23.0684 7.26553 24.1244 8.2373C24.6174 8.68862 24.671 9.23555 24.2978 9.66075C23.931 10.0788 23.3448 10.096 22.8634 9.6692C21.7749 8.70419 20.7006 7.72319 19.6165 6.75325C19.2659 6.4396 19.1029 6.0321 19.3162 5.63169C19.4716 5.34 19.8191 5.15069 20.0981 4.90039Z" fill="#76B728"/>
<path d="M30.6563 2.68433C30.6565 3.24198 30.6666 3.79987 30.6538 4.35722C30.6388 5.00714 30.2497 5.42006 29.6849 5.41238C29.1412 5.40499 28.7524 5.00647 28.7442 4.39132C28.7292 3.2563 28.7274 2.12075 28.7451 0.985805C28.7547 0.370759 29.1498 -0.00651228 29.7107 8.51335e-05C30.2673 0.00663938 30.6353 0.388095 30.6528 1.01147C30.6685 1.56868 30.6561 2.12668 30.6563 2.68433Z" fill="#76B728"/>
</svg>
