<svg width="60" height="60" viewBox="0 0 60 60" fill="none" xmlns="http://www.w3.org/2000/svg">
<path d="M11.2333 1.86346C10.9863 1.8683 10.7512 1.97047 10.579 2.14774C10.4069 2.32501 10.3117 2.56309 10.3142 2.81016V3.75319H9.37116C9.34127 3.75176 9.31133 3.75176 9.28144 3.75319C9.03681 3.77055 8.80868 3.88296 8.64584 4.06635C8.48301 4.24974 8.39841 4.48953 8.41013 4.7345C8.42186 4.97947 8.52897 5.21013 8.70857 5.37714C8.88817 5.54414 9.12599 5.6342 9.37116 5.62811H10.3142V6.56195C10.3114 6.68682 10.3336 6.81106 10.3795 6.92723C10.4253 7.04339 10.4939 7.14914 10.5813 7.23843C10.6686 7.32772 10.7729 7.39869 10.888 7.44713C11.0031 7.49556 11.1268 7.52055 11.2517 7.52055C11.3766 7.52055 11.5002 7.49556 11.6153 7.44713C11.7304 7.39869 11.8347 7.32772 11.922 7.23843C12.0094 7.14914 12.078 7.04339 12.1239 6.92723C12.1697 6.81106 12.1919 6.68682 12.1892 6.56195V5.62811H13.123C13.2479 5.63096 13.3721 5.60885 13.4884 5.56302C13.6046 5.51718 13.7105 5.44858 13.7998 5.36124C13.8892 5.27391 13.9602 5.16962 14.0086 5.05447C14.0571 4.93931 14.0821 4.81565 14.0821 4.69071C14.0821 4.56577 14.0571 4.442 14.0086 4.32684C13.9602 4.21168 13.8892 4.1074 13.7998 4.02007C13.7105 3.93273 13.6046 3.86413 13.4884 3.81829C13.3721 3.77245 13.2479 3.75035 13.123 3.75319H12.1892V2.81016C12.1904 2.68473 12.1664 2.56026 12.1187 2.44424C12.071 2.32823 12.0005 2.22304 11.9114 2.13476C11.8223 2.04649 11.7163 1.97699 11.5999 1.93039C11.4834 1.8838 11.3588 1.86102 11.2333 1.86346ZM48.7352 1.86346C48.4881 1.8683 48.253 1.97047 48.0809 2.14774C47.9087 2.32501 47.8136 2.56309 47.816 2.81016V3.75319H46.8748C46.8449 3.75176 46.815 3.75176 46.7851 3.75319C46.5405 3.77055 46.3123 3.88296 46.1495 4.06635C45.9867 4.24974 45.9021 4.48953 45.9138 4.7345C45.9255 4.97947 46.0326 5.21013 46.2122 5.37714C46.3918 5.54414 46.6297 5.6342 46.8748 5.62811H47.816V6.56195C47.8043 6.69163 47.8198 6.82236 47.8615 6.94572C47.9031 7.06908 47.97 7.18235 48.0578 7.27844C48.1457 7.37453 48.2526 7.45129 48.3717 7.50379C48.4909 7.5563 48.6196 7.58349 48.7498 7.58349C48.88 7.58349 49.0088 7.5563 49.1279 7.50379C49.2471 7.45129 49.354 7.37453 49.4418 7.27844C49.5297 7.18235 49.5965 7.06908 49.6382 6.94572C49.6798 6.82236 49.6953 6.69163 49.6837 6.56195V5.62811H50.6248C50.7497 5.63096 50.874 5.60885 50.9902 5.56302C51.1064 5.51718 51.2123 5.44858 51.3017 5.36124C51.391 5.27391 51.462 5.16962 51.5105 5.05447C51.5589 4.93931 51.5839 4.81565 51.5839 4.69071C51.5839 4.56577 51.5589 4.442 51.5105 4.32684C51.462 4.21168 51.391 4.1074 51.3017 4.02007C51.2123 3.93273 51.1064 3.86413 50.9902 3.81829C50.874 3.77245 50.7497 3.75035 50.6248 3.75319H49.6837V2.81016C49.6849 2.68536 49.6612 2.56149 49.6139 2.44597C49.5666 2.33045 49.4968 2.22553 49.4085 2.13736C49.3201 2.04919 49.2151 1.97959 49.0994 1.93256C48.9838 1.88552 48.86 1.862 48.7352 1.86346ZM20.8171 1.87762L25.1988 9.5315L29.4505 1.87762H20.8171ZM30.5528 1.87762L34.7789 9.49301L36.5916 6.31433L39.1203 1.87762H30.5528ZM40.598 3.07704L36.4653 10.3151H44.6135L40.598 3.07704ZM19.376 3.1337L15.3844 10.315H23.4886L19.376 3.1337ZM30.0017 4.74315L26.9072 10.315H33.098L30.0017 4.74315ZM15.5162 12.1901L28.9525 27.419L29.0202 27.1883L24.6074 12.1902L15.5162 12.1901ZM26.5648 12.1901L29.998 23.8667L33.4331 12.1901H26.5648ZM35.3886 12.1901L30.9758 27.1882L31.0436 27.4207L44.4817 12.19L35.3886 12.1901ZM18.7352 22.4879C18.4881 22.4927 18.253 22.5949 18.0809 22.7722C17.9087 22.9495 17.8136 23.1875 17.816 23.4346V24.3775H16.873C16.8431 24.3761 16.8132 24.3761 16.7833 24.3775C16.5385 24.3947 16.3102 24.507 16.1472 24.6905C15.9842 24.8739 15.8995 25.1138 15.9112 25.359C15.9229 25.6041 16.0301 25.8349 16.2099 26.0019C16.3897 26.1689 16.6277 26.2589 16.873 26.2526H17.816V27.1864C17.8132 27.3113 17.8354 27.4355 17.8813 27.5517C17.9272 27.6678 17.9958 27.7736 18.0831 27.8629C18.1704 27.9522 18.2747 28.0231 18.3898 28.0716C18.505 28.12 18.6286 28.145 18.7535 28.145C18.8784 28.145 19.002 28.12 19.1171 28.0716C19.2323 28.0231 19.3366 27.9522 19.4239 27.8629C19.5112 27.7736 19.5798 27.6678 19.6257 27.5517C19.6716 27.4355 19.6938 27.3113 19.691 27.1864V26.2526H20.6248C20.7497 26.2553 20.8738 26.2331 20.9899 26.1873C21.1061 26.1414 21.2119 26.0727 21.3011 25.9854C21.3904 25.898 21.4613 25.7938 21.5097 25.6787C21.5582 25.5636 21.5831 25.4399 21.5831 25.315C21.5831 25.1902 21.5582 25.0666 21.5097 24.9515C21.4613 24.8364 21.3904 24.7322 21.3011 24.6448C21.2119 24.5575 21.1061 24.4888 20.9899 24.443C20.8738 24.3971 20.7497 24.3748 20.6248 24.3775H19.691V23.4346C19.6922 23.3092 19.6683 23.1848 19.6206 23.0688C19.5729 22.9528 19.5024 22.8475 19.4132 22.7592C19.3241 22.6709 19.2182 22.6014 19.1017 22.5548C18.9852 22.5082 18.8606 22.4855 18.7352 22.4879ZM41.2333 22.4879C40.9863 22.4927 40.7512 22.5949 40.579 22.7722C40.4069 22.9495 40.3117 23.1875 40.3142 23.4346V24.3775H39.373C39.3431 24.3761 39.3132 24.3761 39.2833 24.3775C39.0385 24.3947 38.8102 24.507 38.6472 24.6905C38.4842 24.8739 38.3995 25.1138 38.4112 25.359C38.4229 25.6041 38.5301 25.8349 38.7099 26.0019C38.8897 26.1689 39.1277 26.2589 39.373 26.2526H40.3142V27.1864C40.3114 27.3113 40.3336 27.4355 40.3795 27.5517C40.4253 27.6678 40.4939 27.7736 40.5813 27.8629C40.6686 27.9522 40.7729 28.0231 40.888 28.0716C41.0031 28.12 41.1268 28.145 41.2517 28.145C41.3765 28.145 41.5002 28.12 41.6153 28.0716C41.7304 28.0231 41.8347 27.9522 41.922 27.8629C42.0094 27.7736 42.078 27.6678 42.1238 27.5517C42.1697 27.4355 42.1919 27.3113 42.1892 27.1864V26.2526H43.123C43.2478 26.2553 43.372 26.2331 43.4881 26.1873C43.6042 26.1414 43.71 26.0727 43.7993 25.9854C43.8886 25.898 43.9595 25.7938 44.0079 25.6787C44.0563 25.5636 44.0813 25.4399 44.0813 25.315C44.0813 25.1902 44.0563 25.0666 44.0079 24.9515C43.9595 24.8364 43.8886 24.7322 43.7993 24.6448C43.71 24.5575 43.6042 24.4888 43.4881 24.443C43.372 24.3971 43.2478 24.3748 43.123 24.3775H42.1892V23.4346C42.1904 23.3092 42.1664 23.1848 42.1187 23.0688C42.071 22.9528 42.0005 22.8475 41.9114 22.7592C41.8223 22.6709 41.7163 22.6014 41.5999 22.5548C41.4834 22.5082 41.3588 22.4855 41.2333 22.4879ZM53.7706 25.5001C52.6329 25.5 51.4924 25.9362 50.6285 26.8C48.6497 28.7788 46.671 30.7576 44.6922 32.7363C45.4714 33.8152 45.9373 35.1346 45.9373 36.5651C45.9373 40.1845 42.9961 43.1258 39.3767 43.1258H29.0642C27.7022 43.248 27.7022 41.1358 29.0642 41.2581H39.3767C41.9897 41.2581 44.0623 39.1782 44.0623 36.5651C44.0623 35.6453 43.794 34.802 43.3446 34.0858C42.5179 32.7804 41.0644 31.9052 39.3767 31.8795L19.6873 31.8812C15.7021 31.8816 13.4908 33.9439 11.638 35.7924L24.6532 48.8057C24.8553 48.7738 25.0691 48.7525 25.3142 48.7525H41.2517C44.4729 48.7525 47.1651 47.1618 49.0721 44.4001C51.2196 41.2902 55.2406 35.4712 57.017 32.9523C57.6636 32.0354 58.0776 30.9859 58.1175 29.8945C58.1572 28.8031 57.7798 27.667 56.9127 26.7999C56.0488 25.9361 54.9083 25.5001 53.7706 25.5001ZM8.47212 35.602C8.24083 35.5913 7.99833 35.6785 7.77631 35.9003L2.15131 41.5271C1.7829 41.8936 1.7829 42.49 2.15131 42.8565L17.155 57.8529C17.5207 58.2164 18.1113 58.2164 18.477 57.8529L24.102 52.226C24.4655 51.8603 24.4655 51.2697 24.102 50.904L9.09834 35.9003C8.92346 35.7253 8.7034 35.6137 8.47212 35.602Z" fill="#76B728"/>
</svg>
