<svg width="60" height="60" viewBox="0 0 60 60" fill="none" xmlns="http://www.w3.org/2000/svg">
<g clip-path="url(#clip0_54_1212)">
<path d="M39.026 13.4856V18.8566L28.9808 28.9017C28.3857 29.4767 28.3692 30.4247 28.9437 31.0198C29.5187 31.6144 30.4667 31.6309 31.0618 31.0564C31.0742 31.0445 31.0865 31.0322 31.0984 31.0198L41.144 20.9742H46.5145C46.9118 20.9742 47.2927 20.8167 47.5733 20.5357L56.5597 11.5493C57.1447 10.9643 57.1447 10.0158 56.5597 9.43078C56.2786 9.15017 55.8977 8.9927 55.5008 8.99224H51.0079V4.4993C51.0074 3.67212 50.3368 3.00195 49.5096 3.00195C49.1128 3.00195 48.7319 3.15988 48.4508 3.44049L39.4645 12.4268C39.1839 12.7074 39.026 13.0888 39.026 13.4856Z" fill="#76B728"/>
<path d="M34.7163 18.9296C28.6221 16.3441 21.5863 19.1891 19.0009 25.2833C16.4154 31.3775 19.2604 38.4138 25.3546 40.9988C31.4488 43.5842 38.4851 40.7397 41.0701 34.645C42.3395 31.6536 42.3395 28.2748 41.0701 25.2833L33.2172 33.1363C31.4877 34.916 28.6432 34.9572 26.8634 33.2283C25.0836 31.4988 25.0424 28.6543 26.7714 26.8745C26.8016 26.8434 26.8323 26.8132 26.8634 26.783L34.7163 18.9296Z" fill="#76B728"/>
<path d="M56.4637 15.8817L51.9822 20.3628C57.3069 32.5054 51.7803 46.6654 39.6377 51.9901C27.4955 57.3148 13.3355 51.7878 8.01035 39.6456C2.68565 27.503 8.21268 13.343 20.3553 8.01829C26.5003 5.32344 33.4927 5.32344 39.6377 8.01829L44.1182 3.53633C29.5028 -4.26075 11.3337 1.26628 3.53663 15.8817C-4.2609 30.4967 1.26613 48.6663 15.8816 56.4638C30.497 64.2609 48.6661 58.7339 56.4637 44.1184C61.1708 35.2946 61.1708 24.7056 56.4637 15.8817Z" fill="#76B728"/>
<path d="M36.031 13.4853C36.0291 12.3016 36.497 11.1654 37.3324 10.3268C26.4422 6.25267 14.3115 11.7779 10.2369 22.6681C6.16283 33.5582 11.688 45.689 22.5782 49.7635C33.4684 53.8376 45.5991 48.3124 49.6737 37.4222C51.4534 32.6651 51.4534 27.4251 49.6737 22.6681C48.835 23.5035 47.6989 23.9718 46.5151 23.9695H43.7479C47.0873 31.5711 43.6326 40.4402 36.031 43.7796C28.4298 47.1195 19.5602 43.6643 16.2208 36.0631C12.881 28.4615 16.3362 19.5923 23.9373 16.2525C27.7912 14.5597 32.1775 14.5597 36.031 16.2525V13.4853Z" fill="#76B728"/>
</g>
<defs>
<clipPath id="clip0_54_1212">
<rect width="60" height="60" fill="white"/>
</clipPath>
</defs>
</svg>
