<svg width="240" height="40" viewBox="0 0 240 40" fill="none" xmlns="http://www.w3.org/2000/svg">
<path d="M66.688 20.488H61.84V25.456H59.296V20.488H54.448V18.184H59.296V13.216H61.84V18.184H66.688V20.488ZM73.9808 23.248C74.1408 24.048 74.4848 24.656 75.0128 25.072C75.5408 25.488 76.2528 25.696 77.1488 25.696C78.2848 25.696 79.1168 25.248 79.6448 24.352C80.1728 23.456 80.4368 21.928 80.4368 19.768C80.0528 20.312 79.5088 20.736 78.8048 21.04C78.1168 21.328 77.3648 21.472 76.5488 21.472C75.5088 21.472 74.5648 21.264 73.7168 20.848C72.8688 20.416 72.1968 19.784 71.7008 18.952C71.2208 18.104 70.9808 17.08 70.9808 15.88C70.9808 14.12 71.4928 12.72 72.5168 11.68C73.5568 10.624 74.9808 10.096 76.7888 10.096C78.9648 10.096 80.5088 10.824 81.4208 12.28C82.3488 13.72 82.8128 15.936 82.8128 18.928C82.8128 20.992 82.6368 22.68 82.2848 23.992C81.9488 25.304 81.3568 26.296 80.5088 26.968C79.6608 27.64 78.4848 27.976 76.9808 27.976C75.2688 27.976 73.9488 27.528 73.0208 26.632C72.0928 25.736 71.5728 24.608 71.4608 23.248H73.9808ZM77.0288 19.168C77.9888 19.168 78.7408 18.872 79.2848 18.28C79.8448 17.672 80.1248 16.872 80.1248 15.88C80.1248 14.776 79.8288 13.92 79.2368 13.312C78.6608 12.688 77.8688 12.376 76.8608 12.376C75.8528 12.376 75.0528 12.696 74.4608 13.336C73.8848 13.96 73.5968 14.784 73.5968 15.808C73.5968 16.784 73.8768 17.592 74.4368 18.232C75.0128 18.856 75.8768 19.168 77.0288 19.168ZM85.4472 13V10.504H90.4392V28H87.6792V13H85.4472ZM97.6058 23.248C97.7658 24.048 98.1098 24.656 98.6378 25.072C99.1658 25.488 99.8778 25.696 100.774 25.696C101.91 25.696 102.742 25.248 103.27 24.352C103.798 23.456 104.062 21.928 104.062 19.768C103.678 20.312 103.134 20.736 102.43 21.04C101.742 21.328 100.99 21.472 100.174 21.472C99.1338 21.472 98.1898 21.264 97.3418 20.848C96.4938 20.416 95.8218 19.784 95.3258 18.952C94.8458 18.104 94.6058 17.08 94.6058 15.88C94.6058 14.12 95.1178 12.72 96.1418 11.68C97.1818 10.624 98.6058 10.096 100.414 10.096C102.59 10.096 104.134 10.824 105.046 12.28C105.974 13.72 106.438 15.936 106.438 18.928C106.438 20.992 106.262 22.68 105.91 23.992C105.574 25.304 104.982 26.296 104.134 26.968C103.286 27.64 102.11 27.976 100.606 27.976C98.8938 27.976 97.5738 27.528 96.6458 26.632C95.7178 25.736 95.1978 24.608 95.0858 23.248H97.6058ZM100.654 19.168C101.614 19.168 102.366 18.872 102.91 18.28C103.47 17.672 103.75 16.872 103.75 15.88C103.75 14.776 103.454 13.92 102.862 13.312C102.286 12.688 101.494 12.376 100.486 12.376C99.4778 12.376 98.6778 12.696 98.0858 13.336C97.5098 13.96 97.2218 14.784 97.2218 15.808C97.2218 16.784 97.5018 17.592 98.0618 18.232C98.6378 18.856 99.5018 19.168 100.654 19.168ZM120.712 12.856H112.672V17.632C113.008 17.184 113.504 16.808 114.16 16.504C114.832 16.2 115.544 16.048 116.296 16.048C117.64 16.048 118.728 16.336 119.56 16.912C120.408 17.488 121.008 18.216 121.36 19.096C121.728 19.976 121.912 20.904 121.912 21.88C121.912 23.064 121.68 24.12 121.216 25.048C120.768 25.96 120.088 26.68 119.176 27.208C118.28 27.736 117.176 28 115.864 28C114.12 28 112.72 27.568 111.664 26.704C110.608 25.84 109.976 24.696 109.768 23.272H112.432C112.608 24.024 113 24.624 113.608 25.072C114.216 25.504 114.976 25.72 115.888 25.72C117.024 25.72 117.872 25.376 118.432 24.688C119.008 24 119.296 23.088 119.296 21.952C119.296 20.8 119.008 19.92 118.432 19.312C117.856 18.688 117.008 18.376 115.888 18.376C115.104 18.376 114.44 18.576 113.896 18.976C113.368 19.36 112.984 19.888 112.744 20.56H110.152V10.456H120.712V12.856ZM124.712 14.824C124.808 13.336 125.376 12.176 126.416 11.344C127.472 10.512 128.816 10.096 130.448 10.096C131.568 10.096 132.536 10.296 133.352 10.696C134.168 11.096 134.784 11.64 135.2 12.328C135.616 13.016 135.824 13.792 135.824 14.656C135.824 15.648 135.56 16.496 135.032 17.2C134.504 17.904 133.872 18.376 133.136 18.616V18.712C134.08 19 134.816 19.528 135.344 20.296C135.872 21.048 136.136 22.016 136.136 23.2C136.136 24.144 135.92 24.984 135.488 25.72C135.056 26.456 134.416 27.04 133.568 27.472C132.72 27.888 131.704 28.096 130.52 28.096C128.792 28.096 127.368 27.656 126.248 26.776C125.144 25.88 124.552 24.6 124.472 22.936H127.112C127.176 23.784 127.504 24.48 128.096 25.024C128.688 25.552 129.488 25.816 130.496 25.816C131.472 25.816 132.224 25.552 132.752 25.024C133.28 24.48 133.544 23.784 133.544 22.936C133.544 21.816 133.184 21.024 132.464 20.56C131.76 20.08 130.672 19.84 129.2 19.84H128.576V17.584H129.224C130.52 17.568 131.504 17.352 132.176 16.936C132.864 16.52 133.208 15.864 133.208 14.968C133.208 14.2 132.96 13.592 132.464 13.144C131.968 12.68 131.264 12.448 130.352 12.448C129.456 12.448 128.76 12.68 128.264 13.144C127.768 13.592 127.472 14.152 127.376 14.824H124.712ZM150.098 12.616L143.426 28H140.666L147.41 12.904H138.53V10.576H150.098V12.616ZM152.44 19.024C152.44 16.256 152.904 14.096 153.832 12.544C154.776 10.976 156.392 10.192 158.68 10.192C160.968 10.192 162.576 10.976 163.504 12.544C164.448 14.096 164.92 16.256 164.92 19.024C164.92 21.824 164.448 24.016 163.504 25.6C162.576 27.168 160.968 27.952 158.68 27.952C156.392 27.952 154.776 27.168 153.832 25.6C152.904 24.016 152.44 21.824 152.44 19.024ZM162.232 19.024C162.232 17.728 162.144 16.632 161.968 15.736C161.808 14.84 161.472 14.112 160.96 13.552C160.448 12.976 159.688 12.688 158.68 12.688C157.672 12.688 156.912 12.976 156.4 13.552C155.888 14.112 155.544 14.84 155.368 15.736C155.208 16.632 155.128 17.728 155.128 19.024C155.128 20.368 155.208 21.496 155.368 22.408C155.528 23.32 155.864 24.056 156.376 24.616C156.904 25.176 157.672 25.456 158.68 25.456C159.688 25.456 160.448 25.176 160.96 24.616C161.488 24.056 161.832 23.32 161.992 22.408C162.152 21.496 162.232 20.368 162.232 19.024ZM174.001 14.824C174.097 13.336 174.665 12.176 175.705 11.344C176.761 10.512 178.105 10.096 179.737 10.096C180.857 10.096 181.825 10.296 182.641 10.696C183.457 11.096 184.073 11.64 184.489 12.328C184.905 13.016 185.113 13.792 185.113 14.656C185.113 15.648 184.849 16.496 184.321 17.2C183.793 17.904 183.161 18.376 182.425 18.616V18.712C183.369 19 184.105 19.528 184.633 20.296C185.161 21.048 185.425 22.016 185.425 23.2C185.425 24.144 185.209 24.984 184.777 25.72C184.345 26.456 183.705 27.04 182.857 27.472C182.009 27.888 180.993 28.096 179.809 28.096C178.081 28.096 176.657 27.656 175.537 26.776C174.433 25.88 173.841 24.6 173.761 22.936H176.401C176.465 23.784 176.793 24.48 177.385 25.024C177.977 25.552 178.777 25.816 179.785 25.816C180.761 25.816 181.513 25.552 182.041 25.024C182.569 24.48 182.833 23.784 182.833 22.936C182.833 21.816 182.473 21.024 181.753 20.56C181.049 20.08 179.961 19.84 178.489 19.84H177.865V17.584H178.513C179.809 17.568 180.793 17.352 181.465 16.936C182.153 16.52 182.497 15.864 182.497 14.968C182.497 14.2 182.249 13.592 181.753 13.144C181.257 12.68 180.553 12.448 179.641 12.448C178.745 12.448 178.049 12.68 177.553 13.144C177.057 13.592 176.761 14.152 176.665 14.824H174.001ZM199.387 12.616L192.715 28H189.955L196.699 12.904H187.819V10.576H199.387V12.616ZM211.137 14.56C210.961 13.824 210.641 13.272 210.177 12.904C209.713 12.536 209.065 12.352 208.233 12.352C206.969 12.352 206.025 12.84 205.401 13.816C204.777 14.776 204.449 16.376 204.417 18.616C204.833 17.912 205.441 17.368 206.241 16.984C207.041 16.6 207.905 16.408 208.833 16.408C209.889 16.408 210.817 16.64 211.617 17.104C212.433 17.552 213.065 18.208 213.513 19.072C213.977 19.936 214.209 20.968 214.209 22.168C214.209 23.288 213.985 24.288 213.537 25.168C213.105 26.048 212.457 26.744 211.593 27.256C210.729 27.752 209.689 28 208.473 28C206.825 28 205.529 27.64 204.585 26.92C203.657 26.184 203.001 25.152 202.617 23.824C202.249 22.496 202.065 20.84 202.065 18.856C202.065 13 204.129 10.072 208.257 10.072C209.857 10.072 211.113 10.504 212.025 11.368C212.953 12.232 213.497 13.296 213.657 14.56H211.137ZM208.233 18.712C207.257 18.712 206.425 19.008 205.737 19.6C205.065 20.176 204.729 21.016 204.729 22.12C204.729 23.224 205.041 24.104 205.665 24.76C206.305 25.4 207.193 25.72 208.329 25.72C209.337 25.72 210.129 25.408 210.705 24.784C211.297 24.16 211.593 23.328 211.593 22.288C211.593 21.2 211.305 20.336 210.729 19.696C210.169 19.04 209.337 18.712 208.233 18.712ZM216.768 13V10.504H221.76V28H219V13H216.768ZM234.926 14.56C234.75 13.824 234.43 13.272 233.966 12.904C233.502 12.536 232.854 12.352 232.022 12.352C230.758 12.352 229.814 12.84 229.19 13.816C228.566 14.776 228.238 16.376 228.206 18.616C228.622 17.912 229.23 17.368 230.03 16.984C230.83 16.6 231.694 16.408 232.622 16.408C233.678 16.408 234.606 16.64 235.406 17.104C236.222 17.552 236.854 18.208 237.302 19.072C237.766 19.936 237.998 20.968 237.998 22.168C237.998 23.288 237.774 24.288 237.326 25.168C236.894 26.048 236.246 26.744 235.382 27.256C234.518 27.752 233.478 28 232.262 28C230.614 28 229.318 27.64 228.374 26.92C227.446 26.184 226.79 25.152 226.406 23.824C226.038 22.496 225.854 20.84 225.854 18.856C225.854 13 227.918 10.072 232.046 10.072C233.646 10.072 234.902 10.504 235.814 11.368C236.742 12.232 237.286 13.296 237.446 14.56H234.926ZM232.022 18.712C231.046 18.712 230.214 19.008 229.526 19.6C228.854 20.176 228.518 21.016 228.518 22.12C228.518 23.224 228.83 24.104 229.454 24.76C230.094 25.4 230.982 25.72 232.118 25.72C233.126 25.72 233.918 25.408 234.494 24.784C235.086 24.16 235.382 23.328 235.382 22.288C235.382 21.2 235.094 20.336 234.518 19.696C233.958 19.04 233.126 18.712 232.022 18.712Z" fill="#EBEAEA"/>
<circle cx="20" cy="20" r="17.1875" fill="white"/>
<path d="M0 20C0 31.0283 8.97167 40 20 40C31.0283 40 40 31.0283 40 20C40 8.97167 31.0283 0 20 0C8.97167 0 0 8.97167 0 20ZM8.33333 14.8167C8.33333 13.44 8.83 12.06 9.88 11.0117L12.5583 8.33333L17.8317 13.6067L14.38 17.0583C16.095 21.3267 19 24.115 22.9417 25.62L26.3933 22.1683L31.6667 27.4417L28.9883 30.12C27.94 31.17 26.56 31.6667 25.1833 31.6667C18.1167 31.6667 8.33333 22.4267 8.33333 14.8167Z" fill="#00C17D"/>
</svg>
