<svg width="56" height="60" viewBox="0 0 56 60" fill="none" xmlns="http://www.w3.org/2000/svg">
<path d="M35.1154 32.2555C35.0536 29.8985 34.1235 27.8301 32.0869 26.3409C30.7339 25.3366 29.0621 24.8581 27.3827 24.9947C26.4603 25.0457 25.557 25.278 24.7244 25.6783C23.8918 26.0785 23.1462 26.6389 22.5302 27.3273C21.422 28.5334 21.1711 29.2075 20.5695 32.3476C18.6293 32.4623 16.9459 33.4346 15.136 33.9841C14.1353 34.288 14.087 34.2838 14.0867 33.2418C14.0865 32.4302 14.0577 31.6168 14.1069 30.8082C14.1287 30.6851 14.1783 30.5686 14.252 30.4676C14.3256 30.3666 14.4214 30.2838 14.532 30.2255C15.1785 29.9601 15.8704 29.8057 16.5177 29.5419C16.7752 29.419 16.9837 29.2127 17.1093 28.9565C17.4435 28.2694 17.7355 27.5596 18.0004 26.8425C18.0843 26.611 18.0842 26.3574 18 26.126C17.709 25.4656 17.3713 24.8242 17.0229 24.1913C16.8615 23.8979 16.8658 23.7007 17.1231 23.4566C17.8073 22.8077 18.474 22.1406 19.1234 21.4554C19.3697 21.1954 19.5691 21.2014 19.8597 21.361C20.4686 21.7081 21.0953 22.0228 21.7374 22.3039C22.007 22.3971 22.3002 22.3967 22.5696 22.3028C23.2292 22.0742 23.8535 21.7431 24.5144 21.5193C24.9052 21.387 25.1429 21.2064 25.2543 20.7966C25.4255 20.1397 25.6385 19.4944 25.892 18.8647C25.9508 18.7542 26.0342 18.6587 26.1358 18.5855C26.2373 18.5123 26.3543 18.4634 26.4778 18.4425C27.3969 18.3968 28.321 18.397 29.2402 18.442C29.3646 18.4602 29.483 18.5069 29.5864 18.5785C29.6897 18.65 29.7751 18.7445 29.8358 18.8545C30.1337 19.6061 30.1674 20.5558 30.6609 21.1097C31.144 21.6517 32.1006 21.7441 32.7873 22.1412C33.3723 22.4796 33.8441 22.5026 34.4047 22.1251C34.8375 21.8338 35.3474 21.6597 35.8011 21.3958C36.1306 21.2042 36.36 21.1898 36.6451 21.4983C37.255 22.1583 37.8949 22.793 38.5526 23.4056C38.8536 23.6859 38.8636 23.9185 38.6716 24.259C38.3277 24.8692 38.0018 25.4926 37.7206 26.1334C37.6397 26.3641 37.6418 26.6158 37.7267 26.845C37.9886 27.563 38.274 28.2754 38.606 28.963C38.7354 29.2195 38.9479 29.4244 39.2089 29.5443C39.8418 29.7897 40.4876 30.0007 41.1433 30.1762C41.49 30.275 41.6386 30.4357 41.6266 30.8189C41.5979 31.7393 41.6027 32.6615 41.6226 33.5823C41.6354 34.176 41.3536 34.2516 40.877 34.0812C39.6811 33.6536 38.4913 33.207 37.2849 32.8113C36.6094 32.5898 35.9055 32.4546 35.1154 32.2555Z" fill="#76B728"/>
<path d="M22.2122 6.25931C23.112 6.25931 24.0127 6.23556 24.9112 6.26956C25.3453 6.28599 25.5274 6.11508 25.6493 5.72287C26.1696 4.0499 26.7006 2.37985 27.2649 0.721387C27.3577 0.448513 27.6365 0.238872 27.8293 0C28.0417 0.240278 28.3531 0.446256 28.4503 0.726479C29.0243 2.38158 29.5632 4.0494 30.0789 5.72373C30.2048 6.13246 30.3894 6.27421 30.8144 6.26821C32.5697 6.24341 34.3258 6.23706 36.081 6.26383C36.3654 6.26817 36.6467 6.47418 36.9295 6.58698C36.7646 6.86183 36.662 7.21914 36.4248 7.39794C35.0413 8.44066 33.6383 9.45718 32.2156 10.4475C31.8473 10.7051 31.759 10.9296 31.9085 11.364C32.4861 13.0412 33.0353 14.7279 33.5563 16.4242C33.6319 16.6699 33.506 16.9775 33.4733 17.2565C33.1968 17.2063 32.8616 17.2394 32.653 17.0926C31.1825 16.0574 29.7307 14.9949 28.2906 13.9175C27.9724 13.6794 27.7597 13.6776 27.4391 13.9176C26.0171 14.9824 24.5801 16.027 23.1281 17.0513C22.9 17.2113 22.5485 17.1956 22.2541 17.2611C22.2262 16.9589 22.1034 16.6275 22.186 16.3592C22.7012 14.6848 23.2453 13.0193 23.8185 11.3629C23.967 10.9324 23.8822 10.7081 23.5124 10.4493C22.0748 9.44342 20.6549 8.41265 19.2527 7.357C19.0331 7.19148 18.9487 6.84664 18.8018 6.58471C19.0608 6.47275 19.3159 6.27651 19.5795 6.26423C20.4554 6.22345 21.3344 6.24882 22.2122 6.24882L22.2122 6.25931Z" fill="#76B728"/>
<path d="M38.7021 26.5918C41.0311 27.3511 43.1617 28.0092 45.2638 28.7482C46.1565 29.062 46.7118 29.7932 46.9817 30.7049C47.1496 31.2031 47.2727 31.7154 47.3496 32.2355C47.4219 32.9001 47.7689 33.207 48.3811 33.3821C49.113 33.5916 49.821 33.8839 50.6001 34.1621C50.4519 34.5933 50.3217 34.9813 50.1854 35.3672C49.5514 37.163 48.9047 38.9544 48.2892 40.7565C48.2398 40.932 48.142 41.09 48.0071 41.2126C47.8721 41.3351 47.7054 41.4173 47.5259 41.4496C44.5631 42.228 42.4965 41.3705 41.0196 38.6855C40.92 38.4948 40.7829 38.3262 40.6166 38.1897C40.4502 38.0533 40.2581 37.9518 40.0516 37.8914C38.4366 37.3371 36.8279 36.7645 35.2255 36.1737C34.9102 36.0676 34.6406 35.8568 34.4616 35.5764C34.2825 35.296 34.2048 34.9628 34.2412 34.6321C34.2752 34.3128 34.4157 34.0141 34.6399 33.7842C34.8642 33.5543 35.1592 33.4064 35.4776 33.3644C35.759 33.3429 36.0418 33.3822 36.3066 33.4796C37.7788 33.9778 39.2544 34.4696 40.7063 35.0227C41.3571 35.2705 41.8547 34.935 42.3956 34.7474C42.4895 34.7148 42.5463 34.4521 42.5476 34.2951C42.5593 32.9356 42.5728 31.5755 42.5344 30.217C42.5111 30.0931 42.4599 29.9762 42.3847 29.875C42.3094 29.7739 42.2121 29.6913 42.1002 29.6334C41.4377 29.3451 40.7594 29.0947 40.0685 28.8833C39.8785 28.8395 39.7042 28.7443 39.5647 28.6081C39.4252 28.4718 39.3259 28.2998 39.2776 28.1109C39.1456 27.6589 38.9465 27.2266 38.7021 26.5918Z" fill="#76B728"/>
<path d="M5.10938 34.1647C5.9997 33.8498 6.83733 33.5947 7.63673 33.2509C7.98236 33.0985 8.27342 32.8445 8.47117 32.5226C8.9907 31.6101 9.42928 30.6518 9.90639 29.7148C10.0862 29.3372 10.3409 29.0002 10.6551 28.7241C10.9692 28.4481 11.3363 28.2389 11.7339 28.1092C13.3974 27.5604 15.0615 27.0133 16.7261 26.4677C16.8501 26.4458 16.9756 26.4344 17.1015 26.4336C16.7991 27.1921 16.5382 27.8918 16.2326 28.5714C16.1778 28.6934 15.9454 28.752 15.7837 28.8066C15.0991 29.0375 14.4127 29.2637 13.722 29.4757C13.3127 29.6014 13.1325 29.8236 13.1434 30.2835C13.1746 31.5989 13.1676 32.9156 13.1459 34.2314C13.1398 34.6007 13.2648 34.7548 13.6093 34.8896C13.8991 35.0117 14.2106 35.074 14.5252 35.0727C14.8397 35.0714 15.1507 35.0066 15.4395 34.8822C16.7826 34.3509 18.1524 33.8846 19.5225 33.4254C19.839 33.3077 20.1866 33.304 20.5056 33.4148C20.8245 33.5257 21.0949 33.7442 21.2701 34.0328C21.4454 34.3214 21.5146 34.662 21.4659 34.9961C21.4172 35.3303 21.2536 35.637 21.0032 35.8635C20.7413 36.0596 20.4485 36.2107 20.137 36.3107C18.6344 36.8559 17.1157 37.3583 15.6253 37.9343C15.2561 38.0892 14.9447 38.3559 14.7351 38.6971C13.8662 40.173 12.7889 41.4295 10.9993 41.6176C10.0037 41.7223 8.96758 41.4792 7.95519 41.3501C7.85704 41.3179 7.76726 41.2644 7.69234 41.1932C7.61741 41.1221 7.55922 41.0353 7.52197 40.939C6.71622 38.7184 5.93309 36.4897 5.10938 34.1647Z" fill="#76B728"/>
<path d="M26.2776 46.8878C27.6081 46.8878 28.8531 46.9011 30.097 46.8702C30.2444 46.8665 30.4543 46.6471 30.5176 46.4824C30.7372 45.9111 30.9035 45.3194 31.0928 44.7364C31.4268 43.708 31.4792 43.6654 32.708 43.4468C32.654 43.7012 32.6149 43.9286 32.557 44.1512C31.9783 46.3764 31.354 48.591 30.836 50.8302C30.622 51.7553 30.6208 52.7317 30.5495 53.6868C30.5155 54.1418 30.5436 54.6014 30.5436 55.076C30.4543 55.1119 30.3611 55.1373 30.2659 55.1516C27.9622 55.1565 25.6586 55.1648 23.3551 55.1447C23.1285 55.1226 22.9198 55.0115 22.7749 54.8358C20.9276 52.4734 20.9969 49.9813 22.9909 47.7349C23.1625 47.5556 23.2959 47.3433 23.3829 47.1109C23.47 46.8785 23.5089 46.6308 23.4974 46.3829C23.4683 44.7383 23.468 43.0933 23.4965 41.4479C23.5184 40.2473 24.5499 39.5366 25.5466 39.9929C26.0218 40.2105 26.292 40.5445 26.2856 41.1156C26.2644 43 26.2776 44.8849 26.2776 46.8878Z" fill="#76B728"/>
<path d="M27.2155 45.948C27.2155 44.5644 27.2195 43.2562 27.2141 41.9481C27.2104 41.0645 27.3942 40.1319 26.5186 39.41C29.5372 39.7089 31.9559 38.7456 33.6696 36.5215C34.8524 36.9783 35.9529 37.3756 37.0267 37.8354C37.353 37.9776 37.6281 38.216 37.8152 38.5187C38.2004 39.196 38.8242 39.971 38.7324 40.6187C38.6454 41.2328 37.7772 41.7421 37.2403 42.2854C36.2902 43.2469 36.2543 43.2971 35.1011 42.6141C34.1352 42.042 33.3391 41.9747 32.2254 42.4319C31.0006 42.9348 30.3354 43.5806 30.0534 44.8441C29.8028 45.9671 29.7172 45.948 28.582 45.948C28.1664 45.948 27.7508 45.948 27.2155 45.948Z" fill="#76B728"/>
<path d="M3.3704 44.0083C3.08253 43.7209 2.65687 43.4844 2.52917 43.138C1.67439 40.8196 0.875481 38.4805 0.0762115 36.142C-0.137837 35.5157 0.105845 35.0004 0.721055 34.765C1.55813 34.4446 2.41222 34.1689 3.25753 33.8698C3.6213 33.7411 3.83984 33.8647 3.96501 34.2239C4.89333 36.8879 5.8329 39.548 6.74419 42.2177C6.80419 42.3935 6.71808 42.7829 6.60222 42.8293C5.59041 43.235 4.55634 43.5851 3.3704 44.0083Z" fill="#76B728"/>
<path d="M55.8293 35.7887C55.7679 35.9976 55.7152 36.2096 55.6436 36.415C54.8952 38.5626 54.1445 40.7095 53.3916 42.8555C53.0401 43.8537 52.6016 44.0545 51.5763 43.7019C50.8524 43.453 50.1337 43.1887 49.4083 42.9444C49.0173 42.8127 48.9037 42.5896 49.044 42.1915C49.9746 39.5516 50.8983 36.9093 51.815 34.2646C51.9622 33.8407 52.2011 33.7409 52.6217 33.8991C53.4198 34.1993 54.2554 34.4115 55.0265 34.7665C55.3891 34.9334 55.6382 35.3465 55.9387 35.6481L55.8293 35.7887Z" fill="#76B728"/>
<path d="M26.6816 56.2395C28.0204 56.2395 29.3592 56.2495 30.6979 56.2345C31.2227 56.2286 31.4684 56.4266 31.4454 56.9724C31.4205 57.5638 31.45 58.1573 31.437 58.7494C31.4183 59.5966 31.0241 59.9908 30.1659 59.9938C27.7956 60.0022 25.4253 60.0019 23.055 59.9929C22.2319 59.9892 21.8492 59.5942 21.8357 58.7789C21.8256 58.1647 21.8552 57.5491 21.8269 56.9361C21.8026 56.4114 22.0453 56.2329 22.5336 56.2362C23.9162 56.2456 25.2989 56.2395 26.6816 56.2395Z" fill="#76B728"/>
<path d="M24.7105 38.8876C23.1407 39.2484 22.4465 40.2934 22.5271 41.7271C21.6964 42.1288 20.9204 42.4418 20.2111 42.8663C19.6345 43.2115 19.2623 43.1595 18.8269 42.6458C18.3046 42.0296 17.6742 41.5059 17.1323 40.9045C17.0039 40.762 17.041 40.4699 17.0051 40.2461C17.0024 40.2292 17.0282 40.2094 17.0349 40.1889C17.5627 38.5766 18.5821 37.5411 20.3126 37.2221C20.8477 37.1235 21.3353 36.7671 21.8852 36.5098L24.7105 38.8876Z" fill="#76B728"/>
<path d="M6.7539 19.5468C6.53371 19.3065 6.19215 19.078 6.0683 18.7638C5.89799 18.3316 6.13428 17.9506 6.56744 17.7485C7.53992 17.2948 8.51723 16.8514 9.49216 16.4029C10.6858 15.8538 11.877 15.2994 13.0732 14.7559C13.7548 14.4462 14.2272 14.5627 14.4844 15.0816C14.7359 15.5893 14.5172 16.0736 13.8567 16.3788C11.7297 17.3618 9.59922 18.3372 7.46526 19.305C7.28894 19.3854 7.09703 19.4315 6.7539 19.5468Z" fill="#76B728"/>
<path d="M40.8257 14.4883C41.1836 14.6171 41.3937 14.6763 41.59 14.7658C43.6816 15.7193 45.7718 16.676 47.8605 17.636C48.0016 17.6957 48.1352 17.772 48.2583 17.8633C48.6384 18.1649 48.7634 18.6125 48.4867 18.9631C48.2847 19.2192 47.7508 19.5042 47.5252 19.4064C45.1363 18.3708 42.7708 17.2823 40.4288 16.141C40.2179 16.0385 40.0808 15.4745 40.1534 15.1861C40.2245 14.9038 40.6073 14.6998 40.8257 14.4883Z" fill="#76B728"/>
<path d="M8.81351 9.31622C9.93096 9.31618 11.0484 9.3113 12.1659 9.31793C12.8947 9.32225 13.2899 9.65129 13.2838 10.2256C13.2779 10.7688 12.8888 11.1221 12.2112 11.1257C9.93256 11.1377 7.65385 11.1378 5.37509 11.126C4.66183 11.1224 4.2712 10.7523 4.29604 10.172C4.3197 9.61887 4.69063 9.3222 5.39542 9.31806C6.53475 9.31137 7.67414 9.31626 8.81351 9.31622Z" fill="#76B728"/>
<path d="M45.8407 11.1306C44.7229 11.1308 43.605 11.1391 42.4873 11.1279C41.7668 11.1206 41.3487 10.776 41.3438 10.2236C41.3388 9.66845 41.7606 9.31967 42.4728 9.31812C44.7303 9.3132 46.9878 9.31323 49.2454 9.31822C49.9308 9.31977 50.3279 9.63851 50.3517 10.1751C50.3767 10.74 49.9656 11.1174 49.2598 11.1265C48.1203 11.1413 46.9804 11.1305 45.8407 11.1306Z" fill="#76B728"/>
<path d="M40.3013 5.41386C40.0792 5.1773 39.6783 4.94008 39.6275 4.64302C39.6156 4.46123 39.6459 4.27914 39.7161 4.11103C39.7864 3.94292 39.8946 3.79336 40.0323 3.67408C40.5427 3.31639 41.1619 3.11363 41.7373 2.84903C43.2058 2.17357 44.6749 1.49912 46.1444 0.825681C46.8381 0.509233 47.3628 0.641644 47.5931 1.17613C47.8145 1.6898 47.5756 2.15204 46.9085 2.45834C44.9633 3.35143 43.0163 4.2404 41.0673 5.12526C40.8705 5.2148 40.662 5.27896 40.3013 5.41386Z" fill="#76B728"/>
<path d="M7.73063 0.550781C8.05502 0.661266 8.22499 0.703409 8.38157 0.774874C10.3892 1.69115 12.3952 2.61091 14.3996 3.53415C15.046 3.83374 15.266 4.34271 14.9807 4.84066C14.932 4.94652 14.862 5.04118 14.7751 5.11871C14.6881 5.19624 14.5861 5.25496 14.4753 5.2912C14.3646 5.32744 14.2476 5.34041 14.1316 5.3293C14.0157 5.31819 13.9032 5.28323 13.8014 5.22663C11.6916 4.27126 9.58688 3.30476 7.48723 2.32713C7.06294 2.1296 6.8312 1.7289 7.02118 1.30069C7.15888 0.990378 7.50922 0.77439 7.73063 0.550781Z" fill="#76B728"/>
</svg>
