<svg xmlns="http://www.w3.org/2000/svg" width="10" height="19" viewBox="0 0 10 19" fill="none">
  <path d="M-0.440038 1.03017C-0.14362 0.138383 1.06238 0.138382 1.3588 1.03016L2.92835 5.7522C3.05911 6.14561 3.41018 6.41235 3.80836 6.42084L8.58778 6.52269C9.4904 6.54193 9.86307 7.74139 9.14365 8.31178L5.33427 11.332C5.0169 11.5836 4.88281 12.0152 4.99813 12.4139L6.38242 17.1989C6.64385 18.1025 5.66818 18.8438 4.92714 18.3046L1.00326 15.4492C0.676354 15.2113 0.242407 15.2113 -0.0845003 15.4492L-4.00838 18.3046C-4.74942 18.8438 -5.72509 18.1025 -5.46366 17.1989L-4.07937 12.4139C-3.96405 12.0152 -4.09814 11.5836 -4.41551 11.332L-8.22489 8.31178C-8.94431 7.74139 -8.57164 6.54193 -7.66902 6.52269L-2.88961 6.42084C-2.49142 6.41235 -2.14035 6.14561 -2.00959 5.75221L-0.440038 1.03017Z" fill="white"/>
</svg>