<svg xmlns="http://www.w3.org/2000/svg" width="19" height="19" viewBox="0 0 19 19" fill="none">
  <path d="M8.35586 1.03017C8.65228 0.138383 9.85828 0.138382 10.1547 1.03016L11.7242 5.7522C11.855 6.14561 12.2061 6.41235 12.6043 6.42084L17.3837 6.52269C18.2863 6.54193 18.659 7.74139 17.9395 8.31178L14.1302 11.332C13.8128 11.5836 13.6787 12.0152 13.794 12.4139L15.1783 17.1989C15.4398 18.1025 14.4641 18.8438 13.723 18.3046L9.79916 15.4492C9.47225 15.2113 9.03831 15.2113 8.7114 15.4492L4.78752 18.3046C4.04648 18.8438 3.0708 18.1025 3.33223 17.1989L4.71652 12.4139C4.83185 12.0152 4.69776 11.5836 4.38039 11.332L0.571009 8.31178C-0.148412 7.74139 0.224261 6.54193 1.12688 6.52269L5.90629 6.42084C6.30448 6.41235 6.65555 6.14561 6.78631 5.75221L8.35586 1.03017Z" fill="#FFE600"/>
</svg>